<svg width="119" height="143" viewBox="0 0 119 143" fill="none" xmlns="http://www.w3.org/2000/svg">
<path d="M48.023 7.20383C52.7985 2.49994 30.6392 0.223143 20.9853 4.49995C-8.59701 17.6052 0.485188 117.5 9.7987 133.369C17.7985 147 48.125 143.696 58.5371 133.369C70 122 77.7985 99.4999 48.023 73.1112C18.2474 46.7224 43.2474 11.9077 48.023 7.20383Z" fill="#4158D0"/>
<path d="M118.017 40.1093C118.017 62.2611 100.06 80.2186 77.9078 80.2186C55.756 80.2186 37.7985 62.2611 37.7985 40.1093C37.7985 17.9575 55.756 2.3907e-06 77.9078 2.3907e-06C100.06 2.3907e-06 118.017 17.9575 118.017 40.1093Z" fill="#4158D0"/>
</svg>
