<svg width="162" height="248" viewBox="0 0 162 248" fill="none" xmlns="http://www.w3.org/2000/svg">
<path d="M99.3029 99.1943L83.7029 83.5943C82.7657 82.657 82.7657 81.1374 83.7029 80.2001L87.0969 76.806C88.0342 75.8687 89.5539 75.8687 90.4911 76.806L101 87.3148L123.509 64.806C124.446 63.8688 125.966 63.8688 126.903 64.806L130.297 68.2001C131.234 69.1373 131.234 70.6569 130.297 71.5943L102.697 99.1944C101.76 100.132 100.24 100.132 99.3029 99.1943V99.1943Z" fill="black"/>
<line x1="56" y1="30" x2="56" y2="221" stroke="black" stroke-width="10" stroke-linecap="round"/>
<circle cx="56" cy="15" r="12" stroke="black" stroke-width="6"/>
<path d="M125 224.5C125 225.727 124.327 227.552 121.643 229.847C118.978 232.125 114.827 234.403 109.262 236.415C98.174 240.424 82.5257 243 65 243C47.4743 243 31.826 240.424 20.7381 236.415C15.1731 234.403 11.0223 232.125 8.35678 229.847C5.67288 227.552 5 225.727 5 224.5C5 223.273 5.67288 221.448 8.35678 219.153C11.0223 216.875 15.1731 214.597 20.7381 212.585C31.826 208.576 47.4743 206 65 206C82.5257 206 98.174 208.576 109.262 212.585C114.827 214.597 118.978 216.875 121.643 219.153C124.327 221.448 125 223.273 125 224.5Z" stroke="black" stroke-width="10"/>
<path d="M162 84C157 84 157 84.0001 157 84.0003V84.0012V84.0027V84.0047V84.0074V84.0107V84.0145V84.0189V84.0239V84.0295V84.0356V84.0423V84.0496V84.0575V84.066V84.075V84.0846V84.0947V84.1054V84.1167V84.1285V84.1409V84.1539V84.1674V84.1814V84.196V84.2112V84.2269V84.2432V84.26V84.2773V84.2952V84.3136V84.3326V84.352V84.3721V84.3926V84.4137V84.4353V84.4575V84.4802V84.5034V84.5271V84.5513V84.5761V84.6013V84.6271V84.6534V84.6802V84.7076V84.7354V84.7637V84.7926V84.8219V84.8517V84.8821V84.9129V84.9443V84.9761V85.0084V85.0412V85.0745V85.1083V85.1426V85.1774V85.2126V85.2483V85.2845V85.3212V85.3583V85.396V85.4341V85.4726V85.5116V85.5511V85.5911V85.6315V85.6724V85.7138V85.7556V85.7978V85.8405V85.8837V85.9273V85.9714V86.0159V86.0608V86.1062V86.1521V86.1983V86.2451V86.2922V86.3398V86.3878V86.4363V86.4852V86.5345V86.5842V86.6344V86.6849V86.7359V86.7874V86.8392V86.8915V86.9441V86.9972V87.0507V87.1046V87.1589V87.2136V87.2687V87.3242V87.3802V87.4365V87.4932V87.5503V87.6078V87.6657V87.724V87.7826V87.8417V87.9011V87.9609V88.0211V88.0817V88.1427V88.204V88.2657V88.3278V88.3902V88.453V88.5162V88.5798V88.6437V88.708V88.7726V88.8376V88.9029V88.9686V89.0347V89.1011V89.1678V89.2349V89.3024V89.3702V89.4383V89.5068V89.5756V89.6447V89.7142V89.784V89.8542V89.9247V89.9955V90.0666V90.1381V90.2099V90.282V90.3544V90.4271V90.5002V90.5736V90.6472V90.7212V90.7955V90.8701V90.9451V91.0203V91.0958V91.1716V91.2478V91.3242V91.4009V91.4779V91.5552V91.6328V91.7107V91.7888V91.8673V91.946V92.025V92.1043V92.1839V92.2638V92.3439V92.4243V92.5049V92.5859V92.6671V92.7485V92.8303V92.9123V92.9945V93.077V93.1598V93.2428V93.3261V93.4096V93.4934V93.5774V93.6617V93.7462V93.831V93.916V94.0012V94.0867V94.1724V94.2584V94.3446V94.431V94.5176V94.6045V94.6916V94.7789V94.8665V94.9542V95.0422V95.1304V95.2188V95.3074V95.3963V95.4853V95.5746V95.664V95.7537V95.8436V95.9336V96.0239V96.1144V96.205V96.2959V96.3869V96.4782V96.5696V96.6612V96.753V96.845V96.9372V97.0295V97.122V97.2147V97.3076V97.4007V97.4939V97.5873V97.6808V97.7745V97.8684V97.9625V98.0567V98.1511V98.2456V98.3403V98.4351V98.5301V98.6253V98.7205V98.816V98.9116V99.0073V99.1032V99.1992V99.2953V99.3916V99.488V99.5846V99.6812V99.7781V99.875V99.9721V100.069V100.167V100.264V100.362V100.459V100.557V100.655V100.753V100.851V100.949V101.048V101.146V101.245V101.343V101.442V101.541V101.64V101.739V101.838V101.937V102.036V102.136V102.235V102.335V102.435V102.534V102.634V102.734V102.834V102.934V103.034V103.134V103.235V103.335V103.435V103.536V103.636V103.737V103.837V103.938V104.039V104.14V104.24V104.341V104.442V104.543V104.644V104.745V104.846V104.948V105.049V105.15V105.251V105.353V105.454V105.555V105.657V105.758V105.859V105.961V106.062V106.164V106.265V106.367V106.468V106.57V106.671V106.773V106.875V106.976V107.078V107.179V107.281V107.382V107.484V107.585V107.687V107.788V107.89V107.992V108.093V108.194V108.296V108.397V108.499V108.6V108.702V108.803V108.904V109.005V109.107V109.208V109.309V109.41V109.511V109.612V109.713V109.814V109.915V110.016V110.117V110.218V110.318V110.419V110.52V110.62V110.721V110.821V110.922V111.022V111.122V111.222V111.322V111.422V111.522V111.622V111.722V111.822V111.921V112.021V112.12V112.22V112.319V112.418V112.517V112.616V112.715V112.814V112.913V113.011V113.11V113.208V113.306V113.405V113.503V113.601V113.699V113.796V113.894V113.991V114.089V114.186V114.283V114.38V114.477V114.574V114.671V114.767V114.863V114.96V115.056V115.152V115.248V115.343V115.439V115.534V115.629V115.725V115.819V115.914V116.009V116.103V116.198V116.292V116.386V116.48V116.573V116.667V116.76V116.853V116.946V117.039V117.132V117.224V117.317V117.409V117.501V117.592V117.684V117.775V117.866V117.957V118.048V118.139V118.229V118.319V118.409V118.499V118.589V118.678V118.767V118.856V118.945V119.034V119.122V119.21V119.298V119.386V119.473V119.56V119.647V119.734V119.821V119.907V119.993V120.079V120.165V120.25V120.335V120.42V120.505V120.589V120.674V120.757V120.841V120.925V121.008V121.091V121.173V121.256V121.338V121.42V121.502V121.531C156.711 121.65 156.326 121.788 155.825 121.934C153.347 122.66 149.468 123.195 144.364 123.493C134.261 124.085 120.624 123.694 106.792 122.884C93.0052 122.077 79.1999 120.864 68.8294 119.852C63.6473 119.347 59.3299 118.891 56.3101 118.563C56.2052 118.552 56.1018 118.54 56 118.529V47.3581C56.1412 47.3391 56.2855 47.3197 56.4329 47.3C59.4493 46.8963 63.7627 46.3367 68.9401 45.7147C79.3026 44.4699 93.0924 42.9796 106.859 41.9874C120.682 40.9911 134.263 40.5142 144.297 41.2373C149.371 41.6031 153.157 42.2534 155.535 43.1105C156.279 43.3783 156.734 43.6029 157 43.7613V43.8524V43.9481V44.0439V44.1399V44.2361V44.3325V44.4291V44.5259V44.6228V44.7199V44.8172V44.9147V45.0124V45.1102V45.2082V45.3064V45.4047V45.5032V45.6019V45.7007V45.7997V45.8989V45.9982V46.0977V46.1974V46.2972V46.3971V46.4972V46.5975V46.6979V46.7985V46.8992V47V47.101V47.2021V47.3034V47.4048V47.5064V47.6081V47.7099V47.8118V47.9139V48.0161V48.1185V48.2209V48.3235V48.4263V48.5291V48.6321V48.7352V48.8384V48.9417V49.0451V49.1486V49.2523V49.3561V49.4599V49.5639V49.668V49.7722V49.8765V49.9809V50.0854V50.19V50.2947V50.3995V50.5043V50.6093V50.7144V50.8195V50.9248V51.0301V51.1355V51.241V51.3466V51.4522V51.5579V51.6638V51.7696V51.8756V51.9816V52.0877V52.1939V52.3001V52.4064V52.5128V52.6192V52.7257V52.8323V52.9389V53.0455V53.1523V53.259V53.3659V53.4728V53.5797V53.6867V53.7937V53.9008V54.0079V54.115V54.2222V54.3294V54.4367V54.544V54.6514V54.7587V54.8661V54.9736V55.081V55.1885V55.296V55.4036V55.5111V55.6187V55.7263V55.8339V55.9416V56.0492V56.1569V56.2645V56.3722V56.4799V56.5876V56.6953V56.803V56.9107V57.0184V57.1261V57.2338V57.3415V57.4492V57.5569V57.6646V57.7723V57.8799V57.9876V58.0952V58.2028V58.3104V58.418V58.5256V58.6331V58.7406V58.8481V58.9556V59.063V59.1704V59.2778V59.3851V59.4924V59.5997V59.7069V59.8141V59.9213V60.0284V60.1355V60.2425V60.3495V60.4564V60.5633V60.6701V60.7769V60.8836V60.9903V61.0969V61.2035V61.31V61.4164V61.5228V61.6291V61.7353V61.8415V61.9476V62.0536V62.1596V62.2654V62.3713V62.477V62.5826V62.6882V62.7937V62.8991V63.0044V63.1097V63.2148V63.3199V63.4249V63.5298V63.6346V63.7392V63.8438V63.9483V64.0527V64.157V64.2612V64.3653V64.4693V64.5732V64.677V64.7806V64.8842V64.9876V65.0909V65.1941V65.2972V65.4002V65.503V65.6058V65.7084V65.8108V65.9132V66.0154V66.1175V66.2195V66.3213V66.423V66.5245V66.626V66.7272V66.8284V66.9294V67.0302V67.1309V67.2315V67.3319V67.4322V67.5323V67.6322V67.732V67.8317V67.9312V68.0305V68.1297V68.2287V68.3275V68.4262V68.5247V68.6231V68.7213V68.8193V68.9171V69.0148V69.1123V69.2096V69.3067V69.4037V69.5004V69.597V69.6934V69.7896V69.8857V69.9815V70.0771V70.1726V70.2679V70.3629V70.4578V70.5525V70.6469V70.7412V70.8353V70.9291V71.0228V71.1162V71.2095V71.3025V71.3953V71.4879V71.5803V71.6725V71.7644V71.8562V71.9477V72.039V72.1301V72.2209V72.3115V72.4019V72.4921V72.582V72.6717V72.7611V72.8503V72.9393V73.0281V73.1166V73.2048V73.2928V73.3806V73.4681V73.5554V73.6424V73.7292V73.8157V73.902V73.988V74.0737V74.1592V74.2445V74.3294V74.4142V74.4986V74.5828V74.6667V74.7503V74.8337V74.9168V74.9996V75.0821V75.1644V75.2464V75.3281V75.4095V75.4906V75.5715V75.6521V75.7323V75.8123V75.892V75.9714V76.0506V76.1294V76.2079V76.2861V76.364V76.4417V76.519V76.596V76.6727V76.7491V76.8252V76.901V76.9764V77.0516V77.1264V77.2009V77.2751V77.349V77.4226V77.4958V77.5687V77.6413V77.7136V77.7855V77.8571V77.9284V77.9993V78.0699V78.1402V78.2101V78.2797V78.3489V78.4178V78.4864V78.5546V78.6225V78.69V78.7572V78.824V78.8904V78.9565V79.0223V79.0877V79.1527V79.2174V79.2817V79.3456V79.4092V79.4724V79.5353V79.5977V79.6598V79.7216V79.7829V79.8439V79.9045V79.9647V80.0246V80.084V80.1431V80.2018V80.2601V80.318V80.3755V80.4326V80.4894V80.5457V80.6017V80.6572V80.7124V80.7671V80.8215V80.8754V80.929V80.9821V81.0348V81.0872V81.1391V81.1906V81.2416V81.2923V81.3426V81.3924V81.4418V81.4908V81.5393V81.5875V81.6352V81.6825V81.7293V81.7758V81.8218V81.8673V81.9124V81.9571V82.0014V82.0452V82.0886V82.1315V82.174V82.216V82.2576V82.2987V82.3394V82.3796V82.4194V82.4587V82.4976V82.536V82.574V82.6114V82.6485V82.685V82.7211V82.7568V82.7919V82.8266V82.8608V82.8946V82.9278V82.9606V82.993V83.0248V83.0561V83.087V83.1174V83.1473V83.1767V83.2056V83.2341V83.262V83.2895V83.3164V83.3429V83.3689V83.3943V83.4193V83.4437V83.4677V83.4912V83.5141V83.5365V83.5585V83.5799V83.6008V83.6212V83.641V83.6604V83.6792V83.6975V83.7153V83.7326V83.7494V83.7656V83.7813V83.7964V83.8111V83.8251V83.8387V83.8517V83.8642V83.8762V83.8876V83.8985V83.9088V83.9186V83.9278V83.9365V83.9446V83.9522V83.9592V83.9657V83.9716V83.977V83.9818V83.9861V83.9898V83.9929V83.9954V83.9974V83.9989V83.9997C157 83.9999 157 84 162 84ZM157.334 44.0152C157.328 44.0166 157.292 43.9883 157.246 43.9259C157.317 43.9825 157.34 44.0137 157.334 44.0152Z" stroke="black" stroke-width="10"/>
</svg>
