<svg width="32" height="32" viewBox="0 0 32 32" fill="none" xmlns="http://www.w3.org/2000/svg">
<circle cx="16" cy="16" r="16" fill="#AD0028"/>
<path d="M19.72 19.72C20.0267 19.72 20.18 19.8467 20.18 20.1V22.56C20.18 22.6933 20.1333 22.8 20.04 22.88C19.96 22.96 19.84 23 19.68 23H11.18C10.86 23 10.7 22.86 10.7 22.58V20.1C10.7 19.8467 10.8467 19.72 11.14 19.72H12.92C12.9867 19.72 13.04 19.7067 13.08 19.68C13.1333 19.64 13.16 19.5933 13.16 19.54V12.86C13.16 12.74 13.1333 12.66 13.08 12.62C13.04 12.58 12.9533 12.5733 12.82 12.6L11.22 12.96C11.18 12.9733 11.12 12.98 11.04 12.98C10.8 12.98 10.68 12.82 10.68 12.5V10.82C10.68 10.66 10.7 10.54 10.74 10.46C10.7933 10.38 10.8933 10.3067 11.04 10.24L14.64 8.44C14.8667 8.33333 15.0467 8.26 15.18 8.22C15.3133 8.18 15.4667 8.16 15.64 8.16H17.34C17.4467 8.16 17.5333 8.2 17.6 8.28C17.6667 8.34667 17.7 8.44667 17.7 8.58V19.48C17.7 19.64 17.7733 19.72 17.92 19.72H19.72Z" fill="white"/>
</svg>
