<svg width="32" height="32" viewBox="0 0 32 32" fill="none" xmlns="http://www.w3.org/2000/svg">
<circle cx="16" cy="16" r="16" fill="#AD0028"/>
<path d="M14.12 16.44C15.08 15.6533 15.7667 15.06 16.18 14.66C16.6067 14.2467 16.8933 13.9067 17.04 13.64C17.1867 13.36 17.26 13.0533 17.26 12.72C17.26 12.2667 17.1 11.9 16.78 11.62C16.4733 11.3267 16.0533 11.18 15.52 11.18C15.0133 11.18 14.5667 11.3467 14.18 11.68C13.7933 12 13.38 12.5667 12.94 13.38C12.8733 13.5 12.7733 13.56 12.64 13.56C12.5467 13.56 12.4333 13.5267 12.3 13.46L9.92 12.28C9.73333 12.1867 9.64 12.04 9.64 11.84C9.64 11.72 9.67333 11.6067 9.74 11.5C10.4867 10.2867 11.34 9.39333 12.3 8.82C13.2733 8.24667 14.4267 7.96 15.76 7.96C16.96 7.96 18 8.16 18.88 8.56C19.7733 8.94667 20.46 9.5 20.94 10.22C21.42 10.9267 21.66 11.7467 21.66 12.68C21.66 13.4667 21.46 14.18 21.06 14.82C20.66 15.4467 19.98 16.08 19.02 16.72L15.52 19.06C15.4267 19.1267 15.38 19.18 15.38 19.22C15.38 19.2733 15.4667 19.3 15.64 19.3H21.34C21.6467 19.3 21.8 19.4267 21.8 19.68V22.56C21.8 22.6933 21.7533 22.8 21.66 22.88C21.58 22.96 21.46 23 21.3 23H10.12C9.92 23 9.78 22.9667 9.7 22.9C9.62 22.8333 9.58 22.7 9.58 22.5V20.52C9.58 20.4133 9.64667 20.2733 9.78 20.1C9.92667 19.9267 10.2533 19.6333 10.76 19.22L14.12 16.44Z" fill="white"/>
</svg>
