<svg width="32" height="32" viewBox="0 0 32 32" fill="none" xmlns="http://www.w3.org/2000/svg">
<circle cx="16" cy="16" r="16" fill="#AD0028"/>
<path d="M10.16 10.64C10.0933 10.5467 10.06 10.4667 10.06 10.4C10.06 10.32 10.0933 10.2267 10.16 10.12C10.64 9.49333 11.3933 8.98 12.42 8.58C13.46 8.16667 14.5533 7.96 15.7 7.96C16.94 7.96 18.0067 8.12667 18.9 8.46C19.8067 8.78 20.4933 9.24 20.96 9.84C21.44 10.44 21.68 11.1333 21.68 11.92C21.68 12.5333 21.48 13.12 21.08 13.68C20.6933 14.24 20.1467 14.6267 19.44 14.84C19.28 14.8933 19.2 14.9667 19.2 15.06C19.2 15.1533 19.2733 15.22 19.42 15.26C20.26 15.5533 20.92 16 21.4 16.6C21.8933 17.1867 22.14 17.8467 22.14 18.58C22.14 21.66 19.9133 23.2 15.46 23.2C14.2333 23.2 13.0733 22.9467 11.98 22.44C10.8867 21.9333 10.08 21.2867 9.56 20.5C9.49333 20.3933 9.46 20.2867 9.46 20.18C9.46 19.9933 9.54667 19.8533 9.72 19.76L11.74 18.36C11.8867 18.28 12 18.24 12.08 18.24C12.1467 18.24 12.2133 18.2733 12.28 18.34C12.92 18.9933 13.4733 19.4467 13.94 19.7C14.42 19.9533 15.0067 20.08 15.7 20.08C16.3133 20.08 16.7933 19.9533 17.14 19.7C17.5 19.4467 17.68 19.1 17.68 18.66C17.68 18.1933 17.4867 17.8067 17.1 17.5C16.7133 17.1933 16.2 17.0333 15.56 17.02L13.88 16.98C13.6 16.98 13.46 16.8667 13.46 16.64V14.22C13.46 14.0333 13.6 13.92 13.88 13.88L15.22 13.8C15.8467 13.76 16.34 13.6 16.7 13.32C17.0733 13.0267 17.26 12.66 17.26 12.22C17.26 11.8733 17.1 11.5867 16.78 11.36C16.46 11.12 16.0733 11 15.62 11C15.0467 11 14.5333 11.1067 14.08 11.32C13.6267 11.5333 13.1267 11.9 12.58 12.42C12.4733 12.5267 12.3933 12.58 12.34 12.58C12.3 12.58 12.22 12.5333 12.1 12.44L10.16 10.64Z" fill="white"/>
</svg>
