<svg width="234" height="242" viewBox="0 0 234 242" fill="none" xmlns="http://www.w3.org/2000/svg">
<circle cx="154.376" cy="79" r="74" stroke="black" stroke-width="10"/>
<line x1="101" y1="140.142" x2="14.1421" y2="227" stroke="black" stroke-width="20" stroke-linecap="round"/>
<path d="M123.04 52.64C122.32 52.4 121.96 51.88 121.96 51.08C121.96 50.6 122 50.24 122.08 50C124.64 44.08 128.56 39.56 133.84 36.44C139.12 33.32 145.4 31.76 152.68 31.76C158.44 31.76 163.56 32.72 168.04 34.64C172.52 36.48 175.96 39 178.36 42.2C180.84 45.4 182.08 48.92 182.08 52.76C182.08 55.72 181.52 58.4 180.4 60.8C179.28 63.12 177.92 65.12 176.32 66.8C174.72 68.48 172.6 70.48 169.96 72.8C166.12 76.16 163.24 79.16 161.32 81.8C159.4 84.44 158.44 87.68 158.44 91.52C158.44 92.16 158.2 92.72 157.72 93.2C157.24 93.6 156.68 93.8 156.04 93.8H146.2C144.52 93.8 143.68 92.88 143.68 91.04C143.68 87.36 144.24 84.04 145.36 81.08C146.56 78.12 147.96 75.64 149.56 73.64C151.24 71.56 153.36 69.24 155.92 66.68C158.72 63.8 160.72 61.48 161.92 59.72C163.2 57.88 163.84 55.88 163.84 53.72C163.84 50.92 162.76 48.68 160.6 47C158.52 45.24 155.84 44.36 152.56 44.36C149.36 44.36 146.36 45.28 143.56 47.12C140.76 48.88 138.76 51.28 137.56 54.32C137.24 54.96 136.92 55.36 136.6 55.52C136.28 55.6 135.76 55.6 135.04 55.52L123.04 52.64ZM160.96 119.12C160.96 120.16 160.68 120.92 160.12 121.4C159.64 121.8 158.84 122 157.72 122H143.44C142.48 122 141.8 121.8 141.4 121.4C141.08 121 140.92 120.36 140.92 119.48V104.6C140.92 103.16 141.56 102.44 142.84 102.44H159.28C160.4 102.44 160.96 103.08 160.96 104.36V119.12Z" fill="black"/>
</svg>
