<svg width="234" height="238" viewBox="0 0 234 238" fill="none" xmlns="http://www.w3.org/2000/svg">
<circle cx="154.376" cy="79" r="75" stroke="black" stroke-width="8"/>
<line x1="101" y1="136.607" x2="10.6066" y2="227" stroke="black" stroke-width="15" stroke-linecap="round"/>
<path d="M125.08 49.4C124.68 49.32 124.44 49.12 124.36 48.8C124.28 48.48 124.32 48.16 124.48 47.84C127.04 42.8 130.8 38.88 135.76 36.08C140.8 33.2 146.48 31.76 152.8 31.76C158.16 31.76 162.88 32.68 166.96 34.52C171.04 36.28 174.16 38.8 176.32 42.08C178.56 45.36 179.68 49.08 179.68 53.24C179.68 56.44 179.12 59.36 178 62C176.88 64.56 175.48 66.84 173.8 68.84C172.2 70.84 170.04 73.24 167.32 76.04C164.6 78.76 162.4 81.12 160.72 83.12C159.12 85.12 157.76 87.44 156.64 90.08C155.52 92.64 154.96 95.48 154.96 98.6C154.96 99 154.8 99.36 154.48 99.68C154.24 99.92 153.92 100.04 153.52 100.04H147.76C146.72 100.04 146.2 99.48 146.2 98.36C146.2 94.6 146.8 91.2 148 88.16C149.2 85.04 150.64 82.36 152.32 80.12C154 77.88 156.24 75.24 159.04 72.2C162.56 68.36 165.12 65.16 166.72 62.6C168.4 59.96 169.24 56.96 169.24 53.6C169.24 49.36 167.72 46 164.68 43.52C161.64 40.96 157.64 39.68 152.68 39.68C148.68 39.68 144.8 40.76 141.04 42.92C137.28 45.08 134.72 47.76 133.36 50.96C133.2 51.36 133 51.6 132.76 51.68C132.6 51.76 132.32 51.72 131.92 51.56L125.08 49.4ZM156.76 120.08C156.76 120.8 156.6 121.32 156.28 121.64C155.96 121.88 155.36 122 154.48 122H146.08C144.96 122 144.4 121.44 144.4 120.32V110.12C144.4 109.16 144.8 108.68 145.6 108.68H155.56C156.36 108.68 156.76 109.12 156.76 110V120.08Z" fill="black"/>
</svg>
