<svg width="256" height="285" viewBox="0 0 256 285" fill="none" xmlns="http://www.w3.org/2000/svg">
<mask id="path-1-inside-1" fill="white">
<path fill-rule="evenodd" clip-rule="evenodd" d="M198 113.5C198 133.716 189.369 151.916 175.591 164.615C173.598 167.616 164.872 180.818 161.5 187C157.885 193.628 158.874 248.666 158.99 254.5H159C159 254.628 158.999 254.756 158.998 254.885C158.999 254.961 159 255 159 255H158.996C158.933 258.835 158.147 262.625 156.678 266.172C155.146 269.872 152.899 273.235 150.067 276.067C147.235 278.899 143.872 281.146 140.172 282.678C136.471 284.211 132.505 285 128.5 285C124.495 285 120.529 284.211 116.828 282.678C113.128 281.146 109.765 278.899 106.933 276.067C104.101 273.235 101.854 269.872 100.322 266.172C98.8527 262.625 98.067 258.835 98.0041 255H98C98 255 97.5 193.12 94.5 187C91.8239 181.541 83.1796 167.519 81.3445 164.555C67.604 151.858 59 133.684 59 113.5C59 75.1162 90.1162 44 128.5 44C166.884 44 198 75.1162 198 113.5Z"/>
</mask>
<path d="M175.591 164.615L168.813 157.262L167.927 158.079L167.26 159.083L175.591 164.615ZM161.5 187L152.721 182.211L152.721 182.211L161.5 187ZM158.99 254.5L148.992 254.698L149.186 264.5H158.99V254.5ZM159 254.5H169V244.5H159V254.5ZM158.998 254.885L148.998 254.759L148.996 254.926L149 255.093L158.998 254.885ZM159 255V265H169.217L168.998 254.785L159 255ZM158.996 255V245H149.159L148.997 254.836L158.996 255ZM156.678 266.172L147.44 262.345L147.44 262.345L156.678 266.172ZM150.067 276.067L157.138 283.138L157.138 283.138L150.067 276.067ZM140.172 282.678L143.999 291.917L143.999 291.917L140.172 282.678ZM116.828 282.678L113.001 291.917L113.001 291.917L116.828 282.678ZM106.933 276.067L114.004 268.996L114.004 268.996L106.933 276.067ZM100.322 266.172L91.0829 269.999L91.0829 269.999L100.322 266.172ZM98.0041 255L108.003 254.836L107.841 245H98.0041V255ZM98 255L88.0003 255.081L88.0805 265H98V255ZM94.5 187L85.5208 191.401L85.5208 191.401L94.5 187ZM81.3445 164.555L89.8465 159.291L89.1303 158.134L88.1312 157.211L81.3445 164.555ZM182.368 171.968C198.114 157.455 208 136.624 208 113.5H188C188 130.807 180.624 146.376 168.813 157.262L182.368 171.968ZM170.279 191.789C173.393 186.08 181.823 173.306 183.921 170.148L167.26 159.083C165.372 161.926 156.352 175.555 152.721 182.211L170.279 191.789ZM168.988 254.302C168.931 251.417 168.657 236.326 168.845 221.172C168.939 213.577 169.148 206.104 169.544 200.19C169.743 197.219 169.979 194.802 170.241 193.03C170.58 190.746 170.79 190.852 170.279 191.789L152.721 182.211C151.306 184.805 150.756 188.081 150.457 190.098C150.083 192.627 149.804 195.643 149.589 198.855C149.157 205.307 148.943 213.201 148.847 220.924C148.655 236.404 148.933 251.75 148.992 254.698L168.988 254.302ZM158.99 264.5H159V244.5H158.99V264.5ZM149 254.5C149 254.586 148.999 254.672 148.998 254.759L168.997 255.011C168.999 254.841 169 254.67 169 254.5H149ZM159 255C168.998 254.785 168.998 254.785 168.998 254.785C168.998 254.785 168.998 254.785 168.998 254.785C168.998 254.785 168.998 254.785 168.998 254.785C168.998 254.785 168.998 254.785 168.998 254.785C168.998 254.785 168.998 254.785 168.998 254.785C168.998 254.785 168.998 254.785 168.998 254.785C168.998 254.785 168.998 254.785 168.998 254.784C168.998 254.783 168.998 254.782 168.998 254.78C168.997 254.775 168.997 254.769 168.997 254.759C168.997 254.741 168.996 254.714 168.995 254.677L149 255.093C149.001 255.132 149.001 255.162 149.002 255.182C149.002 255.193 149.002 255.2 149.002 255.206C149.002 255.209 149.002 255.211 149.002 255.212C149.002 255.213 149.002 255.213 149.002 255.214C149.002 255.214 149.002 255.214 149.002 255.214C149.002 255.215 149.002 255.215 149.002 255.215C149.002 255.215 149.002 255.215 149.002 255.215C149.002 255.215 149.002 255.215 149.002 255.215C149.002 255.215 149.002 255.215 149.002 255.215C149.002 255.215 149.002 255.215 159 255ZM158.996 265H159V245H158.996V265ZM148.997 254.836C148.955 257.414 148.427 259.961 147.44 262.345L165.917 269.999C167.868 265.29 168.911 260.256 168.995 255.164L148.997 254.836ZM147.44 262.345C146.409 264.832 144.899 267.092 142.996 268.996L157.138 283.138C160.899 279.377 163.882 274.912 165.917 269.999L147.44 262.345ZM142.996 268.996C141.092 270.899 138.832 272.409 136.345 273.44L143.999 291.917C148.912 289.882 153.377 286.899 157.138 283.138L142.996 268.996ZM136.345 273.44C133.858 274.47 131.192 275 128.5 275V295C133.819 295 139.085 293.952 143.999 291.917L136.345 273.44ZM128.5 275C125.808 275 123.142 274.47 120.655 273.44L113.001 291.917C117.915 293.952 123.181 295 128.5 295V275ZM120.655 273.44C118.168 272.409 115.908 270.899 114.004 268.996L99.8622 283.138C103.623 286.899 108.088 289.882 113.001 291.917L120.655 273.44ZM114.004 268.996C112.101 267.092 110.591 264.832 109.56 262.345L91.0829 269.999C93.1182 274.912 96.1014 279.377 99.8622 283.138L114.004 268.996ZM109.56 262.345C108.573 259.961 108.045 257.414 108.003 254.836L88.0054 255.164C88.0889 260.256 89.1323 265.29 91.0829 269.999L109.56 262.345ZM98 265H98.0041V245H98V265ZM85.5208 191.401C85.1428 190.63 85.1199 190.231 85.2539 190.859C85.3469 191.295 85.466 191.99 85.5978 192.988C85.8599 194.973 86.1087 197.663 86.3372 200.909C86.7921 207.374 87.1311 215.529 87.3797 223.603C87.6277 231.654 87.783 239.527 87.8763 245.395C87.9229 248.326 87.9539 250.752 87.9733 252.444C87.983 253.289 87.9898 253.951 87.9941 254.4C87.9963 254.625 87.9979 254.796 87.9989 254.911C87.9994 254.968 87.9997 255.011 88 255.04C88.0001 255.054 88.0002 255.065 88.0002 255.071C88.0003 255.075 88.0003 255.077 88.0003 255.079C88.0003 255.08 88.0003 255.08 88.0003 255.081C88.0003 255.081 88.0003 255.081 98 255C108 254.919 108 254.919 108 254.918C108 254.917 108 254.917 108 254.915C108 254.913 108 254.91 108 254.906C107.999 254.898 107.999 254.886 107.999 254.871C107.999 254.84 107.999 254.794 107.998 254.734C107.997 254.614 107.995 254.437 107.993 254.207C107.989 253.747 107.982 253.073 107.972 252.215C107.952 250.498 107.921 248.042 107.874 245.077C107.78 239.15 107.622 231.171 107.37 222.987C107.119 214.826 106.77 206.364 106.288 199.505C106.048 196.089 105.765 192.94 105.426 190.37C105.257 189.09 105.057 187.828 104.813 186.685C104.611 185.734 104.232 184.135 103.479 182.599L85.5208 191.401ZM72.8424 169.82C74.8222 173.017 83.1198 186.503 85.5208 191.401L103.479 182.599C100.528 176.578 91.5371 162.021 89.8465 159.291L72.8424 169.82ZM49 113.5C49 136.588 58.8548 157.389 74.5577 171.9L88.1312 157.211C76.3533 146.327 69 130.78 69 113.5H49ZM128.5 34C84.5934 34 49 69.5934 49 113.5H69C69 80.6391 95.6391 54 128.5 54V34ZM208 113.5C208 69.5934 172.407 34 128.5 34V54C161.361 54 188 80.6391 188 113.5H208Z" fill="black" mask="url(#path-1-inside-1)"/>
<line x1="106" y1="253" x2="155" y2="253" stroke="black" stroke-width="10"/>
<line x1="106" y1="230" x2="155" y2="230" stroke="black" stroke-width="10"/>
<path d="M129 139L129 225" stroke="black" stroke-width="10" stroke-linecap="round"/>
<line x1="128" y1="24.2062" x2="128" y2="5.00001" stroke="black" stroke-width="10" stroke-linecap="round"/>
<line x1="200.753" y1="52.2951" x2="213.85" y2="38.2474" stroke="black" stroke-width="10" stroke-linecap="round"/>
<line x1="5" y1="-5" x2="24.2062" y2="-5" transform="matrix(0.681933 0.731415 0.731415 -0.681933 201 192)" stroke="black" stroke-width="10" stroke-linecap="round"/>
<line x1="54.1642" y1="197.067" x2="41.0668" y2="211.114" stroke="black" stroke-width="10" stroke-linecap="round"/>
<line x1="231" y1="124" x2="250.206" y2="124" stroke="black" stroke-width="10" stroke-linecap="round"/>
<line x1="5" y1="124" x2="24.2062" y2="124" stroke="black" stroke-width="10" stroke-linecap="round"/>
<line x1="5" y1="-5" x2="24.2062" y2="-5" transform="matrix(0.706132 0.70808 0.70808 -0.706132 41 31)" stroke="black" stroke-width="10" stroke-linecap="round"/>
</svg>
