<svg width="520" height="842" viewBox="0 0 520 842" fill="none" xmlns="http://www.w3.org/2000/svg">
<rect width="520" height="842" fill="white"/>
<circle cx="104.5" cy="526.5" r="85.5" fill="#F1F1F1"/>
<path d="M244.88 481.8H248.3V492.204H261.116V481.8H264.536V507H261.116V495.444H248.3V507H244.88V481.8ZM270.298 481.8H285.67V484.896H273.718V492.276H283.222V495.372H273.718V503.904H285.994V507H270.298V481.8ZM296.064 494.292L287.64 481.8H291.6L298.044 491.34L304.452 481.8H308.412L300.024 494.292L308.556 507H304.596L298.044 497.244L291.456 507H287.496L296.064 494.292ZM322.285 499.224H317.965L319.405 495.948H323.545L325.165 491.808H320.629L321.673 488.748H326.317L328.981 481.8H331.897L329.197 488.748H333.985L336.685 481.8H339.565L336.901 488.748H340.969L339.925 491.808H335.749L334.129 495.948H338.737L337.261 499.224H332.869L329.773 507.396H326.857L329.989 499.224H325.201L322.069 507.396H319.189L322.285 499.224ZM331.213 495.948L332.833 491.808H328.081L326.461 495.948H331.213ZM345.005 481.8H360.377V484.896H348.425V492.276H357.641V495.372H348.425V507H345.005V481.8ZM366.513 486.732C365.721 487.38 365.037 487.86 364.461 488.172C363.909 488.484 363.345 488.736 362.769 488.928L362.193 485.724C363.201 485.388 364.197 484.86 365.181 484.14C366.189 483.396 366.957 482.616 367.485 481.8H369.825V507H366.513V486.732ZM375.591 481.8H390.963V484.896H379.011V492.276H388.227V495.372H379.011V507H375.591V481.8ZM397.099 486.732C396.307 487.38 395.623 487.86 395.047 488.172C394.495 488.484 393.931 488.736 393.355 488.928L392.779 485.724C393.787 485.388 394.783 484.86 395.767 484.14C396.775 483.396 397.543 482.616 398.071 481.8H400.411V507H397.099V486.732ZM406.177 481.8H421.549V484.896H409.597V492.276H418.813V495.372H409.597V507H406.177V481.8ZM427.685 486.732C426.893 487.38 426.209 487.86 425.633 488.172C425.081 488.484 424.517 488.736 423.941 488.928L423.365 485.724C424.373 485.388 425.369 484.86 426.353 484.14C427.361 483.396 428.129 482.616 428.657 481.8H430.997V507H427.685V486.732Z" fill="black"/>
<path d="M244.88 546.8H253.052C255.788 546.8 257.924 547.436 259.46 548.708C260.996 549.956 261.764 551.876 261.764 554.468C261.764 557.828 260.3 560.192 257.372 561.56L263.024 572H258.848L253.736 562.172H253.556H248.48V572H244.88V546.8ZM253.016 559.112C254.696 559.112 255.98 558.704 256.868 557.888C257.756 557.072 258.2 555.932 258.2 554.468C258.2 553.004 257.756 551.876 256.868 551.084C256.004 550.268 254.72 549.86 253.016 549.86H248.48V559.112H253.016ZM277.443 572.504C275.115 572.504 273.015 571.964 271.143 570.884C269.271 569.804 267.795 568.268 266.715 566.276C265.635 564.284 265.095 561.98 265.095 559.364C265.095 556.748 265.647 554.456 266.751 552.488C267.879 550.52 269.427 548.996 271.395 547.916C273.363 546.836 275.607 546.296 278.127 546.296C279.399 546.296 280.647 546.428 281.871 546.692C283.119 546.956 284.235 547.304 285.219 547.736L284.895 550.724C282.567 549.836 280.347 549.392 278.235 549.392C276.147 549.392 274.395 549.836 272.979 550.724C271.587 551.588 270.543 552.776 269.847 554.288C269.175 555.776 268.839 557.48 268.839 559.4C268.839 562.424 269.643 564.848 271.251 566.672C272.883 568.496 275.271 569.408 278.415 569.408C279.087 569.408 279.807 569.36 280.575 569.264C281.343 569.144 282.027 568.964 282.627 568.724V562.46H278.667V559.364H286.047V570.596C284.991 571.172 283.719 571.64 282.231 572C280.767 572.336 279.171 572.504 277.443 572.504ZM303.395 558.284C304.979 558.668 306.191 559.412 307.031 560.516C307.871 561.596 308.291 563.024 308.291 564.8C308.291 567.032 307.571 568.796 306.131 570.092C304.715 571.364 302.759 572 300.263 572H290.759V546.8H298.715C301.019 546.8 302.795 547.316 304.043 548.348C305.315 549.38 305.951 550.916 305.951 552.956C305.951 554.156 305.735 555.224 305.303 556.16C304.871 557.096 304.235 557.804 303.395 558.284ZM294.179 557.276H298.283C299.627 557.276 300.647 557.012 301.343 556.484C302.063 555.932 302.423 554.96 302.423 553.568C302.423 552.176 302.063 551.216 301.343 550.688C300.647 550.136 299.627 549.86 298.283 549.86H294.179V557.276ZM299.975 568.904C301.391 568.904 302.507 568.556 303.323 567.86C304.139 567.14 304.547 566.084 304.547 564.692C304.547 561.812 303.023 560.372 299.975 560.372H294.179V568.904H299.975ZM326.373 561.524C327.621 559.652 328.533 558.104 329.109 556.88C329.685 555.656 329.973 554.54 329.973 553.532C329.973 552.284 329.613 551.3 328.893 550.58C328.197 549.836 327.249 549.464 326.049 549.464C323.817 549.464 321.777 550.412 319.929 552.308L319.497 548.708C320.409 547.988 321.453 547.4 322.629 546.944C323.805 546.488 325.065 546.26 326.409 546.26C328.641 546.26 330.369 546.908 331.593 548.204C332.817 549.5 333.429 551.156 333.429 553.172C333.429 554.756 333.117 556.256 332.493 557.672C331.893 559.088 330.861 560.9 329.397 563.108L325.581 568.868H334.401V571.964H319.497L326.373 561.524ZM356.16 562.568V565.484H352.92V572H349.464V565.484H337.044L350.436 546.8H352.92V562.568H356.16ZM349.464 562.568V553.172L342.768 562.568H349.464ZM362.681 551.732C361.889 552.38 361.205 552.86 360.629 553.172C360.077 553.484 359.513 553.736 358.937 553.928L358.361 550.724C359.369 550.388 360.365 549.86 361.349 549.14C362.357 548.396 363.125 547.616 363.653 546.8H365.993V572H362.681V551.732ZM370.931 575.852L372.227 572H370.967V568.184H374.855V571.64L372.983 575.852H370.931ZM393.662 561.524C394.91 559.652 395.822 558.104 396.398 556.88C396.974 555.656 397.262 554.54 397.262 553.532C397.262 552.284 396.902 551.3 396.182 550.58C395.486 549.836 394.538 549.464 393.338 549.464C391.106 549.464 389.066 550.412 387.218 552.308L386.786 548.708C387.698 547.988 388.742 547.4 389.918 546.944C391.094 546.488 392.354 546.26 393.698 546.26C395.93 546.26 397.658 546.908 398.882 548.204C400.106 549.5 400.718 551.156 400.718 553.172C400.718 554.756 400.406 556.256 399.782 557.672C399.182 559.088 398.15 560.9 396.686 563.108L392.87 568.868H401.69V571.964H386.786L393.662 561.524ZM423.449 562.568V565.484H420.209V572H416.753V565.484H404.333L417.725 546.8H420.209V562.568H423.449ZM416.753 562.568V553.172L410.057 562.568H416.753ZM429.97 551.732C429.178 552.38 428.494 552.86 427.918 553.172C427.366 553.484 426.802 553.736 426.226 553.928L425.65 550.724C426.658 550.388 427.654 549.86 428.638 549.14C429.646 548.396 430.414 547.616 430.942 546.8H433.282V572H429.97V551.732ZM438.22 575.852L439.516 572H438.256V568.184H442.144V571.64L440.272 575.852H438.22ZM460.951 561.524C462.199 559.652 463.111 558.104 463.687 556.88C464.263 555.656 464.551 554.54 464.551 553.532C464.551 552.284 464.191 551.3 463.471 550.58C462.775 549.836 461.827 549.464 460.627 549.464C458.395 549.464 456.355 550.412 454.507 552.308L454.075 548.708C454.987 547.988 456.031 547.4 457.207 546.944C458.383 546.488 459.643 546.26 460.987 546.26C463.219 546.26 464.947 546.908 466.171 548.204C467.395 549.5 468.007 551.156 468.007 553.172C468.007 554.756 467.695 556.256 467.071 557.672C466.471 559.088 465.439 560.9 463.975 563.108L460.159 568.868H468.979V571.964H454.075L460.951 561.524ZM490.738 562.568V565.484H487.498V572H484.042V565.484H471.622L485.014 546.8H487.498V562.568H490.738ZM484.042 562.568V553.172L477.346 562.568H484.042ZM497.259 551.732C496.467 552.38 495.783 552.86 495.207 553.172C494.655 553.484 494.091 553.736 493.515 553.928L492.939 550.724C493.947 550.388 494.943 549.86 495.927 549.14C496.935 548.396 497.703 547.616 498.231 546.8H500.571V572H497.259V551.732Z" fill="black"/>
<circle cx="104.5" cy="741.5" r="85.5" fill="#14B02D"/>
<path d="M244.88 696.8H248.3V707.204H261.116V696.8H264.536V722H261.116V710.444H248.3V722H244.88V696.8ZM270.298 696.8H285.67V699.896H273.718V707.276H283.222V710.372H273.718V718.904H285.994V722H270.298V696.8ZM296.064 709.292L287.64 696.8H291.6L298.044 706.34L304.452 696.8H308.412L300.024 709.292L308.556 722H304.596L298.044 712.244L291.456 722H287.496L296.064 709.292ZM322.285 714.224H317.965L319.405 710.948H323.545L325.165 706.808H320.629L321.673 703.748H326.317L328.981 696.8H331.897L329.197 703.748H333.985L336.685 696.8H339.565L336.901 703.748H340.969L339.925 706.808H335.749L334.129 710.948H338.737L337.261 714.224H332.869L329.773 722.396H326.857L329.989 714.224H325.201L322.069 722.396H319.189L322.285 714.224ZM331.213 710.948L332.833 706.808H328.081L326.461 710.948H331.213ZM347.669 701.732C346.877 702.38 346.193 702.86 345.617 703.172C345.065 703.484 344.501 703.736 343.925 703.928L343.349 700.724C344.357 700.388 345.353 699.86 346.337 699.14C347.345 698.396 348.113 697.616 348.641 696.8H350.981V722H347.669V701.732ZM373.703 712.568V715.484H370.463V722H367.007V715.484H354.587L367.979 696.8H370.463V712.568H373.703ZM367.007 712.568V703.172L360.311 712.568H367.007ZM390.196 708.284C391.78 708.668 392.992 709.412 393.832 710.516C394.672 711.596 395.092 713.024 395.092 714.8C395.092 717.032 394.372 718.796 392.932 720.092C391.516 721.364 389.56 722 387.064 722H377.56V696.8H385.516C387.82 696.8 389.596 697.316 390.844 698.348C392.116 699.38 392.752 700.916 392.752 702.956C392.752 704.156 392.536 705.224 392.104 706.16C391.672 707.096 391.036 707.804 390.196 708.284ZM380.98 707.276H385.084C386.428 707.276 387.448 707.012 388.144 706.484C388.864 705.932 389.224 704.96 389.224 703.568C389.224 702.176 388.864 701.216 388.144 700.688C387.448 700.136 386.428 699.86 385.084 699.86H380.98V707.276ZM386.776 718.904C388.192 718.904 389.308 718.556 390.124 717.86C390.94 717.14 391.348 716.084 391.348 714.692C391.348 711.812 389.824 710.372 386.776 710.372H380.98V718.904H386.776ZM408.724 722.504C406.54 722.504 404.644 721.94 403.036 720.812C401.452 719.684 400.228 718.112 399.364 716.096C398.524 714.08 398.104 711.776 398.104 709.184C398.104 706.616 398.548 704.36 399.436 702.416C400.348 700.472 401.608 698.972 403.216 697.916C404.824 696.836 406.66 696.296 408.724 696.296C410.836 696.296 412.696 696.836 414.304 697.916C415.912 698.972 417.148 700.472 418.012 702.416C418.9 704.36 419.344 706.616 419.344 709.184C419.344 711.776 418.924 714.08 418.084 716.096C417.244 718.112 416.02 719.684 414.412 720.812C412.804 721.94 410.908 722.504 408.724 722.504ZM408.724 719.408C410.956 719.408 412.672 718.52 413.872 716.744C415.096 714.968 415.708 712.448 415.708 709.184C415.708 705.968 415.084 703.532 413.836 701.876C412.612 700.22 410.908 699.392 408.724 699.392C406.636 699.392 404.944 700.232 403.648 701.912C402.376 703.592 401.74 706.016 401.74 709.184C401.74 712.448 402.34 714.968 403.54 716.744C404.764 718.52 406.492 719.408 408.724 719.408ZM430.225 711.524C431.473 709.652 432.385 708.104 432.961 706.88C433.537 705.656 433.825 704.54 433.825 703.532C433.825 702.284 433.465 701.3 432.745 700.58C432.049 699.836 431.101 699.464 429.901 699.464C427.669 699.464 425.629 700.412 423.781 702.308L423.349 698.708C424.261 697.988 425.305 697.4 426.481 696.944C427.657 696.488 428.917 696.26 430.261 696.26C432.493 696.26 434.221 696.908 435.445 698.204C436.669 699.5 437.281 701.156 437.281 703.172C437.281 704.756 436.969 706.256 436.345 707.672C435.745 709.088 434.713 710.9 433.249 713.108L429.433 718.868H438.253V721.964H423.349L430.225 711.524ZM443.056 696.8H452.38C454.828 696.8 457 697.304 458.896 698.312C460.792 699.296 462.268 700.748 463.324 702.668C464.38 704.564 464.908 706.808 464.908 709.4C464.908 711.992 464.38 714.248 463.324 716.168C462.268 718.064 460.792 719.516 458.896 720.524C457 721.508 454.828 722 452.38 722H443.056V696.8ZM452.38 718.904C455.188 718.904 457.348 718.052 458.86 716.348C460.396 714.62 461.164 712.304 461.164 709.4C461.164 706.496 460.396 704.192 458.86 702.488C457.348 700.76 455.188 699.896 452.38 699.896H446.476V718.904H452.38Z" fill="black"/>
<path d="M245.88 761.8H254.052C256.788 761.8 258.924 762.436 260.46 763.708C261.996 764.956 262.764 766.876 262.764 769.468C262.764 772.828 261.3 775.192 258.372 776.56L264.024 787H259.848L254.736 777.172H254.556H249.48V787H245.88V761.8ZM254.016 774.112C255.696 774.112 256.98 773.704 257.868 772.888C258.756 772.072 259.2 770.932 259.2 769.468C259.2 768.004 258.756 766.876 257.868 766.084C257.004 765.268 255.72 764.86 254.016 764.86H249.48V774.112H254.016ZM278.443 787.504C276.115 787.504 274.015 786.964 272.143 785.884C270.271 784.804 268.795 783.268 267.715 781.276C266.635 779.284 266.095 776.98 266.095 774.364C266.095 771.748 266.647 769.456 267.751 767.488C268.879 765.52 270.427 763.996 272.395 762.916C274.363 761.836 276.607 761.296 279.127 761.296C280.399 761.296 281.647 761.428 282.871 761.692C284.119 761.956 285.235 762.304 286.219 762.736L285.895 765.724C283.567 764.836 281.347 764.392 279.235 764.392C277.147 764.392 275.395 764.836 273.979 765.724C272.587 766.588 271.543 767.776 270.847 769.288C270.175 770.776 269.839 772.48 269.839 774.4C269.839 777.424 270.643 779.848 272.251 781.672C273.883 783.496 276.271 784.408 279.415 784.408C280.087 784.408 280.807 784.36 281.575 784.264C282.343 784.144 283.027 783.964 283.627 783.724V777.46H279.667V774.364H287.047V785.596C285.991 786.172 284.719 786.64 283.231 787C281.767 787.336 280.171 787.504 278.443 787.504ZM304.395 773.284C305.979 773.668 307.191 774.412 308.031 775.516C308.871 776.596 309.291 778.024 309.291 779.8C309.291 782.032 308.571 783.796 307.131 785.092C305.715 786.364 303.759 787 301.263 787H291.759V761.8H299.715C302.019 761.8 303.795 762.316 305.043 763.348C306.315 764.38 306.951 765.916 306.951 767.956C306.951 769.156 306.735 770.224 306.303 771.16C305.871 772.096 305.235 772.804 304.395 773.284ZM295.179 772.276H299.283C300.627 772.276 301.647 772.012 302.343 771.484C303.063 770.932 303.423 769.96 303.423 768.568C303.423 767.176 303.063 766.216 302.343 765.688C301.647 765.136 300.627 764.86 299.283 764.86H295.179V772.276ZM300.975 783.904C302.391 783.904 303.507 783.556 304.323 782.86C305.139 782.14 305.547 781.084 305.547 779.692C305.547 776.812 304.023 775.372 300.975 775.372H295.179V783.904H300.975ZM327.373 776.524C328.621 774.652 329.533 773.104 330.109 771.88C330.685 770.656 330.973 769.54 330.973 768.532C330.973 767.284 330.613 766.3 329.893 765.58C329.197 764.836 328.249 764.464 327.049 764.464C324.817 764.464 322.777 765.412 320.929 767.308L320.497 763.708C321.409 762.988 322.453 762.4 323.629 761.944C324.805 761.488 326.065 761.26 327.409 761.26C329.641 761.26 331.369 761.908 332.593 763.204C333.817 764.5 334.429 766.156 334.429 768.172C334.429 769.756 334.117 771.256 333.493 772.672C332.893 774.088 331.861 775.9 330.397 778.108L326.581 783.868H335.401V786.964H320.497L327.373 776.524ZM349.888 787.504C347.704 787.504 345.808 786.94 344.2 785.812C342.616 784.684 341.392 783.112 340.528 781.096C339.688 779.08 339.268 776.776 339.268 774.184C339.268 771.616 339.712 769.36 340.6 767.416C341.512 765.472 342.772 763.972 344.38 762.916C345.988 761.836 347.824 761.296 349.888 761.296C352 761.296 353.86 761.836 355.468 762.916C357.076 763.972 358.312 765.472 359.176 767.416C360.064 769.36 360.508 771.616 360.508 774.184C360.508 776.776 360.088 779.08 359.248 781.096C358.408 783.112 357.184 784.684 355.576 785.812C353.968 786.94 352.072 787.504 349.888 787.504ZM349.888 784.408C352.12 784.408 353.836 783.52 355.036 781.744C356.26 779.968 356.872 777.448 356.872 774.184C356.872 770.968 356.248 768.532 355 766.876C353.776 765.22 352.072 764.392 349.888 764.392C347.8 764.392 346.108 765.232 344.812 766.912C343.54 768.592 342.904 771.016 342.904 774.184C342.904 777.448 343.504 779.968 344.704 781.744C345.928 783.52 347.656 784.408 349.888 784.408ZM363.88 790.852L365.176 787H363.916V783.184H367.804V786.64L365.932 790.852H363.88ZM383.228 766.732C382.436 767.38 381.752 767.86 381.176 768.172C380.624 768.484 380.06 768.736 379.484 768.928L378.908 765.724C379.916 765.388 380.912 764.86 381.896 764.14C382.904 763.396 383.672 762.616 384.2 761.8H386.54V787H383.228V766.732ZM407.174 761.8L396.266 787H392.666L402.134 765.04H390.866V761.8H407.174ZM418.064 771.88C419.504 771.88 420.788 772.216 421.916 772.888C423.068 773.536 423.956 774.448 424.58 775.624C425.228 776.776 425.552 778.072 425.552 779.512C425.552 781.048 425.204 782.428 424.508 783.652C423.812 784.852 422.84 785.8 421.592 786.496C420.344 787.168 418.904 787.504 417.272 787.504C414.656 787.504 412.604 786.652 411.116 784.948C409.628 783.244 408.884 780.976 408.884 778.144C408.884 775.648 409.424 773.296 410.504 771.088C411.584 768.856 412.964 766.912 414.644 765.256C416.348 763.6 418.148 762.28 420.044 761.296L422.384 763.492C420.224 764.572 418.304 765.976 416.624 767.704C414.968 769.408 413.78 771.304 413.06 773.392C414.404 772.384 416.072 771.88 418.064 771.88ZM417.272 784.552C418.688 784.552 419.828 784.084 420.692 783.148C421.58 782.212 422.024 781.036 422.024 779.62C422.024 778.252 421.58 777.112 420.692 776.2C419.828 775.288 418.688 774.832 417.272 774.832C415.856 774.832 414.704 775.288 413.816 776.2C412.928 777.112 412.484 778.264 412.484 779.656C412.484 781.096 412.916 782.272 413.78 783.184C414.668 784.096 415.832 784.552 417.272 784.552ZM429.165 790.852L430.461 787H429.201V783.184H433.089V786.64L431.217 790.852H429.165ZM462.805 777.568V780.484H459.565V787H456.109V780.484H443.689L457.081 761.8H459.565V777.568H462.805ZM456.109 777.568V768.172L449.413 777.568H456.109ZM473.141 771.088C474.893 771.088 476.405 771.436 477.677 772.132C478.949 772.828 479.921 773.788 480.593 775.012C481.265 776.236 481.601 777.628 481.601 779.188C481.601 780.868 481.205 782.332 480.413 783.58C479.645 784.828 478.577 785.8 477.209 786.496C475.865 787.168 474.341 787.504 472.637 787.504C471.341 787.504 470.069 787.336 468.821 787C467.597 786.664 466.529 786.196 465.617 785.596L466.445 782.428C467.477 783.004 468.461 783.448 469.397 783.76C470.333 784.048 471.353 784.192 472.457 784.192C474.065 784.192 475.361 783.736 476.345 782.824C477.353 781.912 477.857 780.7 477.857 779.188C477.857 777.508 477.329 776.212 476.273 775.3C475.217 774.364 473.801 773.896 472.025 773.896C470.513 773.896 468.821 774.136 466.949 774.616L468.497 761.8H480.377L480.233 765.04H471.305L470.549 771.268C471.461 771.148 472.325 771.088 473.141 771.088Z" fill="black"/>
<circle cx="109.5" cy="96.5" r="85.5" fill="#18479C"/>
<path d="M253.88 62.8H257.3V73.204H270.116V62.8H273.536V88H270.116V76.444H257.3V88H253.88V62.8ZM279.298 62.8H294.67V65.896H282.718V73.276H292.222V76.372H282.718V84.904H294.994V88H279.298V62.8ZM305.064 75.292L296.64 62.8H300.6L307.044 72.34L313.452 62.8H317.412L309.024 75.292L317.556 88H313.596L307.044 78.244L300.456 88H296.496L305.064 75.292ZM331.285 80.224H326.965L328.405 76.948H332.545L334.165 72.808H329.629L330.673 69.748H335.317L337.981 62.8H340.897L338.197 69.748H342.985L345.685 62.8H348.565L345.901 69.748H349.969L348.925 72.808H344.749L343.129 76.948H347.737L346.261 80.224H341.869L338.773 88.396H335.857L338.989 80.224H334.201L331.069 88.396H328.189L331.285 80.224ZM340.213 76.948L341.833 72.808H337.081L335.461 76.948H340.213ZM356.669 67.732C355.877 68.38 355.193 68.86 354.617 69.172C354.065 69.484 353.501 69.736 352.925 69.928L352.349 66.724C353.357 66.388 354.353 65.86 355.337 65.14C356.345 64.396 357.113 63.616 357.641 62.8H359.981V88H356.669V67.732ZM378.743 74.212C379.943 74.86 380.867 75.76 381.515 76.912C382.187 78.04 382.523 79.336 382.523 80.8C382.523 82.312 382.163 83.656 381.443 84.832C380.723 85.984 379.703 86.884 378.383 87.532C377.063 88.18 375.527 88.504 373.775 88.504C371.999 88.504 370.451 88.18 369.131 87.532C367.811 86.884 366.791 85.984 366.071 84.832C365.375 83.656 365.027 82.312 365.027 80.8C365.027 79.336 365.363 78.028 366.035 76.876C366.707 75.724 367.643 74.824 368.843 74.176C368.003 73.576 367.343 72.844 366.863 71.98C366.407 71.092 366.179 70.132 366.179 69.1C366.179 67.924 366.443 66.82 366.971 65.788C367.523 64.756 368.363 63.916 369.491 63.268C370.643 62.62 372.071 62.296 373.775 62.296C375.479 62.296 376.883 62.62 377.987 63.268C379.115 63.916 379.931 64.756 380.435 65.788C380.963 66.82 381.227 67.924 381.227 69.1C381.227 70.18 381.011 71.152 380.579 72.016C380.147 72.88 379.535 73.612 378.743 74.212ZM373.775 65.392C372.455 65.392 371.423 65.728 370.679 66.4C369.959 67.072 369.599 67.972 369.599 69.1C369.599 70.156 369.971 71.044 370.715 71.764C371.459 72.484 372.479 72.844 373.775 72.844C375.047 72.844 376.031 72.496 376.727 71.8C377.447 71.08 377.807 70.18 377.807 69.1C377.807 67.972 377.459 67.072 376.763 66.4C376.067 65.728 375.071 65.392 373.775 65.392ZM373.775 85.408C375.407 85.408 376.679 85 377.591 84.184C378.527 83.344 378.995 82.216 378.995 80.8C378.995 79.336 378.527 78.148 377.591 77.236C376.679 76.3 375.407 75.832 373.775 75.832C372.143 75.832 370.859 76.3 369.923 77.236C369.011 78.148 368.555 79.336 368.555 80.8C368.555 82.216 369.011 83.344 369.923 84.184C370.859 85 372.143 85.408 373.775 85.408ZM404.535 78.568V81.484H401.295V88H397.839V81.484H385.419L398.811 62.8H401.295V78.568H404.535ZM397.839 78.568V69.172L391.143 78.568H397.839ZM423.26 62.8L412.352 88H408.752L418.22 66.04H406.952V62.8H423.26ZM433.445 62.296C436.061 62.296 438.113 63.148 439.601 64.852C441.089 66.556 441.833 68.824 441.833 71.656C441.833 74.08 441.305 76.372 440.249 78.532C439.217 80.668 437.873 82.54 436.217 84.148C434.585 85.756 432.857 87.04 431.033 88L428.693 85.804C430.685 84.772 432.473 83.452 434.057 81.844C435.665 80.212 436.841 78.412 437.585 76.444C436.217 77.428 434.573 77.92 432.653 77.92C431.213 77.92 429.917 77.596 428.765 76.948C427.637 76.276 426.749 75.364 426.101 74.212C425.477 73.036 425.165 71.728 425.165 70.288C425.165 68.752 425.513 67.384 426.209 66.184C426.905 64.96 427.877 64.012 429.125 63.34C430.373 62.644 431.813 62.296 433.445 62.296ZM433.445 74.968C434.861 74.968 436.013 74.512 436.901 73.6C437.789 72.688 438.233 71.536 438.233 70.144C438.233 68.704 437.789 67.528 436.901 66.616C436.037 65.704 434.885 65.248 433.445 65.248C432.029 65.248 430.877 65.716 429.989 66.652C429.125 67.588 428.693 68.764 428.693 70.18C428.693 71.548 429.125 72.688 429.989 73.6C430.877 74.512 432.029 74.968 433.445 74.968ZM458.19 88.504C455.742 88.504 453.558 87.964 451.638 86.884C449.718 85.804 448.206 84.28 447.102 82.312C446.022 80.32 445.482 78.016 445.482 75.4C445.482 72.784 446.034 70.492 447.138 68.524C448.242 66.532 449.766 64.996 451.71 63.916C453.654 62.836 455.862 62.296 458.334 62.296C459.558 62.296 460.758 62.428 461.934 62.692C463.11 62.956 464.154 63.316 465.066 63.772L464.706 66.94C462.546 65.908 460.41 65.392 458.298 65.392C456.378 65.392 454.734 65.836 453.366 66.724C451.998 67.588 450.966 68.776 450.27 70.288C449.574 71.8 449.226 73.504 449.226 75.4C449.226 77.296 449.574 79 450.27 80.512C450.966 82.024 451.986 83.224 453.33 84.112C454.674 84.976 456.306 85.408 458.226 85.408C460.482 85.408 462.642 84.904 464.706 83.896L465.066 87.064C462.978 88.024 460.686 88.504 458.19 88.504Z" fill="black"/>
<path d="M253.88 127.8H262.052C264.788 127.8 266.924 128.436 268.46 129.708C269.996 130.956 270.764 132.876 270.764 135.468C270.764 138.828 269.3 141.192 266.372 142.56L272.024 153H267.848L262.736 143.172H262.556H257.48V153H253.88V127.8ZM262.016 140.112C263.696 140.112 264.98 139.704 265.868 138.888C266.756 138.072 267.2 136.932 267.2 135.468C267.2 134.004 266.756 132.876 265.868 132.084C265.004 131.268 263.72 130.86 262.016 130.86H257.48V140.112H262.016ZM286.443 153.504C284.115 153.504 282.015 152.964 280.143 151.884C278.271 150.804 276.795 149.268 275.715 147.276C274.635 145.284 274.095 142.98 274.095 140.364C274.095 137.748 274.647 135.456 275.751 133.488C276.879 131.52 278.427 129.996 280.395 128.916C282.363 127.836 284.607 127.296 287.127 127.296C288.399 127.296 289.647 127.428 290.871 127.692C292.119 127.956 293.235 128.304 294.219 128.736L293.895 131.724C291.567 130.836 289.347 130.392 287.235 130.392C285.147 130.392 283.395 130.836 281.979 131.724C280.587 132.588 279.543 133.776 278.847 135.288C278.175 136.776 277.839 138.48 277.839 140.4C277.839 143.424 278.643 145.848 280.251 147.672C281.883 149.496 284.271 150.408 287.415 150.408C288.087 150.408 288.807 150.36 289.575 150.264C290.343 150.144 291.027 149.964 291.627 149.724V143.46H287.667V140.364H295.047V151.596C293.991 152.172 292.719 152.64 291.231 153C289.767 153.336 288.171 153.504 286.443 153.504ZM312.395 139.284C313.979 139.668 315.191 140.412 316.031 141.516C316.871 142.596 317.291 144.024 317.291 145.8C317.291 148.032 316.571 149.796 315.131 151.092C313.715 152.364 311.759 153 309.263 153H299.759V127.8H307.715C310.019 127.8 311.795 128.316 313.043 129.348C314.315 130.38 314.951 131.916 314.951 133.956C314.951 135.156 314.735 136.224 314.303 137.16C313.871 138.096 313.235 138.804 312.395 139.284ZM303.179 138.276H307.283C308.627 138.276 309.647 138.012 310.343 137.484C311.063 136.932 311.423 135.96 311.423 134.568C311.423 133.176 311.063 132.216 310.343 131.688C309.647 131.136 308.627 130.86 307.283 130.86H303.179V138.276ZM308.975 149.904C310.391 149.904 311.507 149.556 312.323 148.86C313.139 148.14 313.547 147.084 313.547 145.692C313.547 142.812 312.023 141.372 308.975 141.372H303.179V149.904H308.975ZM335.373 142.524C336.621 140.652 337.533 139.104 338.109 137.88C338.685 136.656 338.973 135.54 338.973 134.532C338.973 133.284 338.613 132.3 337.893 131.58C337.197 130.836 336.249 130.464 335.049 130.464C332.817 130.464 330.777 131.412 328.929 133.308L328.497 129.708C329.409 128.988 330.453 128.4 331.629 127.944C332.805 127.488 334.065 127.26 335.409 127.26C337.641 127.26 339.369 127.908 340.593 129.204C341.817 130.5 342.429 132.156 342.429 134.172C342.429 135.756 342.117 137.256 341.493 138.672C340.893 140.088 339.861 141.9 338.397 144.108L334.581 149.868H343.401V152.964H328.497L335.373 142.524ZM365.16 143.568V146.484H361.92V153H358.464V146.484H346.044L359.436 127.8H361.92V143.568H365.16ZM358.464 143.568V134.172L351.768 143.568H358.464ZM367.626 156.852L368.922 153H367.662V149.184H371.55V152.64L369.678 156.852H367.626ZM399.178 127.8L388.27 153H384.67L394.138 131.04H382.87V127.8H399.178ZM405.079 132.732C404.287 133.38 403.603 133.86 403.027 134.172C402.475 134.484 401.911 134.736 401.335 134.928L400.759 131.724C401.767 131.388 402.763 130.86 403.747 130.14C404.755 129.396 405.523 128.616 406.051 127.8H408.391V153H405.079V132.732ZM413.329 156.852L414.625 153H413.365V149.184H417.253V152.64L415.381 156.852H413.329ZM432.677 132.732C431.885 133.38 431.201 133.86 430.625 134.172C430.073 134.484 429.509 134.736 428.933 134.928L428.357 131.724C429.365 131.388 430.361 130.86 431.345 130.14C432.353 129.396 433.121 128.616 433.649 127.8H435.989V153H432.677V132.732ZM448.235 137.088C449.987 137.088 451.499 137.436 452.771 138.132C454.043 138.828 455.015 139.788 455.687 141.012C456.359 142.236 456.695 143.628 456.695 145.188C456.695 146.868 456.299 148.332 455.507 149.58C454.739 150.828 453.671 151.8 452.303 152.496C450.959 153.168 449.435 153.504 447.731 153.504C446.435 153.504 445.163 153.336 443.915 153C442.691 152.664 441.623 152.196 440.711 151.596L441.539 148.428C442.571 149.004 443.555 149.448 444.491 149.76C445.427 150.048 446.447 150.192 447.551 150.192C449.159 150.192 450.455 149.736 451.439 148.824C452.447 147.912 452.951 146.7 452.951 145.188C452.951 143.508 452.423 142.212 451.367 141.3C450.311 140.364 448.895 139.896 447.119 139.896C445.607 139.896 443.915 140.136 442.043 140.616L443.591 127.8H455.471L455.327 131.04H446.399L445.643 137.268C446.555 137.148 447.419 137.088 448.235 137.088ZM469.764 137.88C471.204 137.88 472.488 138.216 473.616 138.888C474.768 139.536 475.656 140.448 476.28 141.624C476.928 142.776 477.252 144.072 477.252 145.512C477.252 147.048 476.904 148.428 476.208 149.652C475.512 150.852 474.54 151.8 473.292 152.496C472.044 153.168 470.604 153.504 468.972 153.504C466.356 153.504 464.304 152.652 462.816 150.948C461.328 149.244 460.584 146.976 460.584 144.144C460.584 141.648 461.124 139.296 462.204 137.088C463.284 134.856 464.664 132.912 466.344 131.256C468.048 129.6 469.848 128.28 471.744 127.296L474.084 129.492C471.924 130.572 470.004 131.976 468.324 133.704C466.668 135.408 465.48 137.304 464.76 139.392C466.104 138.384 467.772 137.88 469.764 137.88ZM468.972 150.552C470.388 150.552 471.528 150.084 472.392 149.148C473.28 148.212 473.724 147.036 473.724 145.62C473.724 144.252 473.28 143.112 472.392 142.2C471.528 141.288 470.388 140.832 468.972 140.832C467.556 140.832 466.404 141.288 465.516 142.2C464.628 143.112 464.184 144.264 464.184 145.656C464.184 147.096 464.616 148.272 465.48 149.184C466.368 150.096 467.532 150.552 468.972 150.552Z" fill="black"/>
<circle cx="104.5" cy="311.5" r="85.5" fill="#FFBC04"/>
<path d="M244.88 266.8H248.3V277.204H261.116V266.8H264.536V292H261.116V280.444H248.3V292H244.88V266.8ZM270.298 266.8H285.67V269.896H273.718V277.276H283.222V280.372H273.718V288.904H285.994V292H270.298V266.8ZM296.064 279.292L287.64 266.8H291.6L298.044 276.34L304.452 266.8H308.412L300.024 279.292L308.556 292H304.596L298.044 282.244L291.456 292H287.496L296.064 279.292ZM322.285 284.224H317.965L319.405 280.948H323.545L325.165 276.808H320.629L321.673 273.748H326.317L328.981 266.8H331.897L329.197 273.748H333.985L336.685 266.8H339.565L336.901 273.748H340.969L339.925 276.808H335.749L334.129 280.948H338.737L337.261 284.224H332.869L329.773 292.396H326.857L329.989 284.224H325.201L322.069 292.396H319.189L322.285 284.224ZM331.213 280.948L332.833 276.808H328.081L326.461 280.948H331.213ZM345.005 266.8H360.377V269.896H348.425V277.276H357.641V280.372H348.425V292H345.005V266.8ZM363.849 266.8H379.221V269.896H367.269V277.276H376.485V280.372H367.269V292H363.849V266.8ZM395.329 278.284C396.913 278.668 398.125 279.412 398.965 280.516C399.805 281.596 400.225 283.024 400.225 284.8C400.225 287.032 399.505 288.796 398.065 290.092C396.649 291.364 394.693 292 392.197 292H382.693V266.8H390.649C392.953 266.8 394.729 267.316 395.977 268.348C397.249 269.38 397.885 270.916 397.885 272.956C397.885 274.156 397.669 275.224 397.237 276.16C396.805 277.096 396.169 277.804 395.329 278.284ZM386.113 277.276H390.217C391.561 277.276 392.581 277.012 393.277 276.484C393.997 275.932 394.357 274.96 394.357 273.568C394.357 272.176 393.997 271.216 393.277 270.688C392.581 270.136 391.561 269.86 390.217 269.86H386.113V277.276ZM391.909 288.904C393.325 288.904 394.441 288.556 395.257 287.86C396.073 287.14 396.481 286.084 396.481 284.692C396.481 281.812 394.957 280.372 391.909 280.372H386.113V288.904H391.909ZM415.405 292.504C412.957 292.504 410.773 291.964 408.853 290.884C406.933 289.804 405.421 288.28 404.317 286.312C403.237 284.32 402.697 282.016 402.697 279.4C402.697 276.784 403.249 274.492 404.353 272.524C405.457 270.532 406.981 268.996 408.925 267.916C410.869 266.836 413.077 266.296 415.549 266.296C416.773 266.296 417.973 266.428 419.149 266.692C420.325 266.956 421.369 267.316 422.281 267.772L421.921 270.94C419.761 269.908 417.625 269.392 415.513 269.392C413.593 269.392 411.949 269.836 410.581 270.724C409.213 271.588 408.181 272.776 407.485 274.288C406.789 275.8 406.441 277.504 406.441 279.4C406.441 281.296 406.789 283 407.485 284.512C408.181 286.024 409.201 287.224 410.545 288.112C411.889 288.976 413.521 289.408 415.441 289.408C417.697 289.408 419.857 288.904 421.921 287.896L422.281 291.064C420.193 292.024 417.901 292.504 415.405 292.504ZM436.041 292.504C433.857 292.504 431.961 291.94 430.353 290.812C428.769 289.684 427.545 288.112 426.681 286.096C425.841 284.08 425.421 281.776 425.421 279.184C425.421 276.616 425.865 274.36 426.753 272.416C427.665 270.472 428.925 268.972 430.533 267.916C432.141 266.836 433.977 266.296 436.041 266.296C438.153 266.296 440.013 266.836 441.621 267.916C443.229 268.972 444.465 270.472 445.329 272.416C446.217 274.36 446.661 276.616 446.661 279.184C446.661 281.776 446.241 284.08 445.401 286.096C444.561 288.112 443.337 289.684 441.729 290.812C440.121 291.94 438.225 292.504 436.041 292.504ZM436.041 289.408C438.273 289.408 439.989 288.52 441.189 286.744C442.413 284.968 443.025 282.448 443.025 279.184C443.025 275.968 442.401 273.532 441.153 271.876C439.929 270.22 438.225 269.392 436.041 269.392C433.953 269.392 432.261 270.232 430.965 271.912C429.693 273.592 429.057 276.016 429.057 279.184C429.057 282.448 429.657 284.968 430.857 286.744C432.081 288.52 433.809 289.408 436.041 289.408ZM468.449 282.568V285.484H465.209V292H461.753V285.484H449.333L462.725 266.8H465.209V282.568H468.449ZM461.753 282.568V273.172L455.057 282.568H461.753Z" fill="black"/>
<path d="M244.88 331.8H253.052C255.788 331.8 257.924 332.436 259.46 333.708C260.996 334.956 261.764 336.876 261.764 339.468C261.764 342.828 260.3 345.192 257.372 346.56L263.024 357H258.848L253.736 347.172H253.556H248.48V357H244.88V331.8ZM253.016 344.112C254.696 344.112 255.98 343.704 256.868 342.888C257.756 342.072 258.2 340.932 258.2 339.468C258.2 338.004 257.756 336.876 256.868 336.084C256.004 335.268 254.72 334.86 253.016 334.86H248.48V344.112H253.016ZM277.443 357.504C275.115 357.504 273.015 356.964 271.143 355.884C269.271 354.804 267.795 353.268 266.715 351.276C265.635 349.284 265.095 346.98 265.095 344.364C265.095 341.748 265.647 339.456 266.751 337.488C267.879 335.52 269.427 333.996 271.395 332.916C273.363 331.836 275.607 331.296 278.127 331.296C279.399 331.296 280.647 331.428 281.871 331.692C283.119 331.956 284.235 332.304 285.219 332.736L284.895 335.724C282.567 334.836 280.347 334.392 278.235 334.392C276.147 334.392 274.395 334.836 272.979 335.724C271.587 336.588 270.543 337.776 269.847 339.288C269.175 340.776 268.839 342.48 268.839 344.4C268.839 347.424 269.643 349.848 271.251 351.672C272.883 353.496 275.271 354.408 278.415 354.408C279.087 354.408 279.807 354.36 280.575 354.264C281.343 354.144 282.027 353.964 282.627 353.724V347.46H278.667V344.364H286.047V355.596C284.991 356.172 283.719 356.64 282.231 357C280.767 357.336 279.171 357.504 277.443 357.504ZM303.395 343.284C304.979 343.668 306.191 344.412 307.031 345.516C307.871 346.596 308.291 348.024 308.291 349.8C308.291 352.032 307.571 353.796 306.131 355.092C304.715 356.364 302.759 357 300.263 357H290.759V331.8H298.715C301.019 331.8 302.795 332.316 304.043 333.348C305.315 334.38 305.951 335.916 305.951 337.956C305.951 339.156 305.735 340.224 305.303 341.16C304.871 342.096 304.235 342.804 303.395 343.284ZM294.179 342.276H298.283C299.627 342.276 300.647 342.012 301.343 341.484C302.063 340.932 302.423 339.96 302.423 338.568C302.423 337.176 302.063 336.216 301.343 335.688C300.647 335.136 299.627 334.86 298.283 334.86H294.179V342.276ZM299.975 353.904C301.391 353.904 302.507 353.556 303.323 352.86C304.139 352.14 304.547 351.084 304.547 349.692C304.547 346.812 303.023 345.372 299.975 345.372H294.179V353.904H299.975ZM326.373 346.524C327.621 344.652 328.533 343.104 329.109 341.88C329.685 340.656 329.973 339.54 329.973 338.532C329.973 337.284 329.613 336.3 328.893 335.58C328.197 334.836 327.249 334.464 326.049 334.464C323.817 334.464 321.777 335.412 319.929 337.308L319.497 333.708C320.409 332.988 321.453 332.4 322.629 331.944C323.805 331.488 325.065 331.26 326.409 331.26C328.641 331.26 330.369 331.908 331.593 333.204C332.817 334.5 333.429 336.156 333.429 338.172C333.429 339.756 333.117 341.256 332.493 342.672C331.893 344.088 330.861 345.9 329.397 348.108L325.581 353.868H334.401V356.964H319.497L326.373 346.524ZM345.684 341.088C347.436 341.088 348.948 341.436 350.22 342.132C351.492 342.828 352.464 343.788 353.136 345.012C353.808 346.236 354.144 347.628 354.144 349.188C354.144 350.868 353.748 352.332 352.956 353.58C352.188 354.828 351.12 355.8 349.752 356.496C348.408 357.168 346.884 357.504 345.18 357.504C343.884 357.504 342.612 357.336 341.364 357C340.14 356.664 339.072 356.196 338.16 355.596L338.988 352.428C340.02 353.004 341.004 353.448 341.94 353.76C342.876 354.048 343.896 354.192 345 354.192C346.608 354.192 347.904 353.736 348.888 352.824C349.896 351.912 350.4 350.7 350.4 349.188C350.4 347.508 349.872 346.212 348.816 345.3C347.76 344.364 346.344 343.896 344.568 343.896C343.056 343.896 341.364 344.136 339.492 344.616L341.04 331.8H352.92L352.776 335.04H343.848L343.092 341.268C344.004 341.148 344.868 341.088 345.684 341.088ZM365.161 341.088C366.913 341.088 368.425 341.436 369.697 342.132C370.969 342.828 371.941 343.788 372.613 345.012C373.285 346.236 373.621 347.628 373.621 349.188C373.621 350.868 373.225 352.332 372.433 353.58C371.665 354.828 370.597 355.8 369.229 356.496C367.885 357.168 366.361 357.504 364.657 357.504C363.361 357.504 362.089 357.336 360.841 357C359.617 356.664 358.549 356.196 357.637 355.596L358.465 352.428C359.497 353.004 360.481 353.448 361.417 353.76C362.353 354.048 363.373 354.192 364.477 354.192C366.085 354.192 367.381 353.736 368.365 352.824C369.373 351.912 369.877 350.7 369.877 349.188C369.877 347.508 369.349 346.212 368.293 345.3C367.237 344.364 365.821 343.896 364.045 343.896C362.533 343.896 360.841 344.136 358.969 344.616L360.517 331.8H372.397L372.253 335.04H363.325L362.569 341.268C363.481 341.148 364.345 341.088 365.161 341.088ZM377.329 360.852L378.625 357H377.365V353.184H381.253V356.64L379.381 360.852H377.329ZM396.677 336.732C395.885 337.38 395.201 337.86 394.625 338.172C394.073 338.484 393.509 338.736 392.933 338.928L392.357 335.724C393.365 335.388 394.361 334.86 395.345 334.14C396.353 333.396 397.121 332.616 397.649 331.8H399.989V357H396.677V336.732ZM418.751 343.212C419.951 343.86 420.875 344.76 421.523 345.912C422.195 347.04 422.531 348.336 422.531 349.8C422.531 351.312 422.171 352.656 421.451 353.832C420.731 354.984 419.711 355.884 418.391 356.532C417.071 357.18 415.535 357.504 413.783 357.504C412.007 357.504 410.459 357.18 409.139 356.532C407.819 355.884 406.799 354.984 406.079 353.832C405.383 352.656 405.035 351.312 405.035 349.8C405.035 348.336 405.371 347.028 406.043 345.876C406.715 344.724 407.651 343.824 408.851 343.176C408.011 342.576 407.351 341.844 406.871 340.98C406.415 340.092 406.187 339.132 406.187 338.1C406.187 336.924 406.451 335.82 406.979 334.788C407.531 333.756 408.371 332.916 409.499 332.268C410.651 331.62 412.079 331.296 413.783 331.296C415.487 331.296 416.891 331.62 417.995 332.268C419.123 332.916 419.939 333.756 420.443 334.788C420.971 335.82 421.235 336.924 421.235 338.1C421.235 339.18 421.019 340.152 420.587 341.016C420.155 341.88 419.543 342.612 418.751 343.212ZM413.783 334.392C412.463 334.392 411.431 334.728 410.687 335.4C409.967 336.072 409.607 336.972 409.607 338.1C409.607 339.156 409.979 340.044 410.723 340.764C411.467 341.484 412.487 341.844 413.783 341.844C415.055 341.844 416.039 341.496 416.735 340.8C417.455 340.08 417.815 339.18 417.815 338.1C417.815 336.972 417.467 336.072 416.771 335.4C416.075 334.728 415.079 334.392 413.783 334.392ZM413.783 354.408C415.415 354.408 416.687 354 417.599 353.184C418.535 352.344 419.003 351.216 419.003 349.8C419.003 348.336 418.535 347.148 417.599 346.236C416.687 345.3 415.415 344.832 413.783 344.832C412.151 344.832 410.867 345.3 409.931 346.236C409.019 347.148 408.563 348.336 408.563 349.8C408.563 351.216 409.019 352.344 409.931 353.184C410.867 354 412.151 354.408 413.783 354.408ZM440.583 343.212C441.783 343.86 442.707 344.76 443.355 345.912C444.027 347.04 444.363 348.336 444.363 349.8C444.363 351.312 444.003 352.656 443.283 353.832C442.563 354.984 441.543 355.884 440.223 356.532C438.903 357.18 437.367 357.504 435.615 357.504C433.839 357.504 432.291 357.18 430.971 356.532C429.651 355.884 428.631 354.984 427.911 353.832C427.215 352.656 426.867 351.312 426.867 349.8C426.867 348.336 427.203 347.028 427.875 345.876C428.547 344.724 429.483 343.824 430.683 343.176C429.843 342.576 429.183 341.844 428.703 340.98C428.247 340.092 428.019 339.132 428.019 338.1C428.019 336.924 428.283 335.82 428.811 334.788C429.363 333.756 430.203 332.916 431.331 332.268C432.483 331.62 433.911 331.296 435.615 331.296C437.319 331.296 438.723 331.62 439.827 332.268C440.955 332.916 441.771 333.756 442.275 334.788C442.803 335.82 443.067 336.924 443.067 338.1C443.067 339.18 442.851 340.152 442.419 341.016C441.987 341.88 441.375 342.612 440.583 343.212ZM435.615 334.392C434.295 334.392 433.263 334.728 432.519 335.4C431.799 336.072 431.439 336.972 431.439 338.1C431.439 339.156 431.811 340.044 432.555 340.764C433.299 341.484 434.319 341.844 435.615 341.844C436.887 341.844 437.871 341.496 438.567 340.8C439.287 340.08 439.647 339.18 439.647 338.1C439.647 336.972 439.299 336.072 438.603 335.4C437.907 334.728 436.911 334.392 435.615 334.392ZM435.615 354.408C437.247 354.408 438.519 354 439.431 353.184C440.367 352.344 440.835 351.216 440.835 349.8C440.835 348.336 440.367 347.148 439.431 346.236C438.519 345.3 437.247 344.832 435.615 344.832C433.983 344.832 432.699 345.3 431.763 346.236C430.851 347.148 430.395 348.336 430.395 349.8C430.395 351.216 430.851 352.344 431.763 353.184C432.699 354 433.983 354.408 435.615 354.408ZM448.591 360.852L449.887 357H448.627V353.184H452.515V356.64L450.643 360.852H448.591ZM482.231 347.568V350.484H478.991V357H475.535V350.484H463.115L476.507 331.8H478.991V347.568H482.231ZM475.535 347.568V338.172L468.839 347.568H475.535Z" fill="black"/>
</svg>
