<svg width="502" height="440" viewBox="0 0 502 440" fill="none" xmlns="http://www.w3.org/2000/svg">
<rect width="502" height="440" fill="white"/>
<circle cx="104.5" cy="96.5" r="85.5" fill="#18479C"/>
<circle cx="104.5" cy="343.5" r="85.5" fill="#FFBC04"/>
<path d="M248.88 62.8H252.3V73.204H265.116V62.8H268.536V88H265.116V76.444H252.3V88H248.88V62.8ZM274.298 62.8H289.67V65.896H277.718V73.276H287.222V76.372H277.718V84.904H289.994V88H274.298V62.8ZM300.064 75.292L291.64 62.8H295.6L302.044 72.34L308.452 62.8H312.412L304.024 75.292L312.556 88H308.596L302.044 78.244L295.456 88H291.496L300.064 75.292ZM326.285 80.224H321.965L323.405 76.948H327.545L329.165 72.808H324.629L325.673 69.748H330.317L332.981 62.8H335.897L333.197 69.748H337.985L340.685 62.8H343.565L340.901 69.748H344.969L343.925 72.808H339.749L338.129 76.948H342.737L341.261 80.224H336.869L333.773 88.396H330.857L333.989 80.224H329.201L326.069 88.396H323.189L326.285 80.224ZM335.213 76.948L336.833 72.808H332.081L330.461 76.948H335.213ZM351.669 67.732C350.877 68.38 350.193 68.86 349.617 69.172C349.065 69.484 348.501 69.736 347.925 69.928L347.349 66.724C348.357 66.388 349.353 65.86 350.337 65.14C351.345 64.396 352.113 63.616 352.641 62.8H354.981V88H351.669V67.732ZM373.743 74.212C374.943 74.86 375.867 75.76 376.515 76.912C377.187 78.04 377.523 79.336 377.523 80.8C377.523 82.312 377.163 83.656 376.443 84.832C375.723 85.984 374.703 86.884 373.383 87.532C372.063 88.18 370.527 88.504 368.775 88.504C366.999 88.504 365.451 88.18 364.131 87.532C362.811 86.884 361.791 85.984 361.071 84.832C360.375 83.656 360.027 82.312 360.027 80.8C360.027 79.336 360.363 78.028 361.035 76.876C361.707 75.724 362.643 74.824 363.843 74.176C363.003 73.576 362.343 72.844 361.863 71.98C361.407 71.092 361.179 70.132 361.179 69.1C361.179 67.924 361.443 66.82 361.971 65.788C362.523 64.756 363.363 63.916 364.491 63.268C365.643 62.62 367.071 62.296 368.775 62.296C370.479 62.296 371.883 62.62 372.987 63.268C374.115 63.916 374.931 64.756 375.435 65.788C375.963 66.82 376.227 67.924 376.227 69.1C376.227 70.18 376.011 71.152 375.579 72.016C375.147 72.88 374.535 73.612 373.743 74.212ZM368.775 65.392C367.455 65.392 366.423 65.728 365.679 66.4C364.959 67.072 364.599 67.972 364.599 69.1C364.599 70.156 364.971 71.044 365.715 71.764C366.459 72.484 367.479 72.844 368.775 72.844C370.047 72.844 371.031 72.496 371.727 71.8C372.447 71.08 372.807 70.18 372.807 69.1C372.807 67.972 372.459 67.072 371.763 66.4C371.067 65.728 370.071 65.392 368.775 65.392ZM368.775 85.408C370.407 85.408 371.679 85 372.591 84.184C373.527 83.344 373.995 82.216 373.995 80.8C373.995 79.336 373.527 78.148 372.591 77.236C371.679 76.3 370.407 75.832 368.775 75.832C367.143 75.832 365.859 76.3 364.923 77.236C364.011 78.148 363.555 79.336 363.555 80.8C363.555 82.216 364.011 83.344 364.923 84.184C365.859 85 367.143 85.408 368.775 85.408ZM399.535 78.568V81.484H396.295V88H392.839V81.484H380.419L393.811 62.8H396.295V78.568H399.535ZM392.839 78.568V69.172L386.143 78.568H392.839ZM418.26 62.8L407.352 88H403.752L413.22 66.04H401.952V62.8H418.26ZM428.445 62.296C431.061 62.296 433.113 63.148 434.601 64.852C436.089 66.556 436.833 68.824 436.833 71.656C436.833 74.08 436.305 76.372 435.249 78.532C434.217 80.668 432.873 82.54 431.217 84.148C429.585 85.756 427.857 87.04 426.033 88L423.693 85.804C425.685 84.772 427.473 83.452 429.057 81.844C430.665 80.212 431.841 78.412 432.585 76.444C431.217 77.428 429.573 77.92 427.653 77.92C426.213 77.92 424.917 77.596 423.765 76.948C422.637 76.276 421.749 75.364 421.101 74.212C420.477 73.036 420.165 71.728 420.165 70.288C420.165 68.752 420.513 67.384 421.209 66.184C421.905 64.96 422.877 64.012 424.125 63.34C425.373 62.644 426.813 62.296 428.445 62.296ZM428.445 74.968C429.861 74.968 431.013 74.512 431.901 73.6C432.789 72.688 433.233 71.536 433.233 70.144C433.233 68.704 432.789 67.528 431.901 66.616C431.037 65.704 429.885 65.248 428.445 65.248C427.029 65.248 425.877 65.716 424.989 66.652C424.125 67.588 423.693 68.764 423.693 70.18C423.693 71.548 424.125 72.688 424.989 73.6C425.877 74.512 427.029 74.968 428.445 74.968ZM453.19 88.504C450.742 88.504 448.558 87.964 446.638 86.884C444.718 85.804 443.206 84.28 442.102 82.312C441.022 80.32 440.482 78.016 440.482 75.4C440.482 72.784 441.034 70.492 442.138 68.524C443.242 66.532 444.766 64.996 446.71 63.916C448.654 62.836 450.862 62.296 453.334 62.296C454.558 62.296 455.758 62.428 456.934 62.692C458.11 62.956 459.154 63.316 460.066 63.772L459.706 66.94C457.546 65.908 455.41 65.392 453.298 65.392C451.378 65.392 449.734 65.836 448.366 66.724C446.998 67.588 445.966 68.776 445.27 70.288C444.574 71.8 444.226 73.504 444.226 75.4C444.226 77.296 444.574 79 445.27 80.512C445.966 82.024 446.986 83.224 448.33 84.112C449.674 84.976 451.306 85.408 453.226 85.408C455.482 85.408 457.642 84.904 459.706 83.896L460.066 87.064C457.978 88.024 455.686 88.504 453.19 88.504Z" fill="black"/>
<path d="M248.88 127.8H257.052C259.788 127.8 261.924 128.436 263.46 129.708C264.996 130.956 265.764 132.876 265.764 135.468C265.764 138.828 264.3 141.192 261.372 142.56L267.024 153H262.848L257.736 143.172H257.556H252.48V153H248.88V127.8ZM257.016 140.112C258.696 140.112 259.98 139.704 260.868 138.888C261.756 138.072 262.2 136.932 262.2 135.468C262.2 134.004 261.756 132.876 260.868 132.084C260.004 131.268 258.72 130.86 257.016 130.86H252.48V140.112H257.016ZM281.443 153.504C279.115 153.504 277.015 152.964 275.143 151.884C273.271 150.804 271.795 149.268 270.715 147.276C269.635 145.284 269.095 142.98 269.095 140.364C269.095 137.748 269.647 135.456 270.751 133.488C271.879 131.52 273.427 129.996 275.395 128.916C277.363 127.836 279.607 127.296 282.127 127.296C283.399 127.296 284.647 127.428 285.871 127.692C287.119 127.956 288.235 128.304 289.219 128.736L288.895 131.724C286.567 130.836 284.347 130.392 282.235 130.392C280.147 130.392 278.395 130.836 276.979 131.724C275.587 132.588 274.543 133.776 273.847 135.288C273.175 136.776 272.839 138.48 272.839 140.4C272.839 143.424 273.643 145.848 275.251 147.672C276.883 149.496 279.271 150.408 282.415 150.408C283.087 150.408 283.807 150.36 284.575 150.264C285.343 150.144 286.027 149.964 286.627 149.724V143.46H282.667V140.364H290.047V151.596C288.991 152.172 287.719 152.64 286.231 153C284.767 153.336 283.171 153.504 281.443 153.504ZM307.395 139.284C308.979 139.668 310.191 140.412 311.031 141.516C311.871 142.596 312.291 144.024 312.291 145.8C312.291 148.032 311.571 149.796 310.131 151.092C308.715 152.364 306.759 153 304.263 153H294.759V127.8H302.715C305.019 127.8 306.795 128.316 308.043 129.348C309.315 130.38 309.951 131.916 309.951 133.956C309.951 135.156 309.735 136.224 309.303 137.16C308.871 138.096 308.235 138.804 307.395 139.284ZM298.179 138.276H302.283C303.627 138.276 304.647 138.012 305.343 137.484C306.063 136.932 306.423 135.96 306.423 134.568C306.423 133.176 306.063 132.216 305.343 131.688C304.647 131.136 303.627 130.86 302.283 130.86H298.179V138.276ZM303.975 149.904C305.391 149.904 306.507 149.556 307.323 148.86C308.139 148.14 308.547 147.084 308.547 145.692C308.547 142.812 307.023 141.372 303.975 141.372H298.179V149.904H303.975ZM330.373 142.524C331.621 140.652 332.533 139.104 333.109 137.88C333.685 136.656 333.973 135.54 333.973 134.532C333.973 133.284 333.613 132.3 332.893 131.58C332.197 130.836 331.249 130.464 330.049 130.464C327.817 130.464 325.777 131.412 323.929 133.308L323.497 129.708C324.409 128.988 325.453 128.4 326.629 127.944C327.805 127.488 329.065 127.26 330.409 127.26C332.641 127.26 334.369 127.908 335.593 129.204C336.817 130.5 337.429 132.156 337.429 134.172C337.429 135.756 337.117 137.256 336.493 138.672C335.893 140.088 334.861 141.9 333.397 144.108L329.581 149.868H338.401V152.964H323.497L330.373 142.524ZM360.16 143.568V146.484H356.92V153H353.464V146.484H341.044L354.436 127.8H356.92V143.568H360.16ZM353.464 143.568V134.172L346.768 143.568H353.464ZM362.626 156.852L363.922 153H362.662V149.184H366.55V152.64L364.678 156.852H362.626ZM394.178 127.8L383.27 153H379.67L389.138 131.04H377.87V127.8H394.178ZM400.079 132.732C399.287 133.38 398.603 133.86 398.027 134.172C397.475 134.484 396.911 134.736 396.335 134.928L395.759 131.724C396.767 131.388 397.763 130.86 398.747 130.14C399.755 129.396 400.523 128.616 401.051 127.8H403.391V153H400.079V132.732ZM408.329 156.852L409.625 153H408.365V149.184H412.253V152.64L410.381 156.852H408.329ZM427.677 132.732C426.885 133.38 426.201 133.86 425.625 134.172C425.073 134.484 424.509 134.736 423.933 134.928L423.357 131.724C424.365 131.388 425.361 130.86 426.345 130.14C427.353 129.396 428.121 128.616 428.649 127.8H430.989V153H427.677V132.732ZM443.235 137.088C444.987 137.088 446.499 137.436 447.771 138.132C449.043 138.828 450.015 139.788 450.687 141.012C451.359 142.236 451.695 143.628 451.695 145.188C451.695 146.868 451.299 148.332 450.507 149.58C449.739 150.828 448.671 151.8 447.303 152.496C445.959 153.168 444.435 153.504 442.731 153.504C441.435 153.504 440.163 153.336 438.915 153C437.691 152.664 436.623 152.196 435.711 151.596L436.539 148.428C437.571 149.004 438.555 149.448 439.491 149.76C440.427 150.048 441.447 150.192 442.551 150.192C444.159 150.192 445.455 149.736 446.439 148.824C447.447 147.912 447.951 146.7 447.951 145.188C447.951 143.508 447.423 142.212 446.367 141.3C445.311 140.364 443.895 139.896 442.119 139.896C440.607 139.896 438.915 140.136 437.043 140.616L438.591 127.8H450.471L450.327 131.04H441.399L440.643 137.268C441.555 137.148 442.419 137.088 443.235 137.088ZM464.764 137.88C466.204 137.88 467.488 138.216 468.616 138.888C469.768 139.536 470.656 140.448 471.28 141.624C471.928 142.776 472.252 144.072 472.252 145.512C472.252 147.048 471.904 148.428 471.208 149.652C470.512 150.852 469.54 151.8 468.292 152.496C467.044 153.168 465.604 153.504 463.972 153.504C461.356 153.504 459.304 152.652 457.816 150.948C456.328 149.244 455.584 146.976 455.584 144.144C455.584 141.648 456.124 139.296 457.204 137.088C458.284 134.856 459.664 132.912 461.344 131.256C463.048 129.6 464.848 128.28 466.744 127.296L469.084 129.492C466.924 130.572 465.004 131.976 463.324 133.704C461.668 135.408 460.48 137.304 459.76 139.392C461.104 138.384 462.772 137.88 464.764 137.88ZM463.972 150.552C465.388 150.552 466.528 150.084 467.392 149.148C468.28 148.212 468.724 147.036 468.724 145.62C468.724 144.252 468.28 143.112 467.392 142.2C466.528 141.288 465.388 140.832 463.972 140.832C462.556 140.832 461.404 141.288 460.516 142.2C459.628 143.112 459.184 144.264 459.184 145.656C459.184 147.096 459.616 148.272 460.48 149.184C461.368 150.096 462.532 150.552 463.972 150.552Z" fill="black"/>
<path d="M244.88 298.8H248.3V309.204H261.116V298.8H264.536V324H261.116V312.444H248.3V324H244.88V298.8ZM270.298 298.8H285.67V301.896H273.718V309.276H283.222V312.372H273.718V320.904H285.994V324H270.298V298.8ZM296.064 311.292L287.64 298.8H291.6L298.044 308.34L304.452 298.8H308.412L300.024 311.292L308.556 324H304.596L298.044 314.244L291.456 324H287.496L296.064 311.292ZM322.285 316.224H317.965L319.405 312.948H323.545L325.165 308.808H320.629L321.673 305.748H326.317L328.981 298.8H331.897L329.197 305.748H333.985L336.685 298.8H339.565L336.901 305.748H340.969L339.925 308.808H335.749L334.129 312.948H338.737L337.261 316.224H332.869L329.773 324.396H326.857L329.989 316.224H325.201L322.069 324.396H319.189L322.285 316.224ZM331.213 312.948L332.833 308.808H328.081L326.461 312.948H331.213ZM345.005 298.8H360.377V301.896H348.425V309.276H357.641V312.372H348.425V324H345.005V298.8ZM363.849 298.8H379.221V301.896H367.269V309.276H376.485V312.372H367.269V324H363.849V298.8ZM395.329 310.284C396.913 310.668 398.125 311.412 398.965 312.516C399.805 313.596 400.225 315.024 400.225 316.8C400.225 319.032 399.505 320.796 398.065 322.092C396.649 323.364 394.693 324 392.197 324H382.693V298.8H390.649C392.953 298.8 394.729 299.316 395.977 300.348C397.249 301.38 397.885 302.916 397.885 304.956C397.885 306.156 397.669 307.224 397.237 308.16C396.805 309.096 396.169 309.804 395.329 310.284ZM386.113 309.276H390.217C391.561 309.276 392.581 309.012 393.277 308.484C393.997 307.932 394.357 306.96 394.357 305.568C394.357 304.176 393.997 303.216 393.277 302.688C392.581 302.136 391.561 301.86 390.217 301.86H386.113V309.276ZM391.909 320.904C393.325 320.904 394.441 320.556 395.257 319.86C396.073 319.14 396.481 318.084 396.481 316.692C396.481 313.812 394.957 312.372 391.909 312.372H386.113V320.904H391.909ZM415.405 324.504C412.957 324.504 410.773 323.964 408.853 322.884C406.933 321.804 405.421 320.28 404.317 318.312C403.237 316.32 402.697 314.016 402.697 311.4C402.697 308.784 403.249 306.492 404.353 304.524C405.457 302.532 406.981 300.996 408.925 299.916C410.869 298.836 413.077 298.296 415.549 298.296C416.773 298.296 417.973 298.428 419.149 298.692C420.325 298.956 421.369 299.316 422.281 299.772L421.921 302.94C419.761 301.908 417.625 301.392 415.513 301.392C413.593 301.392 411.949 301.836 410.581 302.724C409.213 303.588 408.181 304.776 407.485 306.288C406.789 307.8 406.441 309.504 406.441 311.4C406.441 313.296 406.789 315 407.485 316.512C408.181 318.024 409.201 319.224 410.545 320.112C411.889 320.976 413.521 321.408 415.441 321.408C417.697 321.408 419.857 320.904 421.921 319.896L422.281 323.064C420.193 324.024 417.901 324.504 415.405 324.504ZM436.041 324.504C433.857 324.504 431.961 323.94 430.353 322.812C428.769 321.684 427.545 320.112 426.681 318.096C425.841 316.08 425.421 313.776 425.421 311.184C425.421 308.616 425.865 306.36 426.753 304.416C427.665 302.472 428.925 300.972 430.533 299.916C432.141 298.836 433.977 298.296 436.041 298.296C438.153 298.296 440.013 298.836 441.621 299.916C443.229 300.972 444.465 302.472 445.329 304.416C446.217 306.36 446.661 308.616 446.661 311.184C446.661 313.776 446.241 316.08 445.401 318.096C444.561 320.112 443.337 321.684 441.729 322.812C440.121 323.94 438.225 324.504 436.041 324.504ZM436.041 321.408C438.273 321.408 439.989 320.52 441.189 318.744C442.413 316.968 443.025 314.448 443.025 311.184C443.025 307.968 442.401 305.532 441.153 303.876C439.929 302.22 438.225 301.392 436.041 301.392C433.953 301.392 432.261 302.232 430.965 303.912C429.693 305.592 429.057 308.016 429.057 311.184C429.057 314.448 429.657 316.968 430.857 318.744C432.081 320.52 433.809 321.408 436.041 321.408ZM468.449 314.568V317.484H465.209V324H461.753V317.484H449.333L462.725 298.8H465.209V314.568H468.449ZM461.753 314.568V305.172L455.057 314.568H461.753Z" fill="black"/>
<path d="M244.88 363.8H253.052C255.788 363.8 257.924 364.436 259.46 365.708C260.996 366.956 261.764 368.876 261.764 371.468C261.764 374.828 260.3 377.192 257.372 378.56L263.024 389H258.848L253.736 379.172H253.556H248.48V389H244.88V363.8ZM253.016 376.112C254.696 376.112 255.98 375.704 256.868 374.888C257.756 374.072 258.2 372.932 258.2 371.468C258.2 370.004 257.756 368.876 256.868 368.084C256.004 367.268 254.72 366.86 253.016 366.86H248.48V376.112H253.016ZM277.443 389.504C275.115 389.504 273.015 388.964 271.143 387.884C269.271 386.804 267.795 385.268 266.715 383.276C265.635 381.284 265.095 378.98 265.095 376.364C265.095 373.748 265.647 371.456 266.751 369.488C267.879 367.52 269.427 365.996 271.395 364.916C273.363 363.836 275.607 363.296 278.127 363.296C279.399 363.296 280.647 363.428 281.871 363.692C283.119 363.956 284.235 364.304 285.219 364.736L284.895 367.724C282.567 366.836 280.347 366.392 278.235 366.392C276.147 366.392 274.395 366.836 272.979 367.724C271.587 368.588 270.543 369.776 269.847 371.288C269.175 372.776 268.839 374.48 268.839 376.4C268.839 379.424 269.643 381.848 271.251 383.672C272.883 385.496 275.271 386.408 278.415 386.408C279.087 386.408 279.807 386.36 280.575 386.264C281.343 386.144 282.027 385.964 282.627 385.724V379.46H278.667V376.364H286.047V387.596C284.991 388.172 283.719 388.64 282.231 389C280.767 389.336 279.171 389.504 277.443 389.504ZM303.395 375.284C304.979 375.668 306.191 376.412 307.031 377.516C307.871 378.596 308.291 380.024 308.291 381.8C308.291 384.032 307.571 385.796 306.131 387.092C304.715 388.364 302.759 389 300.263 389H290.759V363.8H298.715C301.019 363.8 302.795 364.316 304.043 365.348C305.315 366.38 305.951 367.916 305.951 369.956C305.951 371.156 305.735 372.224 305.303 373.16C304.871 374.096 304.235 374.804 303.395 375.284ZM294.179 374.276H298.283C299.627 374.276 300.647 374.012 301.343 373.484C302.063 372.932 302.423 371.96 302.423 370.568C302.423 369.176 302.063 368.216 301.343 367.688C300.647 367.136 299.627 366.86 298.283 366.86H294.179V374.276ZM299.975 385.904C301.391 385.904 302.507 385.556 303.323 384.86C304.139 384.14 304.547 383.084 304.547 381.692C304.547 378.812 303.023 377.372 299.975 377.372H294.179V385.904H299.975ZM326.373 378.524C327.621 376.652 328.533 375.104 329.109 373.88C329.685 372.656 329.973 371.54 329.973 370.532C329.973 369.284 329.613 368.3 328.893 367.58C328.197 366.836 327.249 366.464 326.049 366.464C323.817 366.464 321.777 367.412 319.929 369.308L319.497 365.708C320.409 364.988 321.453 364.4 322.629 363.944C323.805 363.488 325.065 363.26 326.409 363.26C328.641 363.26 330.369 363.908 331.593 365.204C332.817 366.5 333.429 368.156 333.429 370.172C333.429 371.756 333.117 373.256 332.493 374.672C331.893 376.088 330.861 377.9 329.397 380.108L325.581 385.868H334.401V388.964H319.497L326.373 378.524ZM345.684 373.088C347.436 373.088 348.948 373.436 350.22 374.132C351.492 374.828 352.464 375.788 353.136 377.012C353.808 378.236 354.144 379.628 354.144 381.188C354.144 382.868 353.748 384.332 352.956 385.58C352.188 386.828 351.12 387.8 349.752 388.496C348.408 389.168 346.884 389.504 345.18 389.504C343.884 389.504 342.612 389.336 341.364 389C340.14 388.664 339.072 388.196 338.16 387.596L338.988 384.428C340.02 385.004 341.004 385.448 341.94 385.76C342.876 386.048 343.896 386.192 345 386.192C346.608 386.192 347.904 385.736 348.888 384.824C349.896 383.912 350.4 382.7 350.4 381.188C350.4 379.508 349.872 378.212 348.816 377.3C347.76 376.364 346.344 375.896 344.568 375.896C343.056 375.896 341.364 376.136 339.492 376.616L341.04 363.8H352.92L352.776 367.04H343.848L343.092 373.268C344.004 373.148 344.868 373.088 345.684 373.088ZM365.161 373.088C366.913 373.088 368.425 373.436 369.697 374.132C370.969 374.828 371.941 375.788 372.613 377.012C373.285 378.236 373.621 379.628 373.621 381.188C373.621 382.868 373.225 384.332 372.433 385.58C371.665 386.828 370.597 387.8 369.229 388.496C367.885 389.168 366.361 389.504 364.657 389.504C363.361 389.504 362.089 389.336 360.841 389C359.617 388.664 358.549 388.196 357.637 387.596L358.465 384.428C359.497 385.004 360.481 385.448 361.417 385.76C362.353 386.048 363.373 386.192 364.477 386.192C366.085 386.192 367.381 385.736 368.365 384.824C369.373 383.912 369.877 382.7 369.877 381.188C369.877 379.508 369.349 378.212 368.293 377.3C367.237 376.364 365.821 375.896 364.045 375.896C362.533 375.896 360.841 376.136 358.969 376.616L360.517 363.8H372.397L372.253 367.04H363.325L362.569 373.268C363.481 373.148 364.345 373.088 365.161 373.088ZM377.329 392.852L378.625 389H377.365V385.184H381.253V388.64L379.381 392.852H377.329ZM396.677 368.732C395.885 369.38 395.201 369.86 394.625 370.172C394.073 370.484 393.509 370.736 392.933 370.928L392.357 367.724C393.365 367.388 394.361 366.86 395.345 366.14C396.353 365.396 397.121 364.616 397.649 363.8H399.989V389H396.677V368.732ZM418.751 375.212C419.951 375.86 420.875 376.76 421.523 377.912C422.195 379.04 422.531 380.336 422.531 381.8C422.531 383.312 422.171 384.656 421.451 385.832C420.731 386.984 419.711 387.884 418.391 388.532C417.071 389.18 415.535 389.504 413.783 389.504C412.007 389.504 410.459 389.18 409.139 388.532C407.819 387.884 406.799 386.984 406.079 385.832C405.383 384.656 405.035 383.312 405.035 381.8C405.035 380.336 405.371 379.028 406.043 377.876C406.715 376.724 407.651 375.824 408.851 375.176C408.011 374.576 407.351 373.844 406.871 372.98C406.415 372.092 406.187 371.132 406.187 370.1C406.187 368.924 406.451 367.82 406.979 366.788C407.531 365.756 408.371 364.916 409.499 364.268C410.651 363.62 412.079 363.296 413.783 363.296C415.487 363.296 416.891 363.62 417.995 364.268C419.123 364.916 419.939 365.756 420.443 366.788C420.971 367.82 421.235 368.924 421.235 370.1C421.235 371.18 421.019 372.152 420.587 373.016C420.155 373.88 419.543 374.612 418.751 375.212ZM413.783 366.392C412.463 366.392 411.431 366.728 410.687 367.4C409.967 368.072 409.607 368.972 409.607 370.1C409.607 371.156 409.979 372.044 410.723 372.764C411.467 373.484 412.487 373.844 413.783 373.844C415.055 373.844 416.039 373.496 416.735 372.8C417.455 372.08 417.815 371.18 417.815 370.1C417.815 368.972 417.467 368.072 416.771 367.4C416.075 366.728 415.079 366.392 413.783 366.392ZM413.783 386.408C415.415 386.408 416.687 386 417.599 385.184C418.535 384.344 419.003 383.216 419.003 381.8C419.003 380.336 418.535 379.148 417.599 378.236C416.687 377.3 415.415 376.832 413.783 376.832C412.151 376.832 410.867 377.3 409.931 378.236C409.019 379.148 408.563 380.336 408.563 381.8C408.563 383.216 409.019 384.344 409.931 385.184C410.867 386 412.151 386.408 413.783 386.408ZM440.583 375.212C441.783 375.86 442.707 376.76 443.355 377.912C444.027 379.04 444.363 380.336 444.363 381.8C444.363 383.312 444.003 384.656 443.283 385.832C442.563 386.984 441.543 387.884 440.223 388.532C438.903 389.18 437.367 389.504 435.615 389.504C433.839 389.504 432.291 389.18 430.971 388.532C429.651 387.884 428.631 386.984 427.911 385.832C427.215 384.656 426.867 383.312 426.867 381.8C426.867 380.336 427.203 379.028 427.875 377.876C428.547 376.724 429.483 375.824 430.683 375.176C429.843 374.576 429.183 373.844 428.703 372.98C428.247 372.092 428.019 371.132 428.019 370.1C428.019 368.924 428.283 367.82 428.811 366.788C429.363 365.756 430.203 364.916 431.331 364.268C432.483 363.62 433.911 363.296 435.615 363.296C437.319 363.296 438.723 363.62 439.827 364.268C440.955 364.916 441.771 365.756 442.275 366.788C442.803 367.82 443.067 368.924 443.067 370.1C443.067 371.18 442.851 372.152 442.419 373.016C441.987 373.88 441.375 374.612 440.583 375.212ZM435.615 366.392C434.295 366.392 433.263 366.728 432.519 367.4C431.799 368.072 431.439 368.972 431.439 370.1C431.439 371.156 431.811 372.044 432.555 372.764C433.299 373.484 434.319 373.844 435.615 373.844C436.887 373.844 437.871 373.496 438.567 372.8C439.287 372.08 439.647 371.18 439.647 370.1C439.647 368.972 439.299 368.072 438.603 367.4C437.907 366.728 436.911 366.392 435.615 366.392ZM435.615 386.408C437.247 386.408 438.519 386 439.431 385.184C440.367 384.344 440.835 383.216 440.835 381.8C440.835 380.336 440.367 379.148 439.431 378.236C438.519 377.3 437.247 376.832 435.615 376.832C433.983 376.832 432.699 377.3 431.763 378.236C430.851 379.148 430.395 380.336 430.395 381.8C430.395 383.216 430.851 384.344 431.763 385.184C432.699 386 433.983 386.408 435.615 386.408ZM448.591 392.852L449.887 389H448.627V385.184H452.515V388.64L450.643 392.852H448.591ZM482.231 379.568V382.484H478.991V389H475.535V382.484H463.115L476.507 363.8H478.991V379.568H482.231ZM475.535 379.568V370.172L468.839 379.568H475.535Z" fill="black"/>
</svg>
