<svg width="515" height="544" viewBox="0 0 515 544" fill="none" xmlns="http://www.w3.org/2000/svg">
<rect width="515" height="544" fill="white"/>
<circle cx="109.5" cy="134.5" r="85.5" fill="#18479C"/>
<path d="M253.88 122.8H257.3V133.204H270.116V122.8H273.536V148H270.116V136.444H257.3V148H253.88V122.8ZM279.298 122.8H294.67V125.896H282.718V133.276H292.222V136.372H282.718V144.904H294.994V148H279.298V122.8ZM305.064 135.292L296.64 122.8H300.6L307.044 132.34L313.452 122.8H317.412L309.024 135.292L317.556 148H313.596L307.044 138.244L300.456 148H296.496L305.064 135.292ZM331.285 140.224H326.965L328.405 136.948H332.545L334.165 132.808H329.629L330.673 129.748H335.317L337.981 122.8H340.897L338.197 129.748H342.985L345.685 122.8H348.565L345.901 129.748H349.969L348.925 132.808H344.749L343.129 136.948H347.737L346.261 140.224H341.869L338.773 148.396H335.857L338.989 140.224H334.201L331.069 148.396H328.189L331.285 140.224ZM340.213 136.948L341.833 132.808H337.081L335.461 136.948H340.213ZM356.669 127.732C355.877 128.38 355.193 128.86 354.617 129.172C354.065 129.484 353.501 129.736 352.925 129.928L352.349 126.724C353.357 126.388 354.353 125.86 355.337 125.14C356.345 124.396 357.113 123.616 357.641 122.8H359.981V148H356.669V127.732ZM378.743 134.212C379.943 134.86 380.867 135.76 381.515 136.912C382.187 138.04 382.523 139.336 382.523 140.8C382.523 142.312 382.163 143.656 381.443 144.832C380.723 145.984 379.703 146.884 378.383 147.532C377.063 148.18 375.527 148.504 373.775 148.504C371.999 148.504 370.451 148.18 369.131 147.532C367.811 146.884 366.791 145.984 366.071 144.832C365.375 143.656 365.027 142.312 365.027 140.8C365.027 139.336 365.363 138.028 366.035 136.876C366.707 135.724 367.643 134.824 368.843 134.176C368.003 133.576 367.343 132.844 366.863 131.98C366.407 131.092 366.179 130.132 366.179 129.1C366.179 127.924 366.443 126.82 366.971 125.788C367.523 124.756 368.363 123.916 369.491 123.268C370.643 122.62 372.071 122.296 373.775 122.296C375.479 122.296 376.883 122.62 377.987 123.268C379.115 123.916 379.931 124.756 380.435 125.788C380.963 126.82 381.227 127.924 381.227 129.1C381.227 130.18 381.011 131.152 380.579 132.016C380.147 132.88 379.535 133.612 378.743 134.212ZM373.775 125.392C372.455 125.392 371.423 125.728 370.679 126.4C369.959 127.072 369.599 127.972 369.599 129.1C369.599 130.156 369.971 131.044 370.715 131.764C371.459 132.484 372.479 132.844 373.775 132.844C375.047 132.844 376.031 132.496 376.727 131.8C377.447 131.08 377.807 130.18 377.807 129.1C377.807 127.972 377.459 127.072 376.763 126.4C376.067 125.728 375.071 125.392 373.775 125.392ZM373.775 145.408C375.407 145.408 376.679 145 377.591 144.184C378.527 143.344 378.995 142.216 378.995 140.8C378.995 139.336 378.527 138.148 377.591 137.236C376.679 136.3 375.407 135.832 373.775 135.832C372.143 135.832 370.859 136.3 369.923 137.236C369.011 138.148 368.555 139.336 368.555 140.8C368.555 142.216 369.011 143.344 369.923 144.184C370.859 145 372.143 145.408 373.775 145.408ZM404.535 138.568V141.484H401.295V148H397.839V141.484H385.419L398.811 122.8H401.295V138.568H404.535ZM397.839 138.568V129.172L391.143 138.568H397.839ZM423.26 122.8L412.352 148H408.752L418.22 126.04H406.952V122.8H423.26ZM433.445 122.296C436.061 122.296 438.113 123.148 439.601 124.852C441.089 126.556 441.833 128.824 441.833 131.656C441.833 134.08 441.305 136.372 440.249 138.532C439.217 140.668 437.873 142.54 436.217 144.148C434.585 145.756 432.857 147.04 431.033 148L428.693 145.804C430.685 144.772 432.473 143.452 434.057 141.844C435.665 140.212 436.841 138.412 437.585 136.444C436.217 137.428 434.573 137.92 432.653 137.92C431.213 137.92 429.917 137.596 428.765 136.948C427.637 136.276 426.749 135.364 426.101 134.212C425.477 133.036 425.165 131.728 425.165 130.288C425.165 128.752 425.513 127.384 426.209 126.184C426.905 124.96 427.877 124.012 429.125 123.34C430.373 122.644 431.813 122.296 433.445 122.296ZM433.445 134.968C434.861 134.968 436.013 134.512 436.901 133.6C437.789 132.688 438.233 131.536 438.233 130.144C438.233 128.704 437.789 127.528 436.901 126.616C436.037 125.704 434.885 125.248 433.445 125.248C432.029 125.248 430.877 125.716 429.989 126.652C429.125 127.588 428.693 128.764 428.693 130.18C428.693 131.548 429.125 132.688 429.989 133.6C430.877 134.512 432.029 134.968 433.445 134.968ZM458.19 148.504C455.742 148.504 453.558 147.964 451.638 146.884C449.718 145.804 448.206 144.28 447.102 142.312C446.022 140.32 445.482 138.016 445.482 135.4C445.482 132.784 446.034 130.492 447.138 128.524C448.242 126.532 449.766 124.996 451.71 123.916C453.654 122.836 455.862 122.296 458.334 122.296C459.558 122.296 460.758 122.428 461.934 122.692C463.11 122.956 464.154 123.316 465.066 123.772L464.706 126.94C462.546 125.908 460.41 125.392 458.298 125.392C456.378 125.392 454.734 125.836 453.366 126.724C451.998 127.588 450.966 128.776 450.27 130.288C449.574 131.8 449.226 133.504 449.226 135.4C449.226 137.296 449.574 139 450.27 140.512C450.966 142.024 451.986 143.224 453.33 144.112C454.674 144.976 456.306 145.408 458.226 145.408C460.482 145.408 462.642 144.904 464.706 143.896L465.066 147.064C462.978 148.024 460.686 148.504 458.19 148.504Z" fill="black"/>
<circle cx="104.5" cy="409.5" r="85.5" fill="#FFBC04"/>
<path d="M244.88 397.8H248.3V408.204H261.116V397.8H264.536V423H261.116V411.444H248.3V423H244.88V397.8ZM270.298 397.8H285.67V400.896H273.718V408.276H283.222V411.372H273.718V419.904H285.994V423H270.298V397.8ZM296.064 410.292L287.64 397.8H291.6L298.044 407.34L304.452 397.8H308.412L300.024 410.292L308.556 423H304.596L298.044 413.244L291.456 423H287.496L296.064 410.292ZM322.285 415.224H317.965L319.405 411.948H323.545L325.165 407.808H320.629L321.673 404.748H326.317L328.981 397.8H331.897L329.197 404.748H333.985L336.685 397.8H339.565L336.901 404.748H340.969L339.925 407.808H335.749L334.129 411.948H338.737L337.261 415.224H332.869L329.773 423.396H326.857L329.989 415.224H325.201L322.069 423.396H319.189L322.285 415.224ZM331.213 411.948L332.833 407.808H328.081L326.461 411.948H331.213ZM345.005 397.8H360.377V400.896H348.425V408.276H357.641V411.372H348.425V423H345.005V397.8ZM363.849 397.8H379.221V400.896H367.269V408.276H376.485V411.372H367.269V423H363.849V397.8ZM395.329 409.284C396.913 409.668 398.125 410.412 398.965 411.516C399.805 412.596 400.225 414.024 400.225 415.8C400.225 418.032 399.505 419.796 398.065 421.092C396.649 422.364 394.693 423 392.197 423H382.693V397.8H390.649C392.953 397.8 394.729 398.316 395.977 399.348C397.249 400.38 397.885 401.916 397.885 403.956C397.885 405.156 397.669 406.224 397.237 407.16C396.805 408.096 396.169 408.804 395.329 409.284ZM386.113 408.276H390.217C391.561 408.276 392.581 408.012 393.277 407.484C393.997 406.932 394.357 405.96 394.357 404.568C394.357 403.176 393.997 402.216 393.277 401.688C392.581 401.136 391.561 400.86 390.217 400.86H386.113V408.276ZM391.909 419.904C393.325 419.904 394.441 419.556 395.257 418.86C396.073 418.14 396.481 417.084 396.481 415.692C396.481 412.812 394.957 411.372 391.909 411.372H386.113V419.904H391.909ZM415.405 423.504C412.957 423.504 410.773 422.964 408.853 421.884C406.933 420.804 405.421 419.28 404.317 417.312C403.237 415.32 402.697 413.016 402.697 410.4C402.697 407.784 403.249 405.492 404.353 403.524C405.457 401.532 406.981 399.996 408.925 398.916C410.869 397.836 413.077 397.296 415.549 397.296C416.773 397.296 417.973 397.428 419.149 397.692C420.325 397.956 421.369 398.316 422.281 398.772L421.921 401.94C419.761 400.908 417.625 400.392 415.513 400.392C413.593 400.392 411.949 400.836 410.581 401.724C409.213 402.588 408.181 403.776 407.485 405.288C406.789 406.8 406.441 408.504 406.441 410.4C406.441 412.296 406.789 414 407.485 415.512C408.181 417.024 409.201 418.224 410.545 419.112C411.889 419.976 413.521 420.408 415.441 420.408C417.697 420.408 419.857 419.904 421.921 418.896L422.281 422.064C420.193 423.024 417.901 423.504 415.405 423.504ZM436.041 423.504C433.857 423.504 431.961 422.94 430.353 421.812C428.769 420.684 427.545 419.112 426.681 417.096C425.841 415.08 425.421 412.776 425.421 410.184C425.421 407.616 425.865 405.36 426.753 403.416C427.665 401.472 428.925 399.972 430.533 398.916C432.141 397.836 433.977 397.296 436.041 397.296C438.153 397.296 440.013 397.836 441.621 398.916C443.229 399.972 444.465 401.472 445.329 403.416C446.217 405.36 446.661 407.616 446.661 410.184C446.661 412.776 446.241 415.08 445.401 417.096C444.561 419.112 443.337 420.684 441.729 421.812C440.121 422.94 438.225 423.504 436.041 423.504ZM436.041 420.408C438.273 420.408 439.989 419.52 441.189 417.744C442.413 415.968 443.025 413.448 443.025 410.184C443.025 406.968 442.401 404.532 441.153 402.876C439.929 401.22 438.225 400.392 436.041 400.392C433.953 400.392 432.261 401.232 430.965 402.912C429.693 404.592 429.057 407.016 429.057 410.184C429.057 413.448 429.657 415.968 430.857 417.744C432.081 419.52 433.809 420.408 436.041 420.408ZM468.449 413.568V416.484H465.209V423H461.753V416.484H449.333L462.725 397.8H465.209V413.568H468.449ZM461.753 413.568V404.172L455.057 413.568H461.753Z" fill="black"/>
</svg>
