<svg width="298" height="162" viewBox="0 0 298 162" fill="none" xmlns="http://www.w3.org/2000/svg">
<path d="M298 0.794922H0V161.396H298V0.794922Z" fill="#18479C"/>
<path d="M73.9705 44.8159C81.3517 46.0718 98.6254 49.6973 100.753 64.5307C102.881 79.3642 95.5401 81.4289 79.1968 75.6889C74.3378 73.9826 81.285 66.8156 79.1968 61.2592C76.2793 53.494 67.6576 54.5048 64.1226 54.5048C60.5876 54.5048 50.6309 57.4823 52.5613 71.1535C54.4917 84.824 78.4687 88.2404 85.3675 97.1671C92.2663 106.095 86.9769 118.34 83.3042 121.404C79.6316 124.469 74.8569 125.611 69.0009 126.001C58.0056 126.732 45.687 120.279 43.3196 113.091C40.9522 105.902 45.6423 102.443 54.6807 100.404C63.7191 98.3651 52.5613 117.037 69.0009 118.983C85.4408 120.93 85.3675 102.062 69.7921 95.5529C59.0088 91.0468 51.8077 87.3203 48.4681 85.2314C45.1286 83.1426 37.9426 75.9624 42.4363 60.1255C46.93 44.2888 66.5897 43.561 73.9705 44.8159Z" fill="white"/>
<path fill-rule="evenodd" clip-rule="evenodd" d="M71.482 28.7256C86.0597 28.7256 97.8776 30.1993 97.8776 32.0172C97.8776 33.8352 86.0597 35.3089 71.482 35.3089C56.904 35.3089 45.0864 33.8352 45.0864 32.0172C45.0864 30.1993 56.904 28.7256 71.482 28.7256Z" stroke="#FFBC04" stroke-width="4"/>
<path fill-rule="evenodd" clip-rule="evenodd" d="M238.687 98.6702V87.967C238.687 86.5225 238.365 85.4298 237.72 84.6903C237.076 83.9502 236.179 83.5801 235.031 83.5801C233.901 83.5801 233.022 83.9458 232.395 84.6772C231.768 85.4078 231.455 86.5049 231.455 87.967V119.257C231.455 122.182 232.647 123.644 235.031 123.644C236.179 123.644 237.076 123.269 237.72 122.521C238.365 121.772 238.687 120.684 238.687 119.257V109.717C238.687 106.969 238.882 105.057 239.27 103.982C239.782 102.713 240.555 101.714 241.589 100.982C242.622 100.252 243.783 99.8858 245.072 99.8858C246.997 99.8858 248.304 100.507 248.993 101.749C249.682 102.991 250.026 104.766 250.026 107.074V119.257C250.026 122.182 251.219 123.644 253.603 123.644C254.698 123.644 256.305 123.261 256.968 122.521C257.63 121.781 258 120.702 258 119.257V105.333C258 104.088 257.727 102.473 257.543 101.384C257.522 101.256 257.501 101.135 257.483 101.022C257.365 100.311 257.032 99.8858 256.672 99.425C256.493 99.1954 256.306 98.957 256.136 98.6702C255.324 97.1899 254.005 96.2479 252.583 95.4726C251.161 94.6973 249.531 94.3097 247.695 94.3097C246.476 94.3097 245.337 94.464 244.277 94.7719C243.218 95.0806 242.251 95.5428 241.376 96.1594C240.502 96.7759 239.606 97.6134 238.687 98.6702ZM104.536 110.748H118.683C120.573 110.748 122.039 110.479 123.081 109.941C124.123 109.404 125.858 108.088 125.858 106.274C125.858 104.318 125.227 101.926 124.22 100.04C123.214 98.1553 121.308 96.4899 119.286 95.3007C117.264 94.1114 114.327 93.6112 111.501 93.6112C109.329 93.6112 106.067 94.1385 104.536 95.0652C103.005 95.9926 101.86 96.8856 100.732 98.2292C99.6043 99.5721 98.734 101.167 98.0983 102.991C97.4626 104.815 97.1444 106.792 97.1444 108.924C97.1444 113.452 98.4334 117.037 101.012 119.68C103.591 122.323 107.203 123.644 111.848 123.644C113.879 123.644 115.676 123.38 117.24 122.851C118.803 122.323 120.101 121.657 121.134 120.856C122.167 120.054 122.94 119.217 123.452 118.346C123.964 117.473 124.22 116.712 124.22 116.059C124.22 115.32 123.991 114.747 123.531 114.342C123.072 113.937 122.472 113.734 121.73 113.734C121.041 113.734 120.511 113.892 120.14 114.209C119.24 115.055 118.507 115.725 117.941 116.218C117.376 116.712 116.758 117.174 116.087 117.605C115.416 118.037 114.722 118.354 114.008 118.557C113.292 118.759 112.502 118.86 111.636 118.86C110.347 118.86 109.168 118.544 108.099 117.91C107.031 117.275 106.174 116.333 105.529 115.081C104.885 113.831 104.554 112.386 104.536 110.748ZM117.66 106.651H104.536C104.783 104.22 105.485 102.384 106.642 101.141C107.799 99.899 109.278 99.278 111.08 99.278C112.969 99.278 114.493 99.8902 115.65 101.115C116.807 102.339 117.484 104.185 117.66 106.651ZM142.64 113.232V119.257C142.64 120.72 142.296 121.816 141.606 122.547C140.918 123.279 140.044 123.644 138.984 123.644C137.942 123.644 137.085 123.274 136.414 122.534C135.743 121.794 135.407 120.702 135.407 119.257V99.172C135.407 95.9304 136.582 94.3097 138.931 94.3097C140.132 94.3097 140.997 94.6885 141.527 95.4462C142.057 96.2032 142.348 97.3223 142.401 98.8019C143.267 97.3223 144.154 96.2032 145.064 95.4462C145.973 94.6885 147.215 93.8737 148.734 93.8737C150.253 93.8737 152.245 93.8869 153.676 94.6446C155.107 95.4024 155.638 97.1687 155.638 98.4194C155.638 99.3 155.255 100.437 154.646 101.009C154.036 101.581 153.08 101.638 152.374 101.638C152.198 101.638 151.83 101.511 151.307 101.331C151.039 101.239 150.73 101.133 150.387 101.022C149.372 100.696 148.556 100.52 147.779 100.52C146.72 100.52 145.855 100.798 145.183 101.352C144.512 101.907 143.991 102.731 143.62 103.824C143.249 104.916 142.993 106.215 142.852 107.721C142.711 109.228 142.64 111.064 142.64 113.232ZM203.322 99.2254V98.3528C203.322 97.0495 203 96.0496 202.355 95.3534C201.711 94.6578 200.876 94.3097 199.851 94.3097C198.809 94.3097 197.988 94.649 197.388 95.327C196.787 96.005 196.487 97.0319 196.487 98.4062V129.537C196.487 131.105 196.708 132.299 197.149 133.118C197.591 133.937 198.492 134.347 199.851 134.347C202.165 134.347 203.322 132.761 203.322 129.59V118.755C204.594 120.358 205.932 121.574 207.336 122.402C208.74 123.23 210.475 123.644 212.542 123.644C214.255 123.644 215.858 123.305 217.35 122.626C218.843 121.948 220.136 120.979 221.232 119.72C222.326 118.46 223.187 116.9 223.815 115.042C224.442 113.183 224.755 111.144 224.755 108.924C224.755 105.911 224.212 103.304 223.126 101.101C222.04 98.8992 220.56 97.2257 218.688 96.0804C216.816 94.935 214.767 94.3623 212.542 94.3623C210.687 94.3623 209.027 94.7544 207.561 95.5384C206.095 96.3225 204.682 97.5512 203.322 99.2254ZM217.496 108.845C217.496 106.942 217.204 105.308 216.621 103.942C216.039 102.577 215.231 101.529 214.197 100.798C213.164 100.066 212.02 99.7008 210.767 99.7008C208.771 99.7008 207.089 100.485 205.72 102.053C204.351 103.621 203.667 105.929 203.667 108.977C203.667 111.849 204.347 114.081 205.707 115.676C207.067 117.27 208.753 118.068 210.767 118.068C211.968 118.068 213.081 117.72 214.105 117.024C215.129 116.328 215.95 115.284 216.568 113.892C217.187 112.5 217.496 110.818 217.496 108.845Z" fill="white"/>
<path fill-rule="evenodd" clip-rule="evenodd" d="M186.829 95.067C186.341 94.5799 185.717 94.3363 184.957 94.3363C184.198 94.3363 183.583 94.5887 183.113 95.0941C182.643 95.5995 182.407 96.2307 182.407 96.9884V97.5069C182.368 97.4579 182.33 97.4097 182.291 97.3614C181.368 96.1985 180.591 95.2199 178.555 94.3363C176.435 93.4162 175.209 93.2305 173.292 93.2305C170.905 93.2305 168.066 93.9933 166.076 95.2564C164.087 96.5196 162.373 98.37 161.234 100.626C160.094 102.881 159.045 106.027 159.045 108.841C159.045 111.656 159.283 114.585 160.422 116.84C161.561 119.095 163.437 121.028 165.444 122.291C167.452 123.554 170.833 123.617 173.292 123.617C175.173 123.617 176.927 123.175 178.555 122.291C180.183 121.407 181.467 120.334 182.407 119.071V120.478C182.407 120.592 182.405 120.716 182.403 120.847C182.388 121.583 182.369 122.518 182.769 122.931C183.239 123.418 184.198 123.617 184.957 123.617C185.717 123.617 186.639 123.436 187.128 122.931C187.574 122.47 187.568 121.407 187.563 120.676C187.563 120.607 187.562 120.541 187.562 120.478V96.9884C187.562 96.1948 187.318 95.5541 186.829 95.067ZM178.419 118.287C177.1 119.153 175.589 119.586 173.889 119.586C172.189 119.586 170.679 119.153 169.358 118.287C168.039 117.421 167.008 116.23 166.266 114.714C165.524 113.199 165.153 111.485 165.153 109.573C165.153 107.66 165.524 105.947 166.266 104.431C167.008 102.916 168.039 101.725 169.358 100.859C170.679 99.993 172.189 99.56 173.889 99.56C175.589 99.56 177.1 100.002 178.419 100.886C179.74 101.77 180.771 102.97 181.512 104.485C182.254 106.001 182.624 107.697 182.624 109.573C182.624 111.485 182.254 113.199 181.512 114.714C180.771 116.23 179.74 117.421 178.419 118.287Z" fill="white"/>
</svg>
