<svg width="200" height="201" viewBox="0 0 200 201" fill="none" xmlns="http://www.w3.org/2000/svg">
<path d="M199 0.829102H1V200.334H199V0.829102Z" fill="#18479C" stroke="#979797"/>
<path d="M102.968 58.6852C113.035 60.398 136.593 65.3427 139.495 85.5735C142.397 105.804 132.385 108.62 110.095 100.792C103.468 98.4645 112.943 88.6897 110.095 81.1115C106.116 70.5208 94.357 71.8994 89.536 71.8994C84.715 71.8994 71.135 75.9603 73.768 94.606C76.401 113.251 109.102 117.91 118.511 130.085C127.92 142.261 120.706 158.961 115.697 163.141C110.688 167.321 104.176 168.879 96.189 169.41C81.193 170.408 64.392 161.607 61.164 151.803C57.935 141.998 64.331 137.28 76.659 134.499C88.986 131.719 73.768 157.185 96.189 159.839C118.611 162.495 118.511 136.76 97.268 127.883C82.562 121.738 72.74 116.655 68.185 113.806C63.631 110.957 53.83 101.165 59.959 79.5654C66.088 57.966 92.901 56.9735 102.968 58.6852Z" fill="white"/>
<path fill-rule="evenodd" clip-rule="evenodd" d="M99.5732 36.7402C119.455 36.7402 135.573 38.7505 135.573 41.2296C135.573 43.7087 119.455 45.7189 99.5732 45.7189C79.6912 45.7189 63.5732 43.7087 63.5732 41.2296C63.5732 38.7505 79.6912 36.7402 99.5732 36.7402Z" stroke="#FFBC04" stroke-width="4"/>
</svg>
