<svg width="502" height="440" viewBox="0 0 502 440" fill="none" xmlns="http://www.w3.org/2000/svg">
<rect width="502" height="440" fill="white"/>
<path d="M47.112 59.504C44.664 59.504 42.48 58.964 40.56 57.884C38.64 56.804 37.128 55.28 36.024 53.312C34.944 51.32 34.404 49.016 34.404 46.4C34.404 43.784 34.956 41.492 36.06 39.524C37.164 37.532 38.688 35.996 40.632 34.916C42.576 33.836 44.784 33.296 47.256 33.296C48.48 33.296 49.68 33.428 50.856 33.692C52.032 33.956 53.076 34.316 53.988 34.772L53.628 37.94C51.468 36.908 49.332 36.392 47.22 36.392C45.3 36.392 43.656 36.836 42.288 37.724C40.92 38.588 39.888 39.776 39.192 41.288C38.496 42.8 38.148 44.504 38.148 46.4C38.148 48.296 38.496 50 39.192 51.512C39.888 53.024 40.908 54.224 42.252 55.112C43.596 55.976 45.228 56.408 47.148 56.408C49.404 56.408 51.564 55.904 53.628 54.896L53.988 58.064C51.9 59.024 49.608 59.504 47.112 59.504ZM61.4836 59.36C59.8516 59.36 58.5316 58.88 57.5236 57.92C56.5396 56.96 56.0476 55.736 56.0476 54.248C56.0476 52.016 57.1036 50.42 59.2156 49.46C61.3276 48.5 63.7876 47.996 66.5956 47.948C66.5956 46.364 66.2836 45.296 65.6596 44.744C65.0596 44.168 64.0876 43.88 62.7436 43.88C61.9996 43.88 61.2556 44 60.5116 44.24C59.7676 44.456 58.9636 44.864 58.0996 45.464L57.6316 42.836C58.3516 42.284 59.2396 41.84 60.2956 41.504C61.3516 41.168 62.4556 41 63.6076 41C65.1196 41 66.3196 41.264 67.2076 41.792C68.1196 42.32 68.7796 43.196 69.1876 44.42C69.6196 45.644 69.8356 47.324 69.8356 49.46V53.06C69.8356 54.02 69.8716 54.752 69.9436 55.256C70.0396 55.736 70.2316 56.108 70.5196 56.372C70.8076 56.636 71.2516 56.768 71.8516 56.768H72.1756L71.6716 59.36H71.4196C70.4116 59.36 69.6196 59.264 69.0436 59.072C68.4676 58.88 68.0236 58.604 67.7116 58.244C67.4236 57.884 67.1476 57.392 66.8836 56.768C65.3956 58.496 63.5956 59.36 61.4836 59.36ZM62.0956 56.768C62.9596 56.768 63.7876 56.552 64.5796 56.12C65.3956 55.688 66.0676 55.112 66.5956 54.392V50.18C64.0036 50.276 62.1436 50.624 61.0156 51.224C59.9116 51.8 59.3596 52.748 59.3596 54.068C59.3596 54.98 59.5996 55.664 60.0796 56.12C60.5836 56.552 61.2556 56.768 62.0956 56.768ZM83.3525 41C84.9365 41 86.3285 41.42 87.5285 42.26C88.7525 43.1 89.6885 44.228 90.3365 45.644C90.9845 47.036 91.3085 48.548 91.3085 50.18C91.3085 51.86 90.9485 53.408 90.2285 54.824C89.5325 56.216 88.5725 57.32 87.3485 58.136C86.1485 58.952 84.8165 59.36 83.3525 59.36C82.2725 59.36 81.2285 59.144 80.2205 58.712C79.2125 58.256 78.4325 57.632 77.8805 56.84L77.5205 59H74.6405V32H77.8805V43.412C78.5285 42.668 79.3325 42.08 80.2925 41.648C81.2765 41.216 82.2965 41 83.3525 41ZM82.9565 56.48C84.4685 56.48 85.6805 55.88 86.5925 54.68C87.5285 53.456 87.9965 51.956 87.9965 50.18C87.9965 48.356 87.5285 46.856 86.5925 45.68C85.6805 44.48 84.4685 43.88 82.9565 43.88C81.4685 43.88 80.2205 44.432 79.2125 45.536C78.2045 46.616 77.7005 48.164 77.7005 50.18C77.7005 52.268 78.1925 53.84 79.1765 54.896C80.1845 55.952 81.4445 56.48 82.9565 56.48ZM94.6452 33.8H97.8852V37.4H94.6452V33.8ZM94.6452 41.36H97.8852V59H94.6452V41.36ZM110.986 41C115.786 41 118.186 43.76 118.186 49.28V59H114.946V49.28C114.946 47.384 114.586 46.016 113.866 45.176C113.17 44.312 111.994 43.88 110.338 43.88C109.282 43.88 108.322 44.072 107.458 44.456C106.594 44.84 105.946 45.416 105.514 46.184V59H102.274V41.36H104.794L105.154 43.232C106.09 42.392 107.026 41.816 107.962 41.504C108.922 41.168 109.93 41 110.986 41ZM131.153 33.8H139.325C142.061 33.8 144.197 34.436 145.733 35.708C147.269 36.956 148.037 38.876 148.037 41.468C148.037 44.828 146.573 47.192 143.645 48.56L149.297 59H145.121L140.009 49.172H139.829H134.753V59H131.153V33.8ZM139.289 46.112C140.969 46.112 142.253 45.704 143.141 44.888C144.029 44.072 144.473 42.932 144.473 41.468C144.473 40.004 144.029 38.876 143.141 38.084C142.277 37.268 140.993 36.86 139.289 36.86H134.753V46.112H139.289ZM159.953 59.36C157.937 59.36 156.209 58.952 154.769 58.136C153.353 57.296 152.273 56.168 151.529 54.752C150.785 53.336 150.413 51.764 150.413 50.036C150.413 48.38 150.749 46.868 151.421 45.5C152.117 44.108 153.113 43.016 154.409 42.224C155.729 41.408 157.277 41 159.053 41C161.309 41 163.133 41.66 164.525 42.98C165.941 44.3 166.649 46.124 166.649 48.452C166.649 49.052 166.601 49.628 166.505 50.18H153.725C153.941 52.46 154.637 54.08 155.813 55.04C156.989 56 158.501 56.48 160.349 56.48C162.197 56.48 163.889 56.132 165.425 55.436L165.857 57.992C163.817 58.904 161.849 59.36 159.953 59.36ZM163.301 47.948C163.301 46.676 162.941 45.68 162.221 44.96C161.501 44.24 160.421 43.88 158.981 43.88C157.589 43.88 156.497 44.228 155.705 44.924C154.913 45.596 154.349 46.604 154.013 47.948H163.301ZM177.043 68C174.547 68 172.519 67.544 170.959 66.632C169.423 65.72 168.655 64.424 168.655 62.744C168.655 60.896 169.675 59.516 171.715 58.604C170.563 58.028 169.987 57.284 169.987 56.372C169.987 55.22 170.683 54.368 172.075 53.816C171.091 53.216 170.335 52.4 169.807 51.368C169.279 50.336 169.015 49.172 169.015 47.876C169.015 46.58 169.303 45.416 169.879 44.384C170.479 43.328 171.319 42.5 172.399 41.9C173.503 41.3 174.799 41 176.287 41C177.871 41 179.311 41.456 180.607 42.368C181.879 41.648 183.343 41.288 184.999 41.288H185.287L184.891 43.448H184.063C183.847 43.448 183.535 43.472 183.127 43.52C182.719 43.568 182.359 43.628 182.047 43.7C182.551 44.276 182.935 44.924 183.199 45.644C183.463 46.364 183.595 47.108 183.595 47.876C183.595 49.22 183.295 50.432 182.695 51.512C182.119 52.568 181.279 53.408 180.175 54.032C179.071 54.632 177.775 54.932 176.287 54.932C175.423 54.932 174.631 54.824 173.911 54.608C173.359 54.8 173.083 55.112 173.083 55.544C173.083 56.12 173.743 56.504 175.063 56.696L179.779 57.452C181.747 57.764 183.235 58.328 184.243 59.144C185.251 59.96 185.755 61.088 185.755 62.528C185.755 64.328 184.975 65.684 183.415 66.596C181.879 67.532 179.755 68 177.043 68ZM176.287 52.34C177.631 52.34 178.663 51.944 179.383 51.152C180.127 50.336 180.499 49.256 180.499 47.912C180.499 46.616 180.127 45.572 179.383 44.78C178.663 43.988 177.631 43.592 176.287 43.592C174.943 43.592 173.911 43.988 173.191 44.78C172.471 45.572 172.111 46.616 172.111 47.912C172.111 49.256 172.471 50.336 173.191 51.152C173.911 51.944 174.943 52.34 176.287 52.34ZM177.331 65.12C178.987 65.12 180.259 64.904 181.147 64.472C182.035 64.04 182.479 63.416 182.479 62.6C182.479 61.976 182.203 61.472 181.651 61.088C181.123 60.728 180.319 60.44 179.239 60.224L174.199 59.36C173.479 59.696 172.891 60.104 172.435 60.584C171.979 61.088 171.751 61.64 171.751 62.24C171.751 63.224 172.243 63.944 173.227 64.4C174.211 64.88 175.579 65.12 177.331 65.12ZM202.316 41.36V59H199.436L199.076 57.056C198.5 57.848 197.816 58.436 197.024 58.82C196.256 59.18 195.308 59.36 194.18 59.36C192.068 59.36 190.448 58.724 189.32 57.452C188.216 56.156 187.664 54.212 187.664 51.62V41.36H190.904V50.72C190.904 52.64 191.228 54.08 191.876 55.04C192.548 56 193.592 56.48 195.008 56.48C195.848 56.48 196.628 56.312 197.348 55.976C198.092 55.64 198.668 55.148 199.076 54.5V41.36H202.316ZM211.259 59.36C209.675 59.36 208.511 58.952 207.767 58.136C207.047 57.32 206.687 56.312 206.687 55.112V32H209.927V53.24C209.927 54.296 209.987 55.064 210.107 55.544C210.251 56.024 210.515 56.348 210.899 56.516C211.283 56.684 211.907 56.768 212.771 56.768L212.303 59.36H211.259ZM219.335 59.36C217.703 59.36 216.383 58.88 215.375 57.92C214.391 56.96 213.899 55.736 213.899 54.248C213.899 52.016 214.955 50.42 217.067 49.46C219.179 48.5 221.639 47.996 224.447 47.948C224.447 46.364 224.135 45.296 223.511 44.744C222.911 44.168 221.939 43.88 220.595 43.88C219.851 43.88 219.107 44 218.363 44.24C217.619 44.456 216.815 44.864 215.951 45.464L215.483 42.836C216.203 42.284 217.091 41.84 218.147 41.504C219.203 41.168 220.307 41 221.459 41C222.971 41 224.171 41.264 225.059 41.792C225.971 42.32 226.631 43.196 227.039 44.42C227.471 45.644 227.687 47.324 227.687 49.46V53.06C227.687 54.02 227.723 54.752 227.795 55.256C227.891 55.736 228.083 56.108 228.371 56.372C228.659 56.636 229.103 56.768 229.703 56.768H230.027L229.523 59.36H229.271C228.263 59.36 227.471 59.264 226.895 59.072C226.319 58.88 225.875 58.604 225.563 58.244C225.275 57.884 224.999 57.392 224.735 56.768C223.247 58.496 221.447 59.36 219.335 59.36ZM219.947 56.768C220.811 56.768 221.639 56.552 222.431 56.12C223.247 55.688 223.919 55.112 224.447 54.392V50.18C221.855 50.276 219.995 50.624 218.867 51.224C217.763 51.8 217.211 52.748 217.211 54.068C217.211 54.98 217.451 55.664 217.931 56.12C218.435 56.552 219.107 56.768 219.947 56.768ZM232.528 41.36H235.192L235.588 44.276C236.5 43.148 237.364 42.32 238.18 41.792C239.02 41.264 239.896 41 240.808 41C241.096 41 241.372 41.036 241.636 41.108L241.312 44.672C241 44.6 240.64 44.564 240.232 44.564C239.344 44.564 238.504 44.768 237.712 45.176C236.92 45.56 236.344 46.016 235.984 46.544V59H232.528V41.36ZM48.912 152.196H39.264L36.852 159H33.252L42.288 133.8H45.888L54.924 159H51.324L48.912 152.196ZM47.832 149.1L44.088 138.588L40.344 149.1H47.832ZM61.4836 159.36C59.8516 159.36 58.5316 158.88 57.5236 157.92C56.5396 156.96 56.0476 155.736 56.0476 154.248C56.0476 152.016 57.1036 150.42 59.2156 149.46C61.3276 148.5 63.7876 147.996 66.5956 147.948C66.5956 146.364 66.2836 145.296 65.6596 144.744C65.0596 144.168 64.0876 143.88 62.7436 143.88C61.9996 143.88 61.2556 144 60.5116 144.24C59.7676 144.456 58.9636 144.864 58.0996 145.464L57.6316 142.836C58.3516 142.284 59.2396 141.84 60.2956 141.504C61.3516 141.168 62.4556 141 63.6076 141C65.1196 141 66.3196 141.264 67.2076 141.792C68.1196 142.32 68.7796 143.196 69.1876 144.42C69.6196 145.644 69.8356 147.324 69.8356 149.46V153.06C69.8356 154.02 69.8716 154.752 69.9436 155.256C70.0396 155.736 70.2316 156.108 70.5196 156.372C70.8076 156.636 71.2516 156.768 71.8516 156.768H72.1756L71.6716 159.36H71.4196C70.4116 159.36 69.6196 159.264 69.0436 159.072C68.4676 158.88 68.0236 158.604 67.7116 158.244C67.4236 157.884 67.1476 157.392 66.8836 156.768C65.3956 158.496 63.5956 159.36 61.4836 159.36ZM62.0956 156.768C62.9596 156.768 63.7876 156.552 64.5796 156.12C65.3956 155.688 66.0676 155.112 66.5956 154.392V150.18C64.0036 150.276 62.1436 150.624 61.0156 151.224C59.9116 151.8 59.3596 152.748 59.3596 154.068C59.3596 154.98 59.5996 155.664 60.0796 156.12C60.5836 156.552 61.2556 156.768 62.0956 156.768ZM96.0824 145.284C97.6664 145.668 98.8784 146.412 99.7184 147.516C100.558 148.596 100.978 150.024 100.978 151.8C100.978 154.032 100.258 155.796 98.8184 157.092C97.4024 158.364 95.4464 159 92.9504 159H83.4464V133.8H91.4024C93.7064 133.8 95.4824 134.316 96.7304 135.348C98.0024 136.38 98.6384 137.916 98.6384 139.956C98.6384 141.156 98.4224 142.224 97.9904 143.16C97.5584 144.096 96.9224 144.804 96.0824 145.284ZM86.8664 144.276H90.9704C92.3144 144.276 93.3344 144.012 94.0304 143.484C94.7504 142.932 95.1104 141.96 95.1104 140.568C95.1104 139.176 94.7504 138.216 94.0304 137.688C93.3344 137.136 92.3144 136.86 90.9704 136.86H86.8664V144.276ZM92.6624 155.904C94.0784 155.904 95.1944 155.556 96.0104 154.86C96.8264 154.14 97.2344 153.084 97.2344 151.692C97.2344 148.812 95.7104 147.372 92.6624 147.372H86.8664V155.904H92.6624ZM112.708 141C114.292 141 115.684 141.42 116.884 142.26C118.108 143.1 119.044 144.228 119.692 145.644C120.34 147.036 120.664 148.548 120.664 150.18C120.664 151.86 120.304 153.408 119.584 154.824C118.888 156.216 117.928 157.32 116.704 158.136C115.504 158.952 114.172 159.36 112.708 159.36C111.628 159.36 110.584 159.144 109.576 158.712C108.568 158.256 107.788 157.632 107.236 156.84L106.876 159H103.996V132H107.236V143.412C107.884 142.668 108.688 142.08 109.648 141.648C110.632 141.216 111.652 141 112.708 141ZM112.312 156.48C113.824 156.48 115.036 155.88 115.948 154.68C116.884 153.456 117.352 151.956 117.352 150.18C117.352 148.356 116.884 146.856 115.948 145.68C115.036 144.48 113.824 143.88 112.312 143.88C110.824 143.88 109.576 144.432 108.568 145.536C107.56 146.616 107.056 148.164 107.056 150.18C107.056 152.268 107.548 153.84 108.532 154.896C109.54 155.952 110.8 156.48 112.312 156.48ZM144.003 159.504C141.555 159.504 139.371 158.964 137.451 157.884C135.531 156.804 134.019 155.28 132.915 153.312C131.835 151.32 131.295 149.016 131.295 146.4C131.295 143.784 131.847 141.492 132.951 139.524C134.055 137.532 135.579 135.996 137.523 134.916C139.467 133.836 141.675 133.296 144.147 133.296C145.371 133.296 146.571 133.428 147.747 133.692C148.923 133.956 149.967 134.316 150.879 134.772L150.519 137.94C148.359 136.908 146.223 136.392 144.111 136.392C142.191 136.392 140.547 136.836 139.179 137.724C137.811 138.588 136.779 139.776 136.083 141.288C135.387 142.8 135.039 144.504 135.039 146.4C135.039 148.296 135.387 150 136.083 151.512C136.779 153.024 137.799 154.224 139.143 155.112C140.487 155.976 142.119 156.408 144.039 156.408C146.295 156.408 148.455 155.904 150.519 154.896L150.879 158.064C148.791 159.024 146.499 159.504 144.003 159.504ZM161.878 159.36C159.958 159.36 158.302 158.964 156.91 158.172C155.542 157.38 154.51 156.3 153.814 154.932C153.118 153.54 152.77 151.992 152.77 150.288C152.77 147.504 153.55 145.26 155.11 143.556C156.694 141.852 159.034 141 162.13 141C163.954 141 165.562 141.348 166.954 142.044L166.45 144.888C164.986 144.216 163.522 143.88 162.058 143.88C160.138 143.88 158.662 144.432 157.63 145.536C156.598 146.616 156.082 148.152 156.082 150.144C156.082 152.136 156.574 153.696 157.558 154.824C158.566 155.952 160.042 156.516 161.986 156.516C163.546 156.516 165.046 156.156 166.486 155.436L166.918 158.028C166.39 158.388 165.658 158.7 164.722 158.964C163.81 159.228 162.862 159.36 161.878 159.36ZM178.896 133.8H188.22C190.668 133.8 192.84 134.304 194.736 135.312C196.632 136.296 198.108 137.748 199.164 139.668C200.22 141.564 200.748 143.808 200.748 146.4C200.748 148.992 200.22 151.248 199.164 153.168C198.108 155.064 196.632 156.516 194.736 157.524C192.84 158.508 190.668 159 188.22 159H178.896V133.8ZM188.22 155.904C191.028 155.904 193.188 155.052 194.7 153.348C196.236 151.62 197.004 149.304 197.004 146.4C197.004 143.496 196.236 141.192 194.7 139.488C193.188 137.76 191.028 136.896 188.22 136.896H182.316V155.904H188.22ZM219.781 132V159H216.901L216.541 156.84C215.941 157.656 215.161 158.28 214.201 158.712C213.241 159.144 212.221 159.36 211.141 159.36C209.653 159.36 208.297 158.952 207.073 158.136C205.849 157.32 204.877 156.216 204.157 154.824C203.461 153.432 203.113 151.896 203.113 150.216C203.113 148.584 203.437 147.06 204.085 145.644C204.757 144.228 205.705 143.1 206.929 142.26C208.153 141.42 209.557 141 211.141 141C212.197 141 213.193 141.192 214.129 141.576C215.065 141.96 215.869 142.548 216.541 143.34V132H219.781ZM211.717 156.48C212.581 156.48 213.409 156.264 214.201 155.832C214.993 155.376 215.641 154.68 216.145 153.744C216.649 152.808 216.901 151.632 216.901 150.216C216.901 148.896 216.649 147.756 216.145 146.796C215.641 145.836 214.981 145.116 214.165 144.636C213.373 144.132 212.557 143.88 211.717 143.88C210.085 143.88 208.789 144.48 207.829 145.68C206.893 146.856 206.425 148.368 206.425 150.216C206.425 151.992 206.905 153.48 207.865 154.68C208.825 155.88 210.109 156.48 211.717 156.48ZM232.896 133.8H248.268V136.896H236.316V144.276H245.82V147.372H236.316V155.904H248.592V159H232.896V133.8ZM260.043 159.36C258.027 159.36 256.299 158.952 254.859 158.136C253.443 157.296 252.363 156.168 251.619 154.752C250.875 153.336 250.503 151.764 250.503 150.036C250.503 148.38 250.839 146.868 251.511 145.5C252.207 144.108 253.203 143.016 254.499 142.224C255.819 141.408 257.367 141 259.143 141C261.399 141 263.223 141.66 264.615 142.98C266.031 144.3 266.739 146.124 266.739 148.452C266.739 149.052 266.691 149.628 266.595 150.18H253.815C254.031 152.46 254.727 154.08 255.903 155.04C257.079 156 258.591 156.48 260.439 156.48C262.287 156.48 263.979 156.132 265.515 155.436L265.947 157.992C263.907 158.904 261.939 159.36 260.043 159.36ZM263.391 147.948C263.391 146.676 263.031 145.68 262.311 144.96C261.591 144.24 260.511 143.88 259.071 143.88C257.679 143.88 256.587 144.228 255.795 144.924C255.003 145.596 254.439 146.604 254.103 147.948H263.391ZM278.775 133.8H294.147V136.896H282.195V144.276H291.411V147.372H282.195V159H278.775V133.8ZM297.736 143.88H294.676L295.108 141.36H297.736V137.184C297.736 135.576 298.156 134.316 298.996 133.404C299.86 132.468 301.096 132 302.704 132C303.76 132 304.696 132.156 305.512 132.468L305.008 135.204C304.432 134.988 303.832 134.88 303.208 134.88C301.72 134.88 300.976 135.72 300.976 137.4V141.36H305.728V143.88H300.976V159H297.736V143.88ZM328.072 159.504C325.744 159.504 323.644 158.964 321.772 157.884C319.9 156.804 318.424 155.268 317.344 153.276C316.264 151.284 315.724 148.98 315.724 146.364C315.724 143.748 316.276 141.456 317.38 139.488C318.508 137.52 320.056 135.996 322.024 134.916C323.992 133.836 326.236 133.296 328.756 133.296C330.028 133.296 331.276 133.428 332.5 133.692C333.748 133.956 334.864 134.304 335.848 134.736L335.524 137.724C333.196 136.836 330.976 136.392 328.864 136.392C326.776 136.392 325.024 136.836 323.608 137.724C322.216 138.588 321.172 139.776 320.476 141.288C319.804 142.776 319.468 144.48 319.468 146.4C319.468 149.424 320.272 151.848 321.88 153.672C323.512 155.496 325.9 156.408 329.044 156.408C329.716 156.408 330.436 156.36 331.204 156.264C331.972 156.144 332.656 155.964 333.256 155.724V149.46H329.296V146.364H336.676V157.596C335.62 158.172 334.348 158.64 332.86 159C331.396 159.336 329.8 159.504 328.072 159.504ZM347.621 168C345.125 168 343.097 167.544 341.537 166.632C340.001 165.72 339.233 164.424 339.233 162.744C339.233 160.896 340.253 159.516 342.293 158.604C341.141 158.028 340.565 157.284 340.565 156.372C340.565 155.22 341.261 154.368 342.653 153.816C341.669 153.216 340.913 152.4 340.385 151.368C339.857 150.336 339.593 149.172 339.593 147.876C339.593 146.58 339.881 145.416 340.457 144.384C341.057 143.328 341.897 142.5 342.977 141.9C344.081 141.3 345.377 141 346.865 141C348.449 141 349.889 141.456 351.185 142.368C352.457 141.648 353.921 141.288 355.577 141.288H355.865L355.469 143.448H354.641C354.425 143.448 354.113 143.472 353.705 143.52C353.297 143.568 352.937 143.628 352.625 143.7C353.129 144.276 353.513 144.924 353.777 145.644C354.041 146.364 354.173 147.108 354.173 147.876C354.173 149.22 353.873 150.432 353.273 151.512C352.697 152.568 351.857 153.408 350.753 154.032C349.649 154.632 348.353 154.932 346.865 154.932C346.001 154.932 345.209 154.824 344.489 154.608C343.937 154.8 343.661 155.112 343.661 155.544C343.661 156.12 344.321 156.504 345.641 156.696L350.357 157.452C352.325 157.764 353.813 158.328 354.821 159.144C355.829 159.96 356.333 161.088 356.333 162.528C356.333 164.328 355.553 165.684 353.993 166.596C352.457 167.532 350.333 168 347.621 168ZM346.865 152.34C348.209 152.34 349.241 151.944 349.961 151.152C350.705 150.336 351.077 149.256 351.077 147.912C351.077 146.616 350.705 145.572 349.961 144.78C349.241 143.988 348.209 143.592 346.865 143.592C345.521 143.592 344.489 143.988 343.769 144.78C343.049 145.572 342.689 146.616 342.689 147.912C342.689 149.256 343.049 150.336 343.769 151.152C344.489 151.944 345.521 152.34 346.865 152.34ZM347.909 165.12C349.565 165.12 350.837 164.904 351.725 164.472C352.613 164.04 353.057 163.416 353.057 162.6C353.057 161.976 352.781 161.472 352.229 161.088C351.701 160.728 350.897 160.44 349.817 160.224L344.777 159.36C344.057 159.696 343.469 160.104 343.013 160.584C342.557 161.088 342.329 161.64 342.329 162.24C342.329 163.224 342.821 163.944 343.805 164.4C344.789 164.88 346.157 165.12 347.909 165.12ZM367.193 133.8H370.613V144.204H383.429V133.8H386.849V159H383.429V147.444H370.613V159H367.193V133.8ZM400.034 141C402.266 141 403.97 141.732 405.146 143.196C406.322 144.66 406.91 146.652 406.91 149.172V159H403.67V149.568C403.67 147.624 403.31 146.196 402.59 145.284C401.894 144.348 400.802 143.88 399.314 143.88C398.402 143.88 397.562 144.096 396.794 144.528C396.026 144.936 395.378 145.524 394.85 146.292V159H391.574V132H394.85V143.052C395.546 142.38 396.302 141.876 397.118 141.54C397.958 141.18 398.93 141 400.034 141ZM419.892 133.8H423.312V159H419.892V133.8ZM428.067 133.8H431.307V137.4H428.067V133.8ZM428.067 141.36H431.307V159H428.067V141.36ZM440.866 162.24C442.162 162.24 443.086 161.964 443.638 161.412C444.19 160.86 444.466 159.96 444.466 158.712V133.8H447.886V159.504C447.886 161.472 447.418 162.912 446.482 163.824C445.57 164.736 444.166 165.192 442.27 165.192H441.334L440.866 162.24ZM452.641 133.8H455.881V137.4H452.641V133.8ZM450.013 165.228C450.757 165.156 451.309 165.012 451.669 164.796C452.029 164.604 452.281 164.268 452.425 163.788C452.569 163.308 452.641 162.588 452.641 161.628V141.36H455.881V162.852C455.881 164.364 455.437 165.468 454.549 166.164C453.685 166.884 452.653 167.34 451.453 167.532L450.373 167.712L450.013 165.228ZM35.88 183.8H39.3V209H35.88V183.8ZM39.66 195.644L48.984 183.8H53.124L43.548 195.572L53.232 209H48.984L39.66 195.644ZM55.5506 182H58.7906V199.316L65.2706 191.36H69.2306L62.2106 199.568L69.4106 209H65.4506L58.7906 200.036V209H55.5506V182ZM80.4933 183.8H83.9133V205.904H95.4693V209H80.4933V183.8ZM102.38 209.36C100.796 209.36 99.6324 208.952 98.8884 208.136C98.1684 207.32 97.8084 206.312 97.8084 205.112V182H101.048V203.24C101.048 204.296 101.108 205.064 101.228 205.544C101.372 206.024 101.636 206.348 102.02 206.516C102.404 206.684 103.028 206.768 103.892 206.768L103.424 209.36H102.38ZM136.146 209L133.77 189.956L126.93 203.024L119.946 189.92L117.57 209H113.97L117.354 183.8H120.27L126.894 196.292L133.446 183.8H136.398L139.746 209H136.146ZM163.893 191C168.405 191 170.661 193.532 170.661 198.596V209H167.421V198.632C167.421 196.976 167.097 195.776 166.449 195.032C165.801 194.264 164.745 193.88 163.281 193.88C160.161 193.88 158.601 195.512 158.601 198.776V209H155.361V199.28C155.361 197.264 155.001 195.86 154.281 195.068C153.585 194.276 152.565 193.88 151.221 193.88C150.165 193.88 149.229 194.072 148.413 194.456C147.597 194.84 146.973 195.416 146.541 196.184V209H143.301V191.36H145.821L146.181 193.232C147.069 192.44 147.957 191.876 148.845 191.54C149.757 191.18 150.729 191 151.761 191C154.449 191 156.345 192.176 157.449 194.528C158.673 192.176 160.821 191 163.893 191ZM183.642 183.8H187.35L199.77 202.664V183.8H203.226V209H200.31L187.062 189.092V209H183.642V183.8ZM216.701 191C221.501 191 223.901 193.76 223.901 199.28V209H220.661V199.28C220.661 197.384 220.301 196.016 219.581 195.176C218.885 194.312 217.709 193.88 216.053 193.88C214.997 193.88 214.037 194.072 213.173 194.456C212.309 194.84 211.661 195.416 211.229 196.184V209H207.989V191.36H210.509L210.869 193.232C211.805 192.392 212.741 191.816 213.677 191.504C214.637 191.168 215.645 191 216.701 191ZM247.848 209.504C245.448 209.504 243.3 208.964 241.404 207.884C239.532 206.804 238.068 205.28 237.012 203.312C235.956 201.32 235.428 199.016 235.428 196.4C235.428 193.784 235.956 191.492 237.012 189.524C238.068 187.532 239.532 185.996 241.404 184.916C243.3 183.836 245.448 183.296 247.848 183.296C250.248 183.296 252.384 183.836 254.256 184.916C256.152 185.996 257.628 187.532 258.684 189.524C259.74 191.492 260.268 193.784 260.268 196.4C260.268 199.016 259.74 201.32 258.684 203.312C257.628 205.28 256.152 206.804 254.256 207.884C252.384 208.964 250.248 209.504 247.848 209.504ZM247.848 206.192C249.72 206.192 251.316 205.772 252.636 204.932C253.956 204.068 254.94 202.904 255.588 201.44C256.26 199.952 256.596 198.272 256.596 196.4C256.596 194.528 256.26 192.86 255.588 191.396C254.94 189.908 253.956 188.744 252.636 187.904C251.316 187.04 249.72 186.608 247.848 186.608C245.976 186.608 244.38 187.04 243.06 187.904C241.74 188.744 240.744 189.908 240.072 191.396C239.424 192.86 239.1 194.528 239.1 196.4C239.1 198.272 239.424 199.952 240.072 201.44C240.744 202.904 241.74 204.068 243.06 204.932C244.38 205.772 245.976 206.192 247.848 206.192ZM271.38 209.36C269.58 209.36 268.02 208.964 266.7 208.172C265.38 207.356 264.372 206.252 263.676 204.86C262.98 203.468 262.632 201.908 262.632 200.18C262.632 198.452 262.98 196.892 263.676 195.5C264.372 194.108 265.38 193.016 266.7 192.224C268.02 191.408 269.58 191 271.38 191C273.156 191 274.704 191.408 276.024 192.224C277.368 193.016 278.388 194.108 279.084 195.5C279.78 196.892 280.128 198.452 280.128 200.18C280.128 201.908 279.78 203.468 279.084 204.86C278.388 206.252 277.368 207.356 276.024 208.172C274.704 208.964 273.156 209.36 271.38 209.36ZM271.38 206.48C273.108 206.48 274.44 205.928 275.376 204.824C276.336 203.72 276.816 202.172 276.816 200.18C276.816 198.188 276.336 196.64 275.376 195.536C274.44 194.432 273.108 193.88 271.38 193.88C269.652 193.88 268.308 194.432 267.348 195.536C266.412 196.64 265.944 198.188 265.944 200.18C265.944 202.172 266.412 203.72 267.348 204.824C268.308 205.928 269.652 206.48 271.38 206.48ZM292.239 183.8H300.555C303.243 183.8 305.331 184.46 306.819 185.78C308.331 187.076 309.087 189.14 309.087 191.972C309.087 194.756 308.331 196.82 306.819 198.164C305.307 199.508 303.219 200.18 300.555 200.18H295.839V209H292.239V183.8ZM300.051 197.12C301.899 197.12 303.279 196.7 304.191 195.86C305.103 195.02 305.559 193.736 305.559 192.008C305.559 190.256 305.115 188.96 304.227 188.12C303.363 187.28 301.971 186.86 300.051 186.86H295.839V197.12H300.051ZM320.84 191C322.4 191 323.756 191.408 324.908 192.224C326.084 193.016 326.984 194.108 327.608 195.5C328.232 196.892 328.544 198.452 328.544 200.18C328.544 201.932 328.244 203.504 327.644 204.896C327.068 206.264 326.204 207.356 325.052 208.172C323.9 208.964 322.496 209.36 320.84 209.36C319.616 209.36 318.5 209.144 317.492 208.712C316.484 208.28 315.692 207.656 315.116 206.84V217.712H311.876V191.36H314.396L314.756 193.808C316.244 191.936 318.272 191 320.84 191ZM320.228 206.48C321.788 206.48 323.012 205.928 323.9 204.824C324.788 203.696 325.232 202.148 325.232 200.18C325.232 198.212 324.788 196.676 323.9 195.572C323.012 194.444 321.788 193.88 320.228 193.88C318.692 193.88 317.42 194.42 316.412 195.5C315.428 196.58 314.936 198.14 314.936 200.18C314.936 202.292 315.428 203.876 316.412 204.932C317.396 205.964 318.668 206.48 320.228 206.48ZM364.085 196.4C364.085 198.176 363.833 199.82 363.329 201.332C362.849 202.82 362.141 204.116 361.205 205.22L363.545 207.524L361.601 209.504L359.189 207.164C357.101 208.724 354.593 209.504 351.665 209.504C349.265 209.504 347.117 208.964 345.221 207.884C343.349 206.804 341.885 205.28 340.829 203.312C339.773 201.32 339.245 199.016 339.245 196.4C339.245 193.784 339.773 191.492 340.829 189.524C341.885 187.532 343.349 185.996 345.221 184.916C347.117 183.836 349.265 183.296 351.665 183.296C354.065 183.296 356.201 183.836 358.073 184.916C359.969 185.996 361.445 187.532 362.501 189.524C363.557 191.492 364.085 193.784 364.085 196.4ZM351.665 206.192C353.657 206.192 355.349 205.7 356.741 204.716L353.681 201.728L355.625 199.748L358.685 202.736C359.837 201.032 360.413 198.92 360.413 196.4C360.413 194.528 360.077 192.86 359.405 191.396C358.757 189.908 357.773 188.744 356.453 187.904C355.133 187.04 353.537 186.608 351.665 186.608C349.793 186.608 348.197 187.04 346.877 187.904C345.557 188.744 344.561 189.908 343.889 191.396C343.241 192.86 342.917 194.528 342.917 196.4C342.917 198.272 343.241 199.952 343.889 201.44C344.561 202.904 345.557 204.068 346.877 204.932C348.197 205.772 349.793 206.192 351.665 206.192ZM383.153 191.36V217.712H379.913V206.876C379.337 207.692 378.569 208.316 377.609 208.748C376.649 209.156 375.569 209.36 374.369 209.36C372.689 209.36 371.249 208.964 370.049 208.172C368.873 207.356 367.985 206.264 367.385 204.896C366.785 203.504 366.485 201.932 366.485 200.18C366.485 198.548 366.797 197.036 367.421 195.644C368.069 194.228 368.981 193.1 370.157 192.26C371.357 191.42 372.749 191 374.333 191C375.701 191 376.853 191.228 377.789 191.684C378.725 192.14 379.553 192.836 380.273 193.772L380.633 191.36H383.153ZM374.801 206.48C376.361 206.48 377.633 205.964 378.617 204.932C379.601 203.876 380.093 202.292 380.093 200.18C380.093 198.14 379.589 196.58 378.581 195.5C377.597 194.42 376.337 193.88 374.801 193.88C373.241 193.88 372.017 194.444 371.129 195.572C370.241 196.676 369.797 198.212 369.797 200.18C369.797 202.148 370.241 203.696 371.129 204.824C372.017 205.928 373.241 206.48 374.801 206.48ZM396.302 183.8H404.474C407.21 183.8 409.346 184.436 410.882 185.708C412.418 186.956 413.186 188.876 413.186 191.468C413.186 194.828 411.722 197.192 408.794 198.56L414.446 209H410.27L405.158 199.172H404.978H399.902V209H396.302V183.8ZM404.438 196.112C406.118 196.112 407.402 195.704 408.29 194.888C409.178 194.072 409.622 192.932 409.622 191.468C409.622 190.004 409.178 188.876 408.29 188.084C407.426 187.268 406.142 186.86 404.438 186.86H399.902V196.112H404.438ZM417.028 191.36H419.692L420.088 194.276C421 193.148 421.864 192.32 422.68 191.792C423.52 191.264 424.396 191 425.308 191C425.596 191 425.872 191.036 426.136 191.108L425.812 194.672C425.5 194.6 425.14 194.564 424.732 194.564C423.844 194.564 423.004 194.768 422.212 195.176C421.42 195.56 420.844 196.016 420.484 196.544V209H417.028V191.36ZM444.389 209.504C442.901 209.504 441.389 209.336 439.853 209C438.317 208.688 437.081 208.316 436.145 207.884L436.613 204.248C437.813 204.824 439.169 205.328 440.681 205.76C442.193 206.192 443.693 206.408 445.181 206.408C446.861 206.408 448.157 206.108 449.069 205.508C450.005 204.884 450.473 203.96 450.473 202.736C450.473 201.824 450.233 201.068 449.753 200.468C449.297 199.844 448.613 199.328 447.701 198.92C446.813 198.488 445.565 198.032 443.957 197.552C442.325 197.072 440.969 196.556 439.889 196.004C438.809 195.452 437.933 194.696 437.261 193.736C436.613 192.776 436.289 191.564 436.289 190.1C436.289 188.06 437.069 186.416 438.629 185.168C440.213 183.92 442.433 183.296 445.289 183.296C446.825 183.296 448.277 183.464 449.645 183.8C451.037 184.136 452.249 184.544 453.281 185.024L452.921 188.66C451.577 187.868 450.281 187.292 449.033 186.932C447.785 186.572 446.489 186.392 445.145 186.392C443.585 186.392 442.337 186.68 441.401 187.256C440.489 187.832 440.033 188.72 440.033 189.92C440.033 190.736 440.237 191.408 440.645 191.936C441.077 192.464 441.689 192.92 442.481 193.304C443.273 193.664 444.377 194.06 445.793 194.492C448.625 195.356 450.737 196.388 452.129 197.588C453.521 198.764 454.217 200.396 454.217 202.484C454.217 204.692 453.389 206.42 451.733 207.668C450.077 208.892 447.629 209.504 444.389 209.504ZM462.356 209.36C460.964 209.36 459.74 209.204 458.684 208.892C457.652 208.556 456.86 208.196 456.308 207.812L456.704 204.68C457.184 205.112 457.916 205.52 458.9 205.904C459.908 206.288 461.012 206.48 462.212 206.48C463.34 206.48 464.204 206.288 464.804 205.904C465.428 205.52 465.74 204.98 465.74 204.284C465.74 203.468 465.404 202.856 464.732 202.448C464.06 202.016 463.22 201.656 462.212 201.368C461.108 201.08 460.172 200.78 459.404 200.468C458.66 200.132 458.012 199.628 457.46 198.956C456.932 198.284 456.668 197.396 456.668 196.292C456.668 194.78 457.208 193.52 458.288 192.512C459.368 191.504 461.036 191 463.292 191C464.324 191 465.2 191.108 465.92 191.324C466.64 191.516 467.36 191.792 468.08 192.152L467.684 195.104C467.108 194.624 466.472 194.252 465.776 193.988C465.08 193.7 464.276 193.556 463.364 193.556C462.308 193.556 461.468 193.76 460.844 194.168C460.244 194.552 459.944 195.14 459.944 195.932C459.944 196.46 460.088 196.892 460.376 197.228C460.664 197.54 461.072 197.804 461.6 198.02C462.128 198.236 462.944 198.512 464.048 198.848C465.416 199.256 466.592 199.832 467.576 200.576C468.584 201.32 469.088 202.496 469.088 204.104C469.088 205.544 468.572 206.78 467.54 207.812C466.532 208.844 464.804 209.36 462.356 209.36ZM40.884 236.896H33.54V233.8H51.648V236.896H44.304V259H40.884V236.896ZM59.5261 259.36C57.9661 259.36 56.8021 258.952 56.0341 258.136C55.2901 257.32 54.9181 256.324 54.9181 255.148V243.88H51.8941L52.1821 241.36H54.9181V237.004L58.1581 236.68V241.36H62.8021V243.88H58.1581V253.168C58.1581 254.392 58.2301 255.232 58.3741 255.688C58.5181 256.144 58.8181 256.444 59.2741 256.588C59.7541 256.708 60.6181 256.768 61.8661 256.768H62.6941L62.4421 259.36H59.5261ZM84.4929 259.504C81.0129 259.504 78.3969 258.532 76.6449 256.588C74.9169 254.62 74.0529 251.86 74.0529 248.308V233.8H77.4729V247.372C77.4729 250.132 77.9649 252.328 78.9489 253.96C79.9329 255.592 81.7809 256.408 84.4929 256.408C87.2049 256.408 89.0529 255.592 90.0369 253.96C91.0209 252.304 91.5129 250.108 91.5129 247.372V233.8H94.9329V248.308C94.9329 251.86 94.0569 254.62 92.3049 256.588C90.5769 258.532 87.9729 259.504 84.4929 259.504ZM113.688 241.36V259H110.808L110.448 257.056C109.872 257.848 109.188 258.436 108.396 258.82C107.628 259.18 106.68 259.36 105.552 259.36C103.44 259.36 101.82 258.724 100.692 257.452C99.5875 256.156 99.0355 254.212 99.0355 251.62V241.36H102.276V250.72C102.276 252.64 102.6 254.08 103.248 255.04C103.92 256 104.964 256.48 106.38 256.48C107.22 256.48 108 256.312 108.72 255.976C109.464 255.64 110.04 255.148 110.448 254.5V241.36H113.688ZM145.8 233.8L136.764 259H133.164L124.128 233.8H127.728L134.964 254.212L142.2 233.8H145.8ZM145.789 241.36H149.389L154.321 255.436L159.217 241.36H162.853L156.157 259H152.521L145.789 241.36ZM171.414 233.8H175.014L180.342 254.572L186.498 234.304H190.098L196.254 254.572L201.582 233.8H205.182L198.054 259H194.418L188.298 238.732L182.178 259H178.542L171.414 233.8ZM205.452 241.36H209.268L212.652 255.436L216.396 241.9H219.744L223.524 255.436L226.908 241.36H230.724L225.396 259H221.76L218.088 245.968L214.38 259H210.744L205.452 241.36ZM247.903 246.292L239.479 233.8H243.439L249.883 243.34L256.291 233.8H260.251L251.863 246.292L260.395 259H256.435L249.883 249.244L243.295 259H239.335L247.903 246.292ZM267.083 250.216L261.071 241.36H264.707L269.135 248.344L273.203 241.36H276.983L271.187 249.928L277.199 259H273.563L269.099 252.052L264.563 259H260.927L267.083 250.216ZM306.44 233.8L297.584 248.092V259H294.164V248.092L285.272 233.8H289.16L295.856 244.744L302.552 233.8H306.44ZM312.284 258.208L304.94 241.36H308.54L314.048 254.464L319.016 241.36H322.616L311.816 267.712H308.216L312.284 258.208ZM336.745 255.904H350.281V259H331.273L344.917 236.896H332.893V233.8H350.461L336.745 255.904ZM356.654 256.156H366.302V259H351.218L361.046 244.204H351.794V241.36H366.482L356.654 256.156ZM45.564 359.504C43.38 359.504 41.484 358.94 39.876 357.812C38.292 356.684 37.068 355.112 36.204 353.096C35.364 351.08 34.944 348.776 34.944 346.184C34.944 343.616 35.388 341.36 36.276 339.416C37.188 337.472 38.448 335.972 40.056 334.916C41.664 333.836 43.5 333.296 45.564 333.296C47.676 333.296 49.536 333.836 51.144 334.916C52.752 335.972 53.988 337.472 54.852 339.416C55.74 341.36 56.184 343.616 56.184 346.184C56.184 348.776 55.764 351.08 54.924 353.096C54.084 355.112 52.86 356.684 51.252 357.812C49.644 358.94 47.748 359.504 45.564 359.504ZM45.564 356.408C47.796 356.408 49.512 355.52 50.712 353.744C51.936 351.968 52.548 349.448 52.548 346.184C52.548 342.968 51.924 340.532 50.676 338.876C49.452 337.22 47.748 336.392 45.564 336.392C43.476 336.392 41.784 337.232 40.488 338.912C39.216 340.592 38.58 343.016 38.58 346.184C38.58 349.448 39.18 351.968 40.38 353.744C41.604 355.52 43.332 356.408 45.564 356.408ZM71.7667 338.732C70.9747 339.38 70.2907 339.86 69.7147 340.172C69.1627 340.484 68.5987 340.736 68.0227 340.928L67.4467 337.724C68.4547 337.388 69.4507 336.86 70.4347 336.14C71.4427 335.396 72.2107 334.616 72.7387 333.8H75.0787V359H71.7667V338.732ZM94.9788 348.524C96.2268 346.652 97.1388 345.104 97.7148 343.88C98.2908 342.656 98.5788 341.54 98.5788 340.532C98.5788 339.284 98.2188 338.3 97.4988 337.58C96.8028 336.836 95.8548 336.464 94.6548 336.464C92.4228 336.464 90.3828 337.412 88.5348 339.308L88.1028 335.708C89.0148 334.988 90.0588 334.4 91.2348 333.944C92.4108 333.488 93.6708 333.26 95.0148 333.26C97.2468 333.26 98.9748 333.908 100.199 335.204C101.423 336.5 102.035 338.156 102.035 340.172C102.035 341.756 101.723 343.256 101.099 344.672C100.499 346.088 99.4668 347.9 98.0028 350.108L94.1868 355.868H103.007V358.964H88.1028L94.9788 348.524ZM125.688 345.824C128.784 346.832 130.332 348.92 130.332 352.088C130.332 353.6 129.948 354.92 129.18 356.048C128.436 357.152 127.404 358.004 126.084 358.604C124.788 359.204 123.312 359.504 121.656 359.504C119.184 359.504 116.784 358.868 114.456 357.596L115.284 354.428C116.412 355.076 117.468 355.568 118.452 355.904C119.46 356.24 120.54 356.408 121.692 356.408C123.228 356.408 124.44 356.024 125.328 355.256C126.24 354.488 126.696 353.468 126.696 352.196C126.696 350.756 126.192 349.628 125.184 348.812C124.2 347.996 122.724 347.588 120.756 347.588H119.172V344.492H120.756C122.316 344.492 123.54 344.132 124.428 343.412C125.34 342.668 125.796 341.66 125.796 340.388C125.796 339.044 125.448 338.048 124.752 337.4C124.08 336.728 123.084 336.392 121.764 336.392C120.804 336.392 119.892 336.572 119.028 336.932C118.164 337.292 117.252 337.796 116.292 338.444L115.716 334.952C117.66 333.848 119.832 333.296 122.232 333.296C124.536 333.296 126.324 333.908 127.596 335.132C128.892 336.356 129.54 337.964 129.54 339.956C129.54 341.324 129.204 342.524 128.532 343.556C127.86 344.564 126.912 345.32 125.688 345.824ZM160.414 349.568V352.484H157.174V359H153.718V352.484H141.298L154.69 333.8H157.174V349.568H160.414ZM153.718 349.568V340.172L147.022 349.568H153.718ZM178.837 343.088C180.589 343.088 182.101 343.436 183.373 344.132C184.645 344.828 185.617 345.788 186.289 347.012C186.961 348.236 187.297 349.628 187.297 351.188C187.297 352.868 186.901 354.332 186.109 355.58C185.341 356.828 184.273 357.8 182.905 358.496C181.561 359.168 180.037 359.504 178.333 359.504C177.037 359.504 175.765 359.336 174.517 359C173.293 358.664 172.225 358.196 171.313 357.596L172.141 354.428C173.173 355.004 174.157 355.448 175.093 355.76C176.029 356.048 177.049 356.192 178.153 356.192C179.761 356.192 181.057 355.736 182.041 354.824C183.049 353.912 183.553 352.7 183.553 351.188C183.553 349.508 183.025 348.212 181.969 347.3C180.913 346.364 179.497 345.896 177.721 345.896C176.209 345.896 174.517 346.136 172.645 346.616L174.193 333.8H186.073L185.929 337.04H177.001L176.245 343.268C177.157 343.148 178.021 343.088 178.837 343.088ZM208.451 343.88C209.891 343.88 211.175 344.216 212.303 344.888C213.455 345.536 214.343 346.448 214.967 347.624C215.615 348.776 215.939 350.072 215.939 351.512C215.939 353.048 215.591 354.428 214.895 355.652C214.199 356.852 213.227 357.8 211.979 358.496C210.731 359.168 209.291 359.504 207.659 359.504C205.043 359.504 202.991 358.652 201.503 356.948C200.015 355.244 199.271 352.976 199.271 350.144C199.271 347.648 199.811 345.296 200.891 343.088C201.971 340.856 203.351 338.912 205.031 337.256C206.735 335.6 208.535 334.28 210.431 333.296L212.771 335.492C210.611 336.572 208.691 337.976 207.011 339.704C205.355 341.408 204.167 343.304 203.447 345.392C204.791 344.384 206.459 343.88 208.451 343.88ZM207.659 356.552C209.075 356.552 210.215 356.084 211.079 355.148C211.967 354.212 212.411 353.036 212.411 351.62C212.411 350.252 211.967 349.112 211.079 348.2C210.215 347.288 209.075 346.832 207.659 346.832C206.243 346.832 205.091 347.288 204.203 348.2C203.315 349.112 202.871 350.264 202.871 351.656C202.871 353.096 203.303 354.272 204.167 355.184C205.055 356.096 206.219 356.552 207.659 356.552ZM243.334 333.8L232.426 359H228.826L238.294 337.04H227.026V333.8H243.334ZM267.653 345.212C268.853 345.86 269.777 346.76 270.425 347.912C271.097 349.04 271.433 350.336 271.433 351.8C271.433 353.312 271.073 354.656 270.353 355.832C269.633 356.984 268.613 357.884 267.293 358.532C265.973 359.18 264.437 359.504 262.685 359.504C260.909 359.504 259.361 359.18 258.041 358.532C256.721 357.884 255.701 356.984 254.981 355.832C254.285 354.656 253.937 353.312 253.937 351.8C253.937 350.336 254.273 349.028 254.945 347.876C255.617 346.724 256.553 345.824 257.753 345.176C256.913 344.576 256.253 343.844 255.773 342.98C255.317 342.092 255.089 341.132 255.089 340.1C255.089 338.924 255.353 337.82 255.881 336.788C256.433 335.756 257.273 334.916 258.401 334.268C259.553 333.62 260.981 333.296 262.685 333.296C264.389 333.296 265.793 333.62 266.897 334.268C268.025 334.916 268.841 335.756 269.345 336.788C269.873 337.82 270.137 338.924 270.137 340.1C270.137 341.18 269.921 342.152 269.489 343.016C269.057 343.88 268.445 344.612 267.653 345.212ZM262.685 336.392C261.365 336.392 260.333 336.728 259.589 337.4C258.869 338.072 258.509 338.972 258.509 340.1C258.509 341.156 258.881 342.044 259.625 342.764C260.369 343.484 261.389 343.844 262.685 343.844C263.957 343.844 264.941 343.496 265.637 342.8C266.357 342.08 266.717 341.18 266.717 340.1C266.717 338.972 266.369 338.072 265.673 337.4C264.977 336.728 263.981 336.392 262.685 336.392ZM262.685 356.408C264.317 356.408 265.589 356 266.501 355.184C267.437 354.344 267.905 353.216 267.905 351.8C267.905 350.336 267.437 349.148 266.501 348.236C265.589 347.3 264.317 346.832 262.685 346.832C261.053 346.832 259.769 347.3 258.833 348.236C257.921 349.148 257.465 350.336 257.465 351.8C257.465 353.216 257.921 354.344 258.833 355.184C259.769 356 261.053 356.408 262.685 356.408ZM291.523 333.296C294.139 333.296 296.191 334.148 297.679 335.852C299.167 337.556 299.911 339.824 299.911 342.656C299.911 345.08 299.383 347.372 298.327 349.532C297.295 351.668 295.951 353.54 294.295 355.148C292.663 356.756 290.935 358.04 289.111 359L286.771 356.804C288.763 355.772 290.551 354.452 292.135 352.844C293.743 351.212 294.919 349.412 295.663 347.444C294.295 348.428 292.651 348.92 290.731 348.92C289.291 348.92 287.995 348.596 286.843 347.948C285.715 347.276 284.827 346.364 284.179 345.212C283.555 344.036 283.243 342.728 283.243 341.288C283.243 339.752 283.591 338.384 284.287 337.184C284.983 335.96 285.955 335.012 287.203 334.34C288.451 333.644 289.891 333.296 291.523 333.296ZM291.523 345.968C292.939 345.968 294.091 345.512 294.979 344.6C295.867 343.688 296.311 342.536 296.311 341.144C296.311 339.704 295.867 338.528 294.979 337.616C294.115 336.704 292.963 336.248 291.523 336.248C290.107 336.248 288.955 336.716 288.067 337.652C287.203 338.588 286.771 339.764 286.771 341.18C286.771 342.548 287.203 343.688 288.067 344.6C288.955 345.512 290.107 345.968 291.523 345.968Z" fill="black"/>
</svg>
