<svg width="433" height="544" viewBox="0 0 433 544" fill="none" xmlns="http://www.w3.org/2000/svg">
<rect width="433" height="544" fill="white"/>
<path d="M37.3008 201.082L36.0703 197.848H25.5938L24.3633 201.152C23.8828 202.441 23.4727 203.314 23.1328 203.771C22.793 204.217 22.2363 204.439 21.4629 204.439C20.8066 204.439 20.2266 204.199 19.7227 203.719C19.2188 203.238 18.9668 202.693 18.9668 202.084C18.9668 201.732 19.0254 201.369 19.1426 200.994C19.2598 200.619 19.4531 200.098 19.7227 199.43L26.3145 182.695C26.502 182.215 26.7246 181.641 26.9824 180.973C27.252 180.293 27.5332 179.73 27.8262 179.285C28.1309 178.84 28.5234 178.482 29.0039 178.213C29.4961 177.932 30.0996 177.791 30.8145 177.791C31.541 177.791 32.1445 177.932 32.625 178.213C33.1172 178.482 33.5098 178.834 33.8027 179.268C34.1074 179.701 34.3594 180.17 34.5586 180.674C34.7695 181.166 35.0332 181.828 35.3496 182.66L42.082 199.289C42.6094 200.555 42.873 201.475 42.873 202.049C42.873 202.646 42.6211 203.197 42.1172 203.701C41.625 204.193 41.0273 204.439 40.3242 204.439C39.9141 204.439 39.5625 204.363 39.2695 204.211C38.9766 204.07 38.7305 203.877 38.5312 203.631C38.332 203.373 38.1152 202.986 37.8809 202.471C37.6582 201.943 37.4648 201.48 37.3008 201.082ZM26.9648 193.928H34.6641L30.7793 183.293L26.9648 193.928ZM51.1523 197.514V201.521C51.1523 202.494 50.9238 203.227 50.4668 203.719C50.0098 204.199 49.4297 204.439 48.7266 204.439C48.0352 204.439 47.4668 204.193 47.0215 203.701C46.5762 203.209 46.3535 202.482 46.3535 201.521V188.162C46.3535 186.006 47.1328 184.928 48.6914 184.928C49.4883 184.928 50.0625 185.18 50.4141 185.684C50.7656 186.188 50.959 186.932 50.9941 187.916C51.5684 186.932 52.1543 186.188 52.752 185.684C53.3613 185.18 54.1699 184.928 55.1777 184.928C56.1855 184.928 57.1641 185.18 58.1133 185.684C59.0625 186.188 59.5371 186.855 59.5371 187.688C59.5371 188.273 59.332 188.76 58.9219 189.146C58.5234 189.521 58.0898 189.709 57.6211 189.709C57.4453 189.709 57.0176 189.604 56.3379 189.393C55.6699 189.17 55.0781 189.059 54.5625 189.059C53.8594 189.059 53.2852 189.246 52.8398 189.621C52.3945 189.984 52.0488 190.529 51.8027 191.256C51.5566 191.982 51.3867 192.85 51.293 193.857C51.1992 194.854 51.1523 196.072 51.1523 197.514ZM66.9727 187.652V201.521C66.9727 202.482 66.7441 203.209 66.2871 203.701C65.8301 204.193 65.25 204.439 64.5469 204.439C63.8438 204.439 63.2695 204.188 62.8242 203.684C62.3906 203.18 62.1738 202.459 62.1738 201.521V187.793C62.1738 186.844 62.3906 186.129 62.8242 185.648C63.2695 185.168 63.8438 184.928 64.5469 184.928C65.25 184.928 65.8301 185.168 66.2871 185.648C66.7441 186.129 66.9727 186.797 66.9727 187.652ZM64.5996 182.695C63.9316 182.695 63.3574 182.49 62.877 182.08C62.4082 181.67 62.1738 181.09 62.1738 180.34C62.1738 179.66 62.4141 179.104 62.8945 178.67C63.3867 178.225 63.9551 178.002 64.5996 178.002C65.2207 178.002 65.7715 178.201 66.252 178.6C66.7324 178.998 66.9727 179.578 66.9727 180.34C66.9727 181.078 66.7383 181.658 66.2695 182.08C65.8008 182.49 65.2441 182.695 64.5996 182.695ZM84.0762 201.732C82.916 202.635 81.791 203.314 80.7012 203.771C79.623 204.217 78.4102 204.439 77.0625 204.439C75.832 204.439 74.748 204.199 73.8105 203.719C72.8848 203.227 72.1699 202.564 71.666 201.732C71.1621 200.9 70.9102 199.998 70.9102 199.025C70.9102 197.713 71.3262 196.594 72.1582 195.668C72.9902 194.742 74.1328 194.121 75.5859 193.805C75.8906 193.734 76.6465 193.576 77.8535 193.33C79.0605 193.084 80.0918 192.861 80.9473 192.662C81.8145 192.451 82.752 192.199 83.7598 191.906C83.7012 190.641 83.4434 189.715 82.9863 189.129C82.541 188.531 81.6094 188.232 80.1914 188.232C78.9727 188.232 78.0527 188.402 77.4316 188.742C76.8223 189.082 76.2949 189.592 75.8496 190.271C75.416 190.951 75.1055 191.402 74.918 191.625C74.7422 191.836 74.3555 191.941 73.7578 191.941C73.2188 191.941 72.75 191.771 72.3516 191.432C71.9648 191.08 71.7715 190.635 71.7715 190.096C71.7715 189.252 72.0703 188.432 72.668 187.635C73.2656 186.838 74.1973 186.182 75.4629 185.666C76.7285 185.15 78.3047 184.893 80.1914 184.893C82.3008 184.893 83.959 185.145 85.166 185.648C86.373 186.141 87.2227 186.926 87.7148 188.004C88.2188 189.082 88.4707 190.512 88.4707 192.293C88.4707 193.418 88.4648 194.373 88.4531 195.158C88.4531 195.943 88.4473 196.816 88.4355 197.777C88.4355 198.68 88.582 199.623 88.875 200.607C89.1797 201.58 89.332 202.207 89.332 202.488C89.332 202.98 89.0977 203.432 88.6289 203.842C88.1719 204.24 87.6504 204.439 87.0645 204.439C86.5723 204.439 86.0859 204.211 85.6055 203.754C85.125 203.285 84.6152 202.611 84.0762 201.732ZM83.7598 194.789C83.0566 195.047 82.0312 195.322 80.6836 195.615C79.3477 195.896 78.4219 196.107 77.9062 196.248C77.3906 196.377 76.8984 196.641 76.4297 197.039C75.9609 197.426 75.7266 197.971 75.7266 198.674C75.7266 199.4 76.002 200.021 76.5527 200.537C77.1035 201.041 77.8242 201.293 78.7148 201.293C79.6641 201.293 80.5371 201.088 81.334 200.678C82.1426 200.256 82.7344 199.717 83.1094 199.061C83.543 198.334 83.7598 197.139 83.7598 195.475V194.789ZM93.3574 201.521V180.709C93.3574 179.748 93.5684 179.021 93.9902 178.529C94.4238 178.037 95.0039 177.791 95.7305 177.791C96.457 177.791 97.043 178.037 97.4883 178.529C97.9336 179.01 98.1562 179.736 98.1562 180.709V201.521C98.1562 202.494 97.9277 203.227 97.4707 203.719C97.0254 204.199 96.4453 204.439 95.7305 204.439C95.0273 204.439 94.4531 204.188 94.0078 203.684C93.5742 203.18 93.3574 202.459 93.3574 201.521ZM119.479 192.979H117.65V201.258C117.65 202.348 117.41 203.15 116.93 203.666C116.449 204.182 115.822 204.439 115.049 204.439C114.217 204.439 113.572 204.17 113.115 203.631C112.658 203.092 112.43 202.301 112.43 201.258V181.43C112.43 180.305 112.682 179.49 113.186 178.986C113.689 178.482 114.504 178.23 115.629 178.23H124.119C125.291 178.23 126.293 178.283 127.125 178.389C127.957 178.482 128.707 178.682 129.375 178.986C130.184 179.326 130.898 179.812 131.52 180.445C132.141 181.078 132.609 181.816 132.926 182.66C133.254 183.492 133.418 184.377 133.418 185.314C133.418 187.236 132.873 188.771 131.783 189.92C130.705 191.068 129.064 191.883 126.861 192.363C127.787 192.855 128.672 193.582 129.516 194.543C130.359 195.504 131.109 196.529 131.766 197.619C132.434 198.697 132.949 199.676 133.312 200.555C133.688 201.422 133.875 202.02 133.875 202.348C133.875 202.688 133.764 203.027 133.541 203.367C133.33 203.695 133.037 203.953 132.662 204.141C132.287 204.34 131.854 204.439 131.361 204.439C130.775 204.439 130.283 204.299 129.885 204.018C129.486 203.748 129.141 203.402 128.848 202.98C128.566 202.559 128.18 201.938 127.688 201.117L125.596 197.637C124.846 196.359 124.172 195.387 123.574 194.719C122.988 194.051 122.391 193.594 121.781 193.348C121.172 193.102 120.404 192.979 119.479 192.979ZM122.467 182.15H117.65V189.234H122.326C123.58 189.234 124.635 189.129 125.49 188.918C126.346 188.695 126.996 188.326 127.441 187.811C127.898 187.283 128.127 186.562 128.127 185.648C128.127 184.934 127.945 184.307 127.582 183.768C127.219 183.217 126.715 182.807 126.07 182.537C125.461 182.279 124.26 182.15 122.467 182.15ZM155.092 194.684C155.092 196.113 154.869 197.432 154.424 198.639C153.979 199.846 153.334 200.883 152.49 201.75C151.646 202.617 150.639 203.285 149.467 203.754C148.295 204.211 146.977 204.439 145.512 204.439C144.059 204.439 142.752 204.205 141.592 203.736C140.432 203.268 139.424 202.6 138.568 201.732C137.725 200.854 137.08 199.822 136.635 198.639C136.201 197.443 135.984 196.125 135.984 194.684C135.984 193.23 136.207 191.9 136.652 190.693C137.098 189.486 137.736 188.455 138.568 187.6C139.4 186.744 140.408 186.088 141.592 185.631C142.775 185.162 144.082 184.928 145.512 184.928C146.965 184.928 148.283 185.162 149.467 185.631C150.65 186.1 151.664 186.768 152.508 187.635C153.352 188.502 153.99 189.533 154.424 190.729C154.869 191.924 155.092 193.242 155.092 194.684ZM150.275 194.684C150.275 192.727 149.842 191.203 148.975 190.113C148.119 189.023 146.965 188.479 145.512 188.479C144.574 188.479 143.748 188.725 143.033 189.217C142.318 189.697 141.768 190.412 141.381 191.361C140.994 192.311 140.801 193.418 140.801 194.684C140.801 195.938 140.988 197.033 141.363 197.971C141.75 198.908 142.295 199.629 142.998 200.133C143.713 200.625 144.551 200.871 145.512 200.871C146.965 200.871 148.119 200.326 148.975 199.236C149.842 198.135 150.275 196.617 150.275 194.684ZM171.352 201.732V201.117C170.777 201.844 170.174 202.453 169.541 202.945C168.908 203.438 168.217 203.801 167.467 204.035C166.717 204.281 165.861 204.404 164.9 204.404C163.74 204.404 162.697 204.164 161.771 203.684C160.857 203.203 160.148 202.541 159.645 201.697C159.047 200.678 158.748 199.213 158.748 197.303V187.793C158.748 186.832 158.965 186.117 159.398 185.648C159.832 185.168 160.406 184.928 161.121 184.928C161.848 184.928 162.434 185.168 162.879 185.648C163.324 186.129 163.547 186.844 163.547 187.793V195.475C163.547 196.588 163.641 197.525 163.828 198.287C164.016 199.037 164.35 199.629 164.83 200.062C165.322 200.484 165.984 200.695 166.816 200.695C167.625 200.695 168.387 200.455 169.102 199.975C169.816 199.494 170.338 198.867 170.666 198.094C170.936 197.414 171.07 195.926 171.07 193.629V187.793C171.07 186.844 171.293 186.129 171.738 185.648C172.184 185.168 172.764 184.928 173.479 184.928C174.193 184.928 174.768 185.168 175.201 185.648C175.635 186.117 175.852 186.832 175.852 187.793V201.697C175.852 202.611 175.641 203.297 175.219 203.754C174.809 204.211 174.275 204.439 173.619 204.439C172.963 204.439 172.418 204.205 171.984 203.736C171.562 203.256 171.352 202.588 171.352 201.732ZM185.01 187.582V188.162C185.854 187.049 186.773 186.234 187.77 185.719C188.777 185.191 189.932 184.928 191.232 184.928C192.498 184.928 193.629 185.203 194.625 185.754C195.621 186.305 196.365 187.084 196.857 188.092C197.174 188.678 197.379 189.311 197.473 189.99C197.566 190.67 197.613 191.537 197.613 192.592V201.521C197.613 202.482 197.391 203.209 196.945 203.701C196.512 204.193 195.943 204.439 195.24 204.439C194.525 204.439 193.945 204.188 193.5 203.684C193.055 203.18 192.832 202.459 192.832 201.521V193.523C192.832 191.941 192.609 190.734 192.164 189.902C191.73 189.059 190.857 188.637 189.545 188.637C188.689 188.637 187.91 188.895 187.207 189.41C186.504 189.914 185.988 190.611 185.66 191.502C185.426 192.217 185.309 193.553 185.309 195.51V201.521C185.309 202.494 185.08 203.227 184.623 203.719C184.178 204.199 183.598 204.439 182.883 204.439C182.191 204.439 181.623 204.188 181.178 203.684C180.732 203.18 180.51 202.459 180.51 201.521V187.652C180.51 186.738 180.709 186.059 181.107 185.613C181.506 185.156 182.051 184.928 182.742 184.928C183.164 184.928 183.545 185.027 183.885 185.227C184.225 185.426 184.494 185.725 184.693 186.123C184.904 186.521 185.01 187.008 185.01 187.582ZM215.561 201.697V201.223C214.916 201.961 214.277 202.564 213.645 203.033C213.023 203.49 212.344 203.836 211.605 204.07C210.879 204.316 210.082 204.439 209.215 204.439C208.066 204.439 207 204.199 206.016 203.719C205.043 203.227 204.199 202.529 203.484 201.627C202.77 200.725 202.225 199.664 201.85 198.445C201.486 197.227 201.305 195.908 201.305 194.49C201.305 191.49 202.037 189.152 203.502 187.477C204.967 185.801 206.895 184.963 209.285 184.963C210.668 184.963 211.834 185.203 212.783 185.684C213.732 186.152 214.658 186.879 215.561 187.863V180.779C215.561 179.795 215.754 179.051 216.141 178.547C216.539 178.043 217.102 177.791 217.828 177.791C218.555 177.791 219.111 178.025 219.498 178.494C219.896 178.951 220.096 179.631 220.096 180.533V201.697C220.096 202.611 219.885 203.297 219.463 203.754C219.041 204.211 218.496 204.439 217.828 204.439C217.172 204.439 216.627 204.205 216.193 203.736C215.771 203.256 215.561 202.576 215.561 201.697ZM206.121 194.648C206.121 195.949 206.32 197.057 206.719 197.971C207.129 198.885 207.686 199.576 208.389 200.045C209.092 200.502 209.859 200.73 210.691 200.73C211.535 200.73 212.303 200.514 212.994 200.08C213.697 199.635 214.254 198.961 214.664 198.059C215.086 197.145 215.297 196.008 215.297 194.648C215.297 193.371 215.086 192.275 214.664 191.361C214.254 190.436 213.691 189.732 212.977 189.252C212.273 188.76 211.5 188.514 210.656 188.514C209.777 188.514 208.992 188.766 208.301 189.27C207.609 189.762 207.07 190.477 206.684 191.414C206.309 192.34 206.121 193.418 206.121 194.648ZM238.307 195.861H228.92C228.932 196.951 229.148 197.912 229.57 198.744C230.004 199.576 230.572 200.203 231.275 200.625C231.99 201.047 232.775 201.258 233.631 201.258C234.205 201.258 234.727 201.193 235.195 201.064C235.676 200.924 236.139 200.713 236.584 200.432C237.029 200.139 237.439 199.828 237.814 199.5C238.189 199.172 238.676 198.727 239.273 198.164C239.52 197.953 239.871 197.848 240.328 197.848C240.82 197.848 241.219 197.982 241.523 198.252C241.828 198.521 241.98 198.902 241.98 199.395C241.98 199.828 241.811 200.338 241.471 200.924C241.131 201.498 240.615 202.055 239.924 202.594C239.244 203.121 238.383 203.561 237.34 203.912C236.309 204.264 235.119 204.439 233.771 204.439C230.689 204.439 228.293 203.561 226.582 201.803C224.871 200.045 224.016 197.66 224.016 194.648C224.016 193.23 224.227 191.918 224.648 190.711C225.07 189.492 225.686 188.449 226.494 187.582C227.303 186.715 228.299 186.053 229.482 185.596C230.666 185.127 231.979 184.893 233.42 184.893C235.295 184.893 236.9 185.291 238.236 186.088C239.584 186.873 240.592 187.893 241.26 189.146C241.928 190.4 242.262 191.678 242.262 192.979C242.262 194.186 241.916 194.971 241.225 195.334C240.533 195.686 239.561 195.861 238.307 195.861ZM228.92 193.137H237.621C237.504 191.496 237.059 190.271 236.285 189.463C235.523 188.643 234.516 188.232 233.262 188.232C232.066 188.232 231.082 188.648 230.309 189.48C229.547 190.301 229.084 191.52 228.92 193.137ZM259.471 201.697V201.223C258.826 201.961 258.188 202.564 257.555 203.033C256.934 203.49 256.254 203.836 255.516 204.07C254.789 204.316 253.992 204.439 253.125 204.439C251.977 204.439 250.91 204.199 249.926 203.719C248.953 203.227 248.109 202.529 247.395 201.627C246.68 200.725 246.135 199.664 245.76 198.445C245.396 197.227 245.215 195.908 245.215 194.49C245.215 191.49 245.947 189.152 247.412 187.477C248.877 185.801 250.805 184.963 253.195 184.963C254.578 184.963 255.744 185.203 256.693 185.684C257.643 186.152 258.568 186.879 259.471 187.863V180.779C259.471 179.795 259.664 179.051 260.051 178.547C260.449 178.043 261.012 177.791 261.738 177.791C262.465 177.791 263.021 178.025 263.408 178.494C263.807 178.951 264.006 179.631 264.006 180.533V201.697C264.006 202.611 263.795 203.297 263.373 203.754C262.951 204.211 262.406 204.439 261.738 204.439C261.082 204.439 260.537 204.205 260.104 203.736C259.682 203.256 259.471 202.576 259.471 201.697ZM250.031 194.648C250.031 195.949 250.23 197.057 250.629 197.971C251.039 198.885 251.596 199.576 252.299 200.045C253.002 200.502 253.77 200.73 254.602 200.73C255.445 200.73 256.213 200.514 256.904 200.08C257.607 199.635 258.164 198.961 258.574 198.059C258.996 197.145 259.207 196.008 259.207 194.648C259.207 193.371 258.996 192.275 258.574 191.361C258.164 190.436 257.602 189.732 256.887 189.252C256.184 188.76 255.41 188.514 254.566 188.514C253.688 188.514 252.902 188.766 252.211 189.27C251.52 189.762 250.98 190.477 250.594 191.414C250.219 192.34 250.031 193.418 250.031 194.648ZM286.857 200.115L282.727 183.697V201.486C282.727 202.471 282.504 203.209 282.059 203.701C281.625 204.193 281.045 204.439 280.318 204.439C279.615 204.439 279.041 204.199 278.596 203.719C278.15 203.227 277.928 202.482 277.928 201.486V181.096C277.928 179.971 278.221 179.215 278.807 178.828C279.393 178.43 280.184 178.23 281.18 178.23H282.797C283.77 178.23 284.473 178.318 284.906 178.494C285.352 178.67 285.68 178.986 285.891 179.443C286.102 179.9 286.342 180.645 286.611 181.676L290.355 195.791L294.1 181.676C294.369 180.645 294.609 179.9 294.82 179.443C295.031 178.986 295.354 178.67 295.787 178.494C296.232 178.318 296.941 178.23 297.914 178.23H299.531C300.527 178.23 301.318 178.43 301.904 178.828C302.49 179.215 302.783 179.971 302.783 181.096V201.486C302.783 202.471 302.561 203.209 302.115 203.701C301.682 204.193 301.096 204.439 300.357 204.439C299.666 204.439 299.098 204.193 298.652 203.701C298.207 203.209 297.984 202.471 297.984 201.486V183.697L293.854 200.115C293.584 201.182 293.361 201.967 293.186 202.471C293.021 202.963 292.711 203.414 292.254 203.824C291.797 204.234 291.164 204.439 290.355 204.439C289.746 204.439 289.23 204.305 288.809 204.035C288.387 203.777 288.059 203.443 287.824 203.033C287.59 202.623 287.402 202.172 287.262 201.68C287.133 201.176 286.998 200.654 286.857 200.115ZM324.879 182.537H319.184V201.258C319.184 202.336 318.943 203.139 318.463 203.666C317.982 204.182 317.361 204.439 316.6 204.439C315.826 204.439 315.193 204.176 314.701 203.648C314.221 203.121 313.98 202.324 313.98 201.258V182.537H308.285C307.395 182.537 306.732 182.344 306.299 181.957C305.865 181.559 305.648 181.037 305.648 180.393C305.648 179.725 305.871 179.197 306.316 178.811C306.773 178.424 307.43 178.23 308.285 178.23H324.879C325.781 178.23 326.449 178.43 326.883 178.828C327.328 179.227 327.551 179.748 327.551 180.393C327.551 181.037 327.328 181.559 326.883 181.957C326.438 182.344 325.77 182.537 324.879 182.537ZM350.648 204H342.773C341.637 204 340.822 203.748 340.33 203.244C339.85 202.729 339.609 201.914 339.609 200.801V181.43C339.609 180.293 339.855 179.479 340.348 178.986C340.852 178.482 341.66 178.23 342.773 178.23H351.123C352.354 178.23 353.42 178.307 354.322 178.459C355.225 178.611 356.033 178.904 356.748 179.338C357.357 179.701 357.896 180.164 358.365 180.727C358.834 181.277 359.191 181.893 359.438 182.572C359.684 183.24 359.807 183.949 359.807 184.699C359.807 187.277 358.518 189.164 355.939 190.359C359.326 191.438 361.02 193.535 361.02 196.652C361.02 198.094 360.65 199.395 359.912 200.555C359.174 201.703 358.178 202.553 356.924 203.104C356.139 203.432 355.236 203.666 354.217 203.807C353.197 203.936 352.008 204 350.648 204ZM350.262 192.557H344.83V200.08H350.438C353.965 200.08 355.729 198.809 355.729 196.266C355.729 194.965 355.271 194.021 354.357 193.436C353.443 192.85 352.078 192.557 350.262 192.557ZM344.83 182.15V188.812H349.611C350.912 188.812 351.914 188.689 352.617 188.443C353.332 188.197 353.877 187.729 354.252 187.037C354.545 186.545 354.691 185.994 354.691 185.385C354.691 184.084 354.229 183.223 353.303 182.801C352.377 182.367 350.965 182.15 349.066 182.15H344.83ZM383.186 194.684C383.186 196.113 382.963 197.432 382.518 198.639C382.072 199.846 381.428 200.883 380.584 201.75C379.74 202.617 378.732 203.285 377.561 203.754C376.389 204.211 375.07 204.439 373.605 204.439C372.152 204.439 370.846 204.205 369.686 203.736C368.525 203.268 367.518 202.6 366.662 201.732C365.818 200.854 365.174 199.822 364.729 198.639C364.295 197.443 364.078 196.125 364.078 194.684C364.078 193.23 364.301 191.9 364.746 190.693C365.191 189.486 365.83 188.455 366.662 187.6C367.494 186.744 368.502 186.088 369.686 185.631C370.869 185.162 372.176 184.928 373.605 184.928C375.059 184.928 376.377 185.162 377.561 185.631C378.744 186.1 379.758 186.768 380.602 187.635C381.445 188.502 382.084 189.533 382.518 190.729C382.963 191.924 383.186 193.242 383.186 194.684ZM378.369 194.684C378.369 192.727 377.936 191.203 377.068 190.113C376.213 189.023 375.059 188.479 373.605 188.479C372.668 188.479 371.842 188.725 371.127 189.217C370.412 189.697 369.861 190.412 369.475 191.361C369.088 192.311 368.895 193.418 368.895 194.684C368.895 195.938 369.082 197.033 369.457 197.971C369.844 198.908 370.389 199.629 371.092 200.133C371.807 200.625 372.645 200.871 373.605 200.871C375.059 200.871 376.213 200.326 377.068 199.236C377.936 198.135 378.369 196.617 378.369 194.684ZM386.982 201.521V180.709C386.982 179.748 387.193 179.021 387.615 178.529C388.049 178.037 388.629 177.791 389.355 177.791C390.082 177.791 390.668 178.037 391.113 178.529C391.559 179.01 391.781 179.736 391.781 180.709V201.521C391.781 202.494 391.553 203.227 391.096 203.719C390.65 204.199 390.07 204.439 389.355 204.439C388.652 204.439 388.078 204.188 387.633 203.684C387.199 203.18 386.982 202.459 386.982 201.521ZM409.904 201.697V201.223C409.26 201.961 408.621 202.564 407.988 203.033C407.367 203.49 406.688 203.836 405.949 204.07C405.223 204.316 404.426 204.439 403.559 204.439C402.41 204.439 401.344 204.199 400.359 203.719C399.387 203.227 398.543 202.529 397.828 201.627C397.113 200.725 396.568 199.664 396.193 198.445C395.83 197.227 395.648 195.908 395.648 194.49C395.648 191.49 396.381 189.152 397.846 187.477C399.311 185.801 401.238 184.963 403.629 184.963C405.012 184.963 406.178 185.203 407.127 185.684C408.076 186.152 409.002 186.879 409.904 187.863V180.779C409.904 179.795 410.098 179.051 410.484 178.547C410.883 178.043 411.445 177.791 412.172 177.791C412.898 177.791 413.455 178.025 413.842 178.494C414.24 178.951 414.439 179.631 414.439 180.533V201.697C414.439 202.611 414.229 203.297 413.807 203.754C413.385 204.211 412.84 204.439 412.172 204.439C411.516 204.439 410.971 204.205 410.537 203.736C410.115 203.256 409.904 202.576 409.904 201.697ZM400.465 194.648C400.465 195.949 400.664 197.057 401.062 197.971C401.473 198.885 402.029 199.576 402.732 200.045C403.436 200.502 404.203 200.73 405.035 200.73C405.879 200.73 406.646 200.514 407.338 200.08C408.041 199.635 408.598 198.961 409.008 198.059C409.43 197.145 409.641 196.008 409.641 194.648C409.641 193.371 409.43 192.275 409.008 191.361C408.598 190.436 408.035 189.732 407.32 189.252C406.617 188.76 405.844 188.514 405 188.514C404.121 188.514 403.336 188.766 402.645 189.27C401.953 189.762 401.414 190.477 401.027 191.414C400.652 192.34 400.465 193.418 400.465 194.648Z" fill="black"/>
<path d="M196.203 123.328L191.281 110.391H149.375L144.453 123.609C142.531 128.766 140.891 132.258 139.531 134.086C138.172 135.867 135.945 136.758 132.852 136.758C130.227 136.758 127.906 135.797 125.891 133.875C123.875 131.953 122.867 129.773 122.867 127.336C122.867 125.93 123.102 124.477 123.57 122.977C124.039 121.477 124.812 119.391 125.891 116.719L152.258 49.7812C153.008 47.8594 153.898 45.5625 154.93 42.8906C156.008 40.1719 157.133 37.9219 158.305 36.1406C159.523 34.3594 161.094 32.9297 163.016 31.8516C164.984 30.7266 167.398 30.1641 170.258 30.1641C173.164 30.1641 175.578 30.7266 177.5 31.8516C179.469 32.9297 181.039 34.3359 182.211 36.0703C183.43 37.8047 184.438 39.6797 185.234 41.6953C186.078 43.6641 187.133 46.3125 188.398 49.6406L215.328 116.156C217.438 121.219 218.492 124.898 218.492 127.195C218.492 129.586 217.484 131.789 215.469 133.805C213.5 135.773 211.109 136.758 208.297 136.758C206.656 136.758 205.25 136.453 204.078 135.844C202.906 135.281 201.922 134.508 201.125 133.523C200.328 132.492 199.461 130.945 198.523 128.883C197.633 126.773 196.859 124.922 196.203 123.328ZM154.859 94.7109H185.656L170.117 52.1719L154.859 94.7109ZM281.07 125.93C276.43 129.539 271.93 132.258 267.57 134.086C263.258 135.867 258.406 136.758 253.016 136.758C248.094 136.758 243.758 135.797 240.008 133.875C236.305 131.906 233.445 129.258 231.43 125.93C229.414 122.602 228.406 118.992 228.406 115.102C228.406 109.852 230.07 105.375 233.398 101.672C236.727 97.9688 241.297 95.4844 247.109 94.2188C248.328 93.9375 251.352 93.3047 256.18 92.3203C261.008 91.3359 265.133 90.4453 268.555 89.6484C272.023 88.8047 275.773 87.7969 279.805 86.625C279.57 81.5625 278.539 77.8594 276.711 75.5156C274.93 73.125 271.203 71.9297 265.531 71.9297C260.656 71.9297 256.977 72.6094 254.492 73.9688C252.055 75.3281 249.945 77.3672 248.164 80.0859C246.43 82.8047 245.188 84.6094 244.438 85.5C243.734 86.3438 242.188 86.7656 239.797 86.7656C237.641 86.7656 235.766 86.0859 234.172 84.7266C232.625 83.3203 231.852 81.5391 231.852 79.3828C231.852 76.0078 233.047 72.7266 235.438 69.5391C237.828 66.3516 241.555 63.7266 246.617 61.6641C251.68 59.6016 257.984 58.5703 265.531 58.5703C273.969 58.5703 280.602 59.5781 285.43 61.5938C290.258 63.5625 293.656 66.7031 295.625 71.0156C297.641 75.3281 298.648 81.0469 298.648 88.1719C298.648 92.6719 298.625 96.4922 298.578 99.6328C298.578 102.773 298.555 106.266 298.508 110.109C298.508 113.719 299.094 117.492 300.266 121.43C301.484 125.32 302.094 127.828 302.094 128.953C302.094 130.922 301.156 132.727 299.281 134.367C297.453 135.961 295.367 136.758 293.023 136.758C291.055 136.758 289.109 135.844 287.188 134.016C285.266 132.141 283.227 129.445 281.07 125.93ZM279.805 98.1562C276.992 99.1875 272.891 100.289 267.5 101.461C262.156 102.586 258.453 103.43 256.391 103.992C254.328 104.508 252.359 105.562 250.484 107.156C248.609 108.703 247.672 110.883 247.672 113.695C247.672 116.602 248.773 119.086 250.977 121.148C253.18 123.164 256.062 124.172 259.625 124.172C263.422 124.172 266.914 123.352 270.102 121.711C273.336 120.023 275.703 117.867 277.203 115.242C278.938 112.336 279.805 107.555 279.805 100.898V98.1562Z" fill="black"/>
<path d="M197.648 404.784H159.056L149.408 432H135.008L171.152 331.2H185.552L221.696 432H207.296L197.648 404.784ZM193.328 392.4L178.352 350.352L163.376 392.4H193.328ZM247.934 433.44C241.406 433.44 236.126 431.52 232.094 427.68C228.158 423.84 226.19 418.944 226.19 412.992C226.19 404.064 230.414 397.68 238.862 393.84C247.31 390 257.15 387.984 268.382 387.792C268.382 381.456 267.134 377.184 264.638 374.976C262.238 372.672 258.35 371.52 252.974 371.52C249.998 371.52 247.022 372 244.046 372.96C241.07 373.824 237.854 375.456 234.398 377.856L232.526 367.344C235.406 365.136 238.958 363.36 243.182 362.016C247.406 360.672 251.822 360 256.43 360C262.478 360 267.278 361.056 270.83 363.168C274.478 365.28 277.118 368.784 278.75 373.68C280.478 378.576 281.342 385.296 281.342 393.84V408.24C281.342 412.08 281.486 415.008 281.774 417.024C282.158 418.944 282.926 420.432 284.078 421.488C285.23 422.544 287.006 423.072 289.406 423.072H290.702L288.686 433.44H287.678C283.646 433.44 280.478 433.056 278.174 432.288C275.87 431.52 274.094 430.416 272.846 428.976C271.694 427.536 270.59 425.568 269.534 423.072C263.582 429.984 256.382 433.44 247.934 433.44ZM250.382 423.072C253.838 423.072 257.15 422.208 260.318 420.48C263.582 418.752 266.27 416.448 268.382 413.568V396.72C258.014 397.104 250.574 398.496 246.062 400.896C241.646 403.2 239.438 406.992 239.438 412.272C239.438 415.92 240.398 418.656 242.318 420.48C244.334 422.208 247.022 423.072 250.382 423.072Z" fill="black"/>
<path d="M127.112 500.504C124.664 500.504 122.48 499.964 120.56 498.884C118.64 497.804 117.128 496.28 116.024 494.312C114.944 492.32 114.404 490.016 114.404 487.4C114.404 484.784 114.956 482.492 116.06 480.524C117.164 478.532 118.688 476.996 120.632 475.916C122.576 474.836 124.784 474.296 127.256 474.296C128.48 474.296 129.68 474.428 130.856 474.692C132.032 474.956 133.076 475.316 133.988 475.772L133.628 478.94C131.468 477.908 129.332 477.392 127.22 477.392C125.3 477.392 123.656 477.836 122.288 478.724C120.92 479.588 119.888 480.776 119.192 482.288C118.496 483.8 118.148 485.504 118.148 487.4C118.148 489.296 118.496 491 119.192 492.512C119.888 494.024 120.908 495.224 122.252 496.112C123.596 496.976 125.228 497.408 127.148 497.408C129.404 497.408 131.564 496.904 133.628 495.896L133.988 499.064C131.9 500.024 129.608 500.504 127.112 500.504ZM141.484 500.36C139.852 500.36 138.532 499.88 137.524 498.92C136.54 497.96 136.048 496.736 136.048 495.248C136.048 493.016 137.104 491.42 139.216 490.46C141.328 489.5 143.788 488.996 146.596 488.948C146.596 487.364 146.284 486.296 145.66 485.744C145.06 485.168 144.088 484.88 142.744 484.88C142 484.88 141.256 485 140.512 485.24C139.768 485.456 138.964 485.864 138.1 486.464L137.632 483.836C138.352 483.284 139.24 482.84 140.296 482.504C141.352 482.168 142.456 482 143.608 482C145.12 482 146.32 482.264 147.208 482.792C148.12 483.32 148.78 484.196 149.188 485.42C149.62 486.644 149.836 488.324 149.836 490.46V494.06C149.836 495.02 149.872 495.752 149.944 496.256C150.04 496.736 150.232 497.108 150.52 497.372C150.808 497.636 151.252 497.768 151.852 497.768H152.176L151.672 500.36H151.42C150.412 500.36 149.62 500.264 149.044 500.072C148.468 499.88 148.024 499.604 147.712 499.244C147.424 498.884 147.148 498.392 146.884 497.768C145.396 499.496 143.596 500.36 141.484 500.36ZM142.096 497.768C142.96 497.768 143.788 497.552 144.58 497.12C145.396 496.688 146.068 496.112 146.596 495.392V491.18C144.004 491.276 142.144 491.624 141.016 492.224C139.912 492.8 139.36 493.748 139.36 495.068C139.36 495.98 139.6 496.664 140.08 497.12C140.584 497.552 141.256 497.768 142.096 497.768ZM163.352 482C164.936 482 166.328 482.42 167.528 483.26C168.752 484.1 169.688 485.228 170.336 486.644C170.984 488.036 171.308 489.548 171.308 491.18C171.308 492.86 170.948 494.408 170.228 495.824C169.532 497.216 168.572 498.32 167.348 499.136C166.148 499.952 164.816 500.36 163.352 500.36C162.272 500.36 161.228 500.144 160.22 499.712C159.212 499.256 158.432 498.632 157.88 497.84L157.52 500H154.64V473H157.88V484.412C158.528 483.668 159.332 483.08 160.292 482.648C161.276 482.216 162.296 482 163.352 482ZM162.956 497.48C164.468 497.48 165.68 496.88 166.592 495.68C167.528 494.456 167.996 492.956 167.996 491.18C167.996 489.356 167.528 487.856 166.592 486.68C165.68 485.48 164.468 484.88 162.956 484.88C161.468 484.88 160.22 485.432 159.212 486.536C158.204 487.616 157.7 489.164 157.7 491.18C157.7 493.268 158.192 494.84 159.176 495.896C160.184 496.952 161.444 497.48 162.956 497.48ZM174.645 474.8H177.885V478.4H174.645V474.8ZM174.645 482.36H177.885V500H174.645V482.36ZM190.986 482C195.786 482 198.186 484.76 198.186 490.28V500H194.946V490.28C194.946 488.384 194.586 487.016 193.866 486.176C193.17 485.312 191.994 484.88 190.338 484.88C189.282 484.88 188.322 485.072 187.458 485.456C186.594 485.84 185.946 486.416 185.514 487.184V500H182.274V482.36H184.794L185.154 484.232C186.09 483.392 187.026 482.816 187.962 482.504C188.922 482.168 189.93 482 190.986 482ZM211.153 474.8H219.325C222.061 474.8 224.197 475.436 225.733 476.708C227.269 477.956 228.037 479.876 228.037 482.468C228.037 485.828 226.573 488.192 223.645 489.56L229.297 500H225.121L220.009 490.172H219.829H214.753V500H211.153V474.8ZM219.289 487.112C220.969 487.112 222.253 486.704 223.141 485.888C224.029 485.072 224.473 483.932 224.473 482.468C224.473 481.004 224.029 479.876 223.141 479.084C222.277 478.268 220.993 477.86 219.289 477.86H214.753V487.112H219.289ZM239.953 500.36C237.937 500.36 236.209 499.952 234.769 499.136C233.353 498.296 232.273 497.168 231.529 495.752C230.785 494.336 230.413 492.764 230.413 491.036C230.413 489.38 230.749 487.868 231.421 486.5C232.117 485.108 233.113 484.016 234.409 483.224C235.729 482.408 237.277 482 239.053 482C241.309 482 243.133 482.66 244.525 483.98C245.941 485.3 246.649 487.124 246.649 489.452C246.649 490.052 246.601 490.628 246.505 491.18H233.725C233.941 493.46 234.637 495.08 235.813 496.04C236.989 497 238.501 497.48 240.349 497.48C242.197 497.48 243.889 497.132 245.425 496.436L245.857 498.992C243.817 499.904 241.849 500.36 239.953 500.36ZM243.301 488.948C243.301 487.676 242.941 486.68 242.221 485.96C241.501 485.24 240.421 484.88 238.981 484.88C237.589 484.88 236.497 485.228 235.705 485.924C234.913 486.596 234.349 487.604 234.013 488.948H243.301ZM257.043 509C254.547 509 252.519 508.544 250.959 507.632C249.423 506.72 248.655 505.424 248.655 503.744C248.655 501.896 249.675 500.516 251.715 499.604C250.563 499.028 249.987 498.284 249.987 497.372C249.987 496.22 250.683 495.368 252.075 494.816C251.091 494.216 250.335 493.4 249.807 492.368C249.279 491.336 249.015 490.172 249.015 488.876C249.015 487.58 249.303 486.416 249.879 485.384C250.479 484.328 251.319 483.5 252.399 482.9C253.503 482.3 254.799 482 256.287 482C257.871 482 259.311 482.456 260.607 483.368C261.879 482.648 263.343 482.288 264.999 482.288H265.287L264.891 484.448H264.063C263.847 484.448 263.535 484.472 263.127 484.52C262.719 484.568 262.359 484.628 262.047 484.7C262.551 485.276 262.935 485.924 263.199 486.644C263.463 487.364 263.595 488.108 263.595 488.876C263.595 490.22 263.295 491.432 262.695 492.512C262.119 493.568 261.279 494.408 260.175 495.032C259.071 495.632 257.775 495.932 256.287 495.932C255.423 495.932 254.631 495.824 253.911 495.608C253.359 495.8 253.083 496.112 253.083 496.544C253.083 497.12 253.743 497.504 255.063 497.696L259.779 498.452C261.747 498.764 263.235 499.328 264.243 500.144C265.251 500.96 265.755 502.088 265.755 503.528C265.755 505.328 264.975 506.684 263.415 507.596C261.879 508.532 259.755 509 257.043 509ZM256.287 493.34C257.631 493.34 258.663 492.944 259.383 492.152C260.127 491.336 260.499 490.256 260.499 488.912C260.499 487.616 260.127 486.572 259.383 485.78C258.663 484.988 257.631 484.592 256.287 484.592C254.943 484.592 253.911 484.988 253.191 485.78C252.471 486.572 252.111 487.616 252.111 488.912C252.111 490.256 252.471 491.336 253.191 492.152C253.911 492.944 254.943 493.34 256.287 493.34ZM257.331 506.12C258.987 506.12 260.259 505.904 261.147 505.472C262.035 505.04 262.479 504.416 262.479 503.6C262.479 502.976 262.203 502.472 261.651 502.088C261.123 501.728 260.319 501.44 259.239 501.224L254.199 500.36C253.479 500.696 252.891 501.104 252.435 501.584C251.979 502.088 251.751 502.64 251.751 503.24C251.751 504.224 252.243 504.944 253.227 505.4C254.211 505.88 255.579 506.12 257.331 506.12ZM282.316 482.36V500H279.436L279.076 498.056C278.5 498.848 277.816 499.436 277.024 499.82C276.256 500.18 275.308 500.36 274.18 500.36C272.068 500.36 270.448 499.724 269.32 498.452C268.216 497.156 267.664 495.212 267.664 492.62V482.36H270.904V491.72C270.904 493.64 271.228 495.08 271.876 496.04C272.548 497 273.592 497.48 275.008 497.48C275.848 497.48 276.628 497.312 277.348 496.976C278.092 496.64 278.668 496.148 279.076 495.5V482.36H282.316ZM291.259 500.36C289.675 500.36 288.511 499.952 287.767 499.136C287.047 498.32 286.687 497.312 286.687 496.112V473H289.927V494.24C289.927 495.296 289.987 496.064 290.107 496.544C290.251 497.024 290.515 497.348 290.899 497.516C291.283 497.684 291.907 497.768 292.771 497.768L292.303 500.36H291.259ZM299.335 500.36C297.703 500.36 296.383 499.88 295.375 498.92C294.391 497.96 293.899 496.736 293.899 495.248C293.899 493.016 294.955 491.42 297.067 490.46C299.179 489.5 301.639 488.996 304.447 488.948C304.447 487.364 304.135 486.296 303.511 485.744C302.911 485.168 301.939 484.88 300.595 484.88C299.851 484.88 299.107 485 298.363 485.24C297.619 485.456 296.815 485.864 295.951 486.464L295.483 483.836C296.203 483.284 297.091 482.84 298.147 482.504C299.203 482.168 300.307 482 301.459 482C302.971 482 304.171 482.264 305.059 482.792C305.971 483.32 306.631 484.196 307.039 485.42C307.471 486.644 307.687 488.324 307.687 490.46V494.06C307.687 495.02 307.723 495.752 307.795 496.256C307.891 496.736 308.083 497.108 308.371 497.372C308.659 497.636 309.103 497.768 309.703 497.768H310.027L309.523 500.36H309.271C308.263 500.36 307.471 500.264 306.895 500.072C306.319 499.88 305.875 499.604 305.563 499.244C305.275 498.884 304.999 498.392 304.735 497.768C303.247 499.496 301.447 500.36 299.335 500.36ZM299.947 497.768C300.811 497.768 301.639 497.552 302.431 497.12C303.247 496.688 303.919 496.112 304.447 495.392V491.18C301.855 491.276 299.995 491.624 298.867 492.224C297.763 492.8 297.211 493.748 297.211 495.068C297.211 495.98 297.451 496.664 297.931 497.12C298.435 497.552 299.107 497.768 299.947 497.768ZM312.528 482.36H315.192L315.588 485.276C316.5 484.148 317.364 483.32 318.18 482.792C319.02 482.264 319.896 482 320.808 482C321.096 482 321.372 482.036 321.636 482.108L321.312 485.672C321 485.6 320.64 485.564 320.232 485.564C319.344 485.564 318.504 485.768 317.712 486.176C316.92 486.56 316.344 487.016 315.984 487.544V500H312.528V482.36Z" fill="black"/>
</svg>
